<svg width="97" height="80" viewBox="0 0 97 80" fill="none" xmlns="http://www.w3.org/2000/svg">
<path d="M17.1981 54.8444L14.6651 61.4452L11.4083 67.7591L10.3227 69.4811L9.39508 70.5847C9.04943 70.9959 8.66324 71.3712 8.24236 71.705L7.42784 72.351" stroke="#2F4558" stroke-width="3" stroke-linecap="round"/>
<path d="M88.8469 39.6337L86.6757 46.2345L83.7808 54.8444L81.2478 61.4452L77.991 67.7591L76.9054 69.4811L75.9409 70.6284C75.6198 71.0105 75.2609 71.3593 74.8699 71.6694L74.5422 71.9293C74.1896 72.2089 73.798 72.4353 73.3797 72.6011L72.8994 72.7916C72.6772 72.8797 72.4403 72.925 72.2012 72.925V72.925" stroke="#2F4558" stroke-width="3" stroke-linecap="round"/>
<path d="M54.8318 37.1006L57.7268 46.2345L60.6217 54.8444L63.1547 61.4452L66.4115 67.7591L67.4971 69.4811L68.4615 70.6284C68.7827 71.0105 69.1415 71.3593 69.5326 71.6694L69.8603 71.9293C70.2128 72.2089 70.6045 72.4353 71.0227 72.6011L71.503 72.7916C71.7253 72.8797 71.9622 72.925 72.2013 72.925V72.925" stroke="#2F4558" stroke-width="3" stroke-linecap="round"/>
<path d="M51.2133 26.6066L47.9567 17.8221L44.7 11.5082L43.6144 9.78628L42.6499 8.6389C42.3287 8.25681 41.9699 7.90805 41.5788 7.59789L41.2511 7.33798C40.8986 7.0584 40.507 6.83206 40.0887 6.66621L39.6084 6.47574C39.3862 6.38761 39.1493 6.34235 38.9102 6.34235V6.34235" stroke="#2F4558" stroke-width="3" stroke-linecap="round"/>
<path d="M20.455 45.7854L22.6262 38.91L24.4356 33.0328L27.3305 24.423L29.8635 17.8221L31.3109 14.6652L33.1203 11.5083L34.2059 9.78631L35.1703 8.63892C35.4915 8.25684 35.8503 7.90808 36.2414 7.59792L36.5691 7.33802C36.9216 7.05843 37.3133 6.83209 37.7315 6.66623L38.2118 6.47577C38.4341 6.38764 38.671 6.34238 38.9101 6.34238V6.34238" stroke="#2F4558" stroke-width="3" stroke-linecap="round"/>
<path d="M46.1472 39.9955L43.7872 42.9372L40.6406 46.7742L38.2894 49.2862C38.0217 49.5723 37.7333 49.8383 37.4266 50.0821L34.3473 52.5297L33.1673 53.2971L31.594 54.0644L30.6046 54.3862C30.2159 54.5126 29.8181 54.609 29.4146 54.6746L28.8356 54.7687C28.5772 54.8107 28.3158 54.8318 28.054 54.8318V54.8318" stroke="#2F4558" stroke-width="3" stroke-linecap="round"/>
<path d="M9.96091 39.9955L12.3209 42.9372L15.4675 46.7742L17.8186 49.2862C18.0864 49.5723 18.3748 49.8383 18.6815 50.0821L21.7608 52.5297L22.9407 53.2971L24.5141 54.0645L25.5034 54.3862C25.8921 54.5126 26.29 54.609 26.6935 54.6746L27.2725 54.7687C27.5309 54.8107 27.7922 54.8318 28.054 54.8318V54.8318" stroke="#2F4558" stroke-width="3" stroke-linecap="round"/>
<path d="M82.3333 39.9955L79.9733 37.0538L76.8267 33.2169L74.4756 30.7048C74.2078 30.4188 73.9194 30.1528 73.6127 29.909L70.5335 27.4614L69.3535 26.694L67.7802 25.9266L66.7908 25.6049C66.4021 25.4785 66.0042 25.382 65.6008 25.3164L65.0218 25.2223C64.7634 25.1803 64.502 25.1592 64.2402 25.1592V25.1592" stroke="#2F4558" stroke-width="3" stroke-linecap="round"/>
<path d="M46.1472 39.9955L48.5071 37.0538L51.6538 33.2169L54.0049 30.7048C54.2726 30.4188 54.561 30.1528 54.8678 29.909L57.947 27.4614L59.127 26.694L60.7003 25.9266L61.6897 25.6049C62.0784 25.4785 62.4762 25.382 62.8797 25.3164L63.4587 25.2223C63.7171 25.1803 63.9785 25.1592 64.2403 25.1592V25.1592" stroke="#2F4558" stroke-width="3" stroke-linecap="round"/>
<path d="M9.96085 39.9955L7.60088 37.0538" stroke="#2F4558" stroke-width="3" stroke-linecap="round"/>
<path d="M2 77.9911H94.6367" stroke="#2F4558" stroke-width="3" stroke-linecap="round"/>
<path d="M2 2H94.6367" stroke="#2F4558" stroke-width="3" stroke-linecap="round"/>
</svg>
