<svg width="452" height="180" viewBox="0 0 452 180" fill="none" xmlns="http://www.w3.org/2000/svg">
<rect width="452" height="180" fill="white"/>
<path d="M137.944 137C137.331 137 136.886 136.862 136.61 136.586C136.365 136.31 136.242 135.896 136.242 135.344V107.422C136.242 106.839 136.365 106.41 136.61 106.134C136.886 105.858 137.331 105.72 137.944 105.72H151.238C154.428 105.72 156.835 106.487 158.46 108.02C160.116 109.553 160.944 111.623 160.944 114.23C160.944 115.702 160.576 117.021 159.84 118.186C159.104 119.351 158.077 120.21 156.758 120.762C160.162 121.835 161.864 124.227 161.864 127.938C161.864 129.655 161.466 131.204 160.668 132.584C159.902 133.933 158.736 135.007 157.172 135.804C155.608 136.601 153.676 137 151.376 137H137.944ZM150.41 118.784C151.913 118.784 153.063 118.401 153.86 117.634C154.688 116.867 155.102 115.794 155.102 114.414C155.102 112.911 154.719 111.838 153.952 111.194C153.216 110.519 152.02 110.182 150.364 110.182H142.13V118.784H150.41ZM151.1 132.538C152.787 132.538 154.029 132.109 154.826 131.25C155.624 130.361 156.022 129.226 156.022 127.846C156.022 126.251 155.532 125.055 154.55 124.258C153.6 123.43 152.266 123.016 150.548 123.016H142.13V132.538H151.1ZM168.087 137C167.474 137 167.029 136.862 166.753 136.586C166.508 136.31 166.385 135.896 166.385 135.344V107.422C166.385 106.839 166.508 106.41 166.753 106.134C167.029 105.858 167.474 105.72 168.087 105.72H187.223C187.836 105.72 188.25 105.843 188.465 106.088C188.71 106.333 188.833 106.747 188.833 107.33V108.572C188.833 109.155 188.71 109.584 188.465 109.86C188.25 110.105 187.836 110.228 187.223 110.228H172.273V119.152H183.129C183.742 119.152 184.172 119.275 184.417 119.52C184.662 119.765 184.785 120.179 184.785 120.762V121.912C184.785 122.495 184.662 122.924 184.417 123.2C184.172 123.445 183.742 123.568 183.129 123.568H172.273V132.538H187.177C187.79 132.538 188.22 132.676 188.465 132.952C188.71 133.197 188.833 133.611 188.833 134.194V135.436C188.833 135.988 188.71 136.387 188.465 136.632C188.22 136.877 187.79 137 187.177 137H168.087ZM206.278 137.69C201.065 137.69 197.032 136.279 194.18 133.458C191.328 130.637 189.902 126.604 189.902 121.36C189.902 116.116 191.298 112.083 194.088 109.262C196.91 106.441 200.927 105.03 206.14 105.03C208.226 105.03 210.158 105.245 211.936 105.674C213.715 106.103 215.218 106.717 216.444 107.514C216.72 107.698 216.858 107.897 216.858 108.112C216.858 108.296 216.782 108.511 216.628 108.756L215.34 110.964C215.156 111.24 214.988 111.378 214.834 111.378C214.712 111.378 214.497 111.301 214.19 111.148C212.258 109.983 209.79 109.4 206.784 109.4C203.319 109.4 200.605 110.397 198.642 112.39C196.68 114.383 195.698 117.373 195.698 121.36C195.698 125.408 196.71 128.429 198.734 130.422C200.758 132.385 203.488 133.366 206.922 133.366C210.112 133.366 212.734 132.768 214.788 131.572C215.095 131.419 215.294 131.342 215.386 131.342C215.57 131.342 215.754 131.48 215.938 131.756L217.364 134.148C217.456 134.332 217.502 134.485 217.502 134.608C217.502 134.792 217.334 134.991 216.996 135.206C214.635 136.862 211.062 137.69 206.278 137.69ZM220.647 137C220.126 137 219.865 136.77 219.865 136.31C219.865 136.126 219.911 135.927 220.003 135.712L232.147 106.916C232.331 106.456 232.531 106.149 232.745 105.996C232.96 105.812 233.267 105.72 233.665 105.72H236.195C236.625 105.72 236.931 105.812 237.115 105.996C237.33 106.149 237.529 106.456 237.713 106.916L249.857 135.712C249.949 135.927 249.995 136.126 249.995 136.31C249.995 136.77 249.735 137 249.213 137H245.211C244.813 137 244.521 136.954 244.337 136.862C244.184 136.739 244.031 136.509 243.877 136.172L241.255 129.732H228.559L225.983 136.172C225.83 136.509 225.661 136.739 225.477 136.862C225.324 136.954 225.048 137 224.649 137H220.647ZM239.783 125.454L234.907 113.402L230.031 125.454H239.783Z" fill="#2F4558"/>
<path d="M256.224 137C255.61 137 255.166 136.862 254.89 136.586C254.644 136.31 254.522 135.896 254.522 135.344V107.422C254.522 106.839 254.644 106.41 254.89 106.134C255.166 105.858 255.61 105.72 256.224 105.72H258.662C259.275 105.72 259.72 105.858 259.996 106.134C260.272 106.41 260.41 106.839 260.41 107.422V132.538H274.486C275.099 132.538 275.528 132.676 275.774 132.952C276.019 133.197 276.142 133.611 276.142 134.194V135.436C276.142 135.988 276.019 136.387 275.774 136.632C275.528 136.877 275.099 137 274.486 137H256.224Z" fill="#F6B12D"/>
<path d="M281.425 137C280.811 137 280.367 136.862 280.091 136.586C279.845 136.31 279.723 135.896 279.723 135.344V107.422C279.723 106.839 279.845 106.41 280.091 106.134C280.367 105.858 280.811 105.72 281.425 105.72H283.863C284.476 105.72 284.921 105.858 285.197 106.134C285.473 106.41 285.611 106.839 285.611 107.422V135.344C285.611 135.896 285.473 136.31 285.197 136.586C284.951 136.862 284.507 137 283.863 137H281.425Z" fill="#335F8A"/>
<path d="M292.745 137C292.132 137 291.687 136.862 291.411 136.586C291.166 136.31 291.043 135.896 291.043 135.344V107.422C291.043 106.839 291.166 106.41 291.411 106.134C291.687 105.858 292.132 105.72 292.745 105.72H306.039C309.228 105.72 311.636 106.487 313.261 108.02C314.917 109.553 315.745 111.623 315.745 114.23C315.745 115.702 315.377 117.021 314.641 118.186C313.905 119.351 312.878 120.21 311.559 120.762C314.963 121.835 316.665 124.227 316.665 127.938C316.665 129.655 316.266 131.204 315.469 132.584C314.702 133.933 313.537 135.007 311.973 135.804C310.409 136.601 308.477 137 306.177 137H292.745ZM305.211 118.784C306.714 118.784 307.864 118.401 308.661 117.634C309.489 116.867 309.903 115.794 309.903 114.414C309.903 112.911 309.52 111.838 308.753 111.194C308.017 110.519 306.821 110.182 305.165 110.182H296.931V118.784H305.211ZM305.901 132.538C307.588 132.538 308.83 132.109 309.627 131.25C310.424 130.361 310.823 129.226 310.823 127.846C310.823 126.251 310.332 125.055 309.351 124.258C308.4 123.43 307.066 123.016 305.349 123.016H296.931V132.538H305.901Z" fill="#F26619"/>
<path d="M195.198 66.8444L192.665 73.4452L189.408 79.7591L188.323 81.4811L187.395 82.5847C187.049 82.9959 186.663 83.3712 186.242 83.705L185.428 84.351" stroke="#2F4558" stroke-width="3" stroke-linecap="round"/>
<path d="M266.847 51.6337L264.676 58.2345L261.781 66.8444L259.248 73.4452L255.991 79.7591L254.905 81.4811L253.941 82.6284C253.62 83.0105 253.261 83.3593 252.87 83.6694L252.542 83.9293C252.19 84.2089 251.798 84.4353 251.38 84.6011L250.899 84.7916C250.677 84.8797 250.44 84.925 250.201 84.925V84.925" stroke="#2F4558" stroke-width="3" stroke-linecap="round"/>
<path d="M232.832 49.1006L235.727 58.2345L238.622 66.8444L241.155 73.4452L244.411 79.7591L245.497 81.4811L246.462 82.6284C246.783 83.0105 247.142 83.3593 247.533 83.6694L247.86 83.9293C248.213 84.2089 248.604 84.4353 249.023 84.6011L249.503 84.7916C249.725 84.8797 249.962 84.925 250.201 84.925V84.925" stroke="#2F4558" stroke-width="3" stroke-linecap="round"/>
<path d="M229.213 38.6066L225.957 29.8221L222.7 23.5082L221.614 21.7863L220.65 20.6389C220.329 20.2568 219.97 19.908 219.579 19.5979L219.251 19.338C218.899 19.0584 218.507 18.8321 218.089 18.6662L217.608 18.4757C217.386 18.3876 217.149 18.3423 216.91 18.3423V18.3423" stroke="#2F4558" stroke-width="3" stroke-linecap="round"/>
<path d="M198.455 57.7854L200.626 50.91L202.436 45.0328L205.33 36.423L207.864 29.8221L209.311 26.6652L211.12 23.5083L212.206 21.7863L213.17 20.6389C213.491 20.2568 213.85 19.9081 214.241 19.5979L214.569 19.338C214.922 19.0584 215.313 18.8321 215.732 18.6662L216.212 18.4758C216.434 18.3876 216.671 18.3424 216.91 18.3424V18.3424" stroke="#2F4558" stroke-width="3" stroke-linecap="round"/>
<path d="M224.147 51.9955L221.787 54.9372L218.641 58.7742L216.289 61.2862C216.022 61.5723 215.733 61.8383 215.427 62.0821L212.347 64.5297L211.167 65.2971L209.594 66.0644L208.605 66.3862C208.216 66.5126 207.818 66.609 207.415 66.6746L206.836 66.7687C206.577 66.8107 206.316 66.8318 206.054 66.8318V66.8318" stroke="#2F4558" stroke-width="3" stroke-linecap="round"/>
<path d="M187.961 51.9955L190.321 54.9372L193.468 58.7742L195.819 61.2862C196.086 61.5723 196.375 61.8383 196.682 62.0821L199.761 64.5297L200.941 65.2971L202.514 66.0645L203.503 66.3862C203.892 66.5126 204.29 66.609 204.693 66.6746L205.272 66.7687C205.531 66.8107 205.792 66.8318 206.054 66.8318V66.8318" stroke="#2F4558" stroke-width="3" stroke-linecap="round"/>
<path d="M260.333 51.9955L257.973 49.0538L254.827 45.2169L252.476 42.7048C252.208 42.4188 251.919 42.1528 251.613 41.909L248.533 39.4614L247.353 38.694L245.78 37.9266L244.791 37.6049C244.402 37.4785 244.004 37.382 243.601 37.3164L243.022 37.2223C242.763 37.1803 242.502 37.1592 242.24 37.1592V37.1592" stroke="#2F4558" stroke-width="3" stroke-linecap="round"/>
<path d="M224.147 51.9955L226.507 49.0538L229.654 45.2169L232.005 42.7048C232.273 42.4188 232.561 42.1528 232.868 41.909L235.947 39.4614L237.127 38.694L238.7 37.9266L239.69 37.6049C240.078 37.4785 240.476 37.382 240.88 37.3164L241.459 37.2223C241.717 37.1803 241.978 37.1592 242.24 37.1592V37.1592" stroke="#2F4558" stroke-width="3" stroke-linecap="round"/>
<path d="M187.961 51.9955L185.601 49.0538" stroke="#2F4558" stroke-width="3" stroke-linecap="round"/>
<path d="M180 89.9911H272.637" stroke="#2F4558" stroke-width="3" stroke-linecap="round"/>
<path d="M180 14H272.637" stroke="#2F4558" stroke-width="3" stroke-linecap="round"/>
<path d="M35.8888 165C35.6221 165 35.4288 164.94 35.3088 164.82C35.2021 164.7 35.1488 164.52 35.1488 164.28V152.14C35.1488 151.887 35.2021 151.7 35.3088 151.58C35.4288 151.46 35.6221 151.4 35.8888 151.4H41.6688C43.0554 151.4 44.1021 151.733 44.8088 152.4C45.5288 153.067 45.8888 153.967 45.8888 155.1C45.8888 155.74 45.7288 156.313 45.4088 156.82C45.0888 157.327 44.6421 157.7 44.0687 157.94C45.5488 158.407 46.2888 159.447 46.2888 161.06C46.2888 161.807 46.1154 162.48 45.7688 163.08C45.4354 163.667 44.9287 164.133 44.2487 164.48C43.5688 164.827 42.7288 165 41.7288 165H35.8888ZM41.3088 157.08C41.9621 157.08 42.4621 156.913 42.8088 156.58C43.1688 156.247 43.3488 155.78 43.3488 155.18C43.3488 154.527 43.1821 154.06 42.8488 153.78C42.5288 153.487 42.0088 153.34 41.2888 153.34H37.7088V157.08H41.3088ZM41.6088 163.06C42.3421 163.06 42.8821 162.873 43.2288 162.5C43.5754 162.113 43.7488 161.62 43.7488 161.02C43.7488 160.327 43.5354 159.807 43.1088 159.46C42.6954 159.1 42.1154 158.92 41.3688 158.92H37.7088V163.06H41.6088ZM51.7942 165.3C50.7009 165.3 49.8209 165 49.1542 164.4C48.4876 163.787 48.1542 162.88 48.1542 161.68V156.14C48.1542 155.887 48.2076 155.7 48.3142 155.58C48.4342 155.46 48.6276 155.4 48.8942 155.4H49.9542C50.2209 155.4 50.4142 155.46 50.5342 155.58C50.6542 155.7 50.7142 155.887 50.7142 156.14V161.62C50.7142 162.26 50.8809 162.733 51.2142 163.04C51.5476 163.333 52.0409 163.48 52.6942 163.48C53.3876 163.48 53.9676 163.287 54.4342 162.9C54.9009 162.513 55.1342 162.013 55.1342 161.4V156.14C55.1342 155.887 55.1942 155.7 55.3142 155.58C55.4342 155.46 55.6276 155.4 55.8942 155.4H56.9342C57.2009 155.4 57.3942 155.46 57.5142 155.58C57.6342 155.7 57.6942 155.887 57.6942 156.14V164.46C57.6942 164.673 57.6609 164.82 57.5942 164.9C57.5276 164.967 57.3876 165 57.1742 165H56.0542C55.9076 165 55.8009 164.973 55.7342 164.92C55.6676 164.853 55.6276 164.753 55.6142 164.62L55.5342 163.78C54.6276 164.793 53.3809 165.3 51.7942 165.3ZM61.0511 153.74C60.7311 153.74 60.4844 153.647 60.3111 153.46C60.1378 153.273 60.0511 153.047 60.0511 152.78V152.36C60.0511 152.093 60.1378 151.867 60.3111 151.68C60.4844 151.493 60.7311 151.4 61.0511 151.4H61.9111C62.2311 151.4 62.4778 151.493 62.6511 151.68C62.8378 151.867 62.9311 152.093 62.9311 152.36V152.78C62.9311 153.047 62.8378 153.273 62.6511 153.46C62.4778 153.647 62.2311 153.74 61.9111 153.74H61.0511ZM60.9711 165C60.7044 165 60.5111 164.94 60.3911 164.82C60.2711 164.7 60.2111 164.52 60.2111 164.28V156.14C60.2111 155.887 60.2711 155.7 60.3911 155.58C60.5111 155.46 60.7044 155.4 60.9711 155.4H62.0111C62.2778 155.4 62.4711 155.46 62.5911 155.58C62.7111 155.7 62.7711 155.887 62.7711 156.14V164.28C62.7711 164.52 62.7111 164.7 62.5911 164.82C62.4844 164.94 62.2911 165 62.0111 165H60.9711ZM66.0255 165C65.7588 165 65.5655 164.94 65.4455 164.82C65.3388 164.7 65.2855 164.52 65.2855 164.28V152.14C65.2855 151.887 65.3388 151.7 65.4455 151.58C65.5655 151.46 65.7588 151.4 66.0255 151.4H67.0855C67.3521 151.4 67.5455 151.46 67.6655 151.58C67.7855 151.7 67.8455 151.887 67.8455 152.14V164.28C67.8455 164.52 67.7855 164.7 67.6655 164.82C67.5588 164.94 67.3655 165 67.0855 165H66.0255ZM75.4873 165.3C71.7007 165.3 69.8073 163.593 69.8073 160.18C69.8073 159.18 70.0007 158.3 70.3873 157.54C70.774 156.767 71.3273 156.167 72.0473 155.74C72.7807 155.313 73.6407 155.1 74.6273 155.1C76.0273 155.1 77.0407 155.413 77.6673 156.04V152.14C77.6673 151.887 77.7273 151.7 77.8473 151.58C77.9673 151.46 78.1607 151.4 78.4273 151.4H79.4273C79.694 151.4 79.8873 151.46 80.0073 151.58C80.1273 151.7 80.1873 151.887 80.1873 152.14V164C79.6807 164.373 79.0007 164.687 78.1473 164.94C77.294 165.18 76.4073 165.3 75.4873 165.3ZM75.5473 163.48C76.4407 163.48 77.1473 163.32 77.6673 163V158.92C77.6673 158.267 77.4407 157.773 76.9873 157.44C76.534 157.107 75.9473 156.94 75.2273 156.94C74.254 156.94 73.5273 157.233 73.0473 157.82C72.5673 158.407 72.3273 159.213 72.3273 160.24C72.3273 161.387 72.594 162.213 73.1273 162.72C73.6607 163.227 74.4673 163.48 75.5473 163.48ZM83.5511 153.74C83.2311 153.74 82.9844 153.647 82.8111 153.46C82.6378 153.273 82.5511 153.047 82.5511 152.78V152.36C82.5511 152.093 82.6378 151.867 82.8111 151.68C82.9844 151.493 83.2311 151.4 83.5511 151.4H84.4111C84.7311 151.4 84.9778 151.493 85.1511 151.68C85.3378 151.867 85.4311 152.093 85.4311 152.36V152.78C85.4311 153.047 85.3378 153.273 85.1511 153.46C84.9778 153.647 84.7311 153.74 84.4111 153.74H83.5511ZM83.4711 165C83.2044 165 83.0111 164.94 82.8911 164.82C82.7711 164.7 82.7111 164.52 82.7111 164.28V156.14C82.7111 155.887 82.7711 155.7 82.8911 155.58C83.0111 155.46 83.2044 155.4 83.4711 155.4H84.5111C84.7778 155.4 84.9711 155.46 85.0911 155.58C85.2111 155.7 85.2711 155.887 85.2711 156.14V164.28C85.2711 164.52 85.2111 164.7 85.0911 164.82C84.9844 164.94 84.7911 165 84.5111 165H83.4711ZM88.5455 165C88.2788 165 88.0855 164.94 87.9655 164.82C87.8455 164.7 87.7855 164.52 87.7855 164.28V155.94C87.7855 155.74 87.8188 155.6 87.8855 155.52C87.9521 155.44 88.0921 155.4 88.3055 155.4H89.4455C89.7388 155.4 89.8921 155.533 89.9055 155.8L89.9455 156.6C90.8521 155.6 92.1521 155.1 93.8455 155.1C94.9255 155.1 95.7921 155.393 96.4455 155.98C97.1121 156.553 97.4455 157.42 97.4455 158.58V164.28C97.4455 164.52 97.3855 164.7 97.2655 164.82C97.1588 164.94 96.9721 165 96.7055 165H95.6455C95.3788 165 95.1855 164.94 95.0655 164.82C94.9455 164.7 94.8855 164.52 94.8855 164.28V158.74C94.8855 158.087 94.7321 157.627 94.4255 157.36C94.1321 157.08 93.6521 156.94 92.9855 156.94C92.2788 156.94 91.6588 157.133 91.1255 157.52C90.6055 157.893 90.3455 158.38 90.3455 158.98V164.28C90.3455 164.52 90.2855 164.7 90.1655 164.82C90.0588 164.94 89.8655 165 89.5855 165H88.5455ZM104.8 168.4C104.026 168.4 103.273 168.327 102.54 168.18C101.806 168.033 101.246 167.84 100.86 167.6C100.646 167.48 100.593 167.333 100.7 167.16L101.28 166.18C101.36 166.047 101.44 165.98 101.52 165.98C101.573 165.98 101.64 166 101.72 166.04C102.453 166.413 103.406 166.6 104.58 166.6C105.473 166.6 106.126 166.387 106.54 165.96C106.953 165.533 107.16 164.813 107.16 163.8C106.786 164.2 106.346 164.5 105.84 164.7C105.346 164.887 104.746 164.98 104.04 164.98C102.546 164.98 101.38 164.573 100.54 163.76C99.7129 162.947 99.2995 161.8 99.2995 160.32C99.2995 158.64 99.7929 157.353 100.78 156.46C101.78 155.553 103.22 155.1 105.1 155.1C105.966 155.1 106.813 155.22 107.64 155.46C108.48 155.7 109.16 156 109.68 156.36V163.22C109.68 164.833 109.286 166.1 108.5 167.02C107.713 167.94 106.48 168.4 104.8 168.4ZM104.64 163.1C105.386 163.1 105.993 162.907 106.46 162.52C106.926 162.12 107.16 161.573 107.16 160.88V157.32C106.906 157.2 106.586 157.107 106.2 157.04C105.813 156.973 105.406 156.94 104.98 156.94C102.873 156.94 101.82 158.013 101.82 160.16C101.82 161.147 102.053 161.887 102.52 162.38C102.986 162.86 103.693 163.1 104.64 163.1ZM120.576 165C120.31 165 120.116 164.94 119.996 164.82C119.89 164.7 119.836 164.52 119.836 164.28V152.14C119.836 151.887 119.89 151.7 119.996 151.58C120.116 151.46 120.31 151.4 120.576 151.4H128.896C129.163 151.4 129.343 151.453 129.436 151.56C129.543 151.667 129.596 151.847 129.596 152.1V152.64C129.596 152.893 129.543 153.08 129.436 153.2C129.343 153.307 129.163 153.36 128.896 153.36H122.396V157.24H127.116C127.383 157.24 127.57 157.293 127.676 157.4C127.783 157.507 127.836 157.687 127.836 157.94V158.44C127.836 158.693 127.783 158.88 127.676 159C127.57 159.107 127.383 159.16 127.116 159.16H122.396V163.06H128.876C129.143 163.06 129.33 163.12 129.436 163.24C129.543 163.347 129.596 163.527 129.596 163.78V164.32C129.596 164.56 129.543 164.733 129.436 164.84C129.33 164.947 129.143 165 128.876 165H120.576ZM132.12 165C131.853 165 131.66 164.94 131.54 164.82C131.42 164.7 131.36 164.52 131.36 164.28V155.94C131.36 155.74 131.393 155.6 131.46 155.52C131.526 155.44 131.666 155.4 131.88 155.4H133.02C133.313 155.4 133.466 155.533 133.48 155.8L133.52 156.6C134.426 155.6 135.726 155.1 137.42 155.1C138.5 155.1 139.366 155.393 140.02 155.98C140.686 156.553 141.02 157.42 141.02 158.58V164.28C141.02 164.52 140.96 164.7 140.84 164.82C140.733 164.94 140.546 165 140.28 165H139.22C138.953 165 138.76 164.94 138.64 164.82C138.52 164.7 138.46 164.52 138.46 164.28V158.74C138.46 158.087 138.306 157.627 138 157.36C137.706 157.08 137.226 156.94 136.56 156.94C135.853 156.94 135.233 157.133 134.7 157.52C134.18 157.893 133.92 158.38 133.92 158.98V164.28C133.92 164.52 133.86 164.7 133.74 164.82C133.633 164.94 133.44 165 133.16 165H132.12ZM147.146 165C146.959 165 146.819 164.967 146.726 164.9C146.633 164.82 146.539 164.687 146.446 164.5L142.426 155.96C142.386 155.88 142.366 155.8 142.366 155.72C142.366 155.627 142.393 155.553 142.446 155.5C142.513 155.433 142.599 155.4 142.706 155.4H144.366C144.539 155.4 144.666 155.433 144.746 155.5C144.826 155.553 144.899 155.66 144.966 155.82L147.646 162.06L150.326 155.82C150.393 155.673 150.466 155.567 150.546 155.5C150.639 155.433 150.773 155.4 150.946 155.4H152.606C152.713 155.4 152.793 155.433 152.846 155.5C152.913 155.553 152.946 155.627 152.946 155.72C152.946 155.8 152.926 155.88 152.886 155.96L148.866 164.5C148.773 164.687 148.679 164.82 148.586 164.9C148.493 164.967 148.353 165 148.166 165H147.146ZM158.59 165.3C157.55 165.3 156.61 165.127 155.77 164.78C154.93 164.42 154.257 163.873 153.75 163.14C153.257 162.393 153.01 161.467 153.01 160.36C153.01 158.64 153.47 157.333 154.39 156.44C155.31 155.547 156.617 155.1 158.31 155.1C159.99 155.1 161.257 155.533 162.11 156.4C162.977 157.267 163.41 158.52 163.41 160.16C163.41 160.627 163.197 160.86 162.77 160.86H155.43C155.43 161.74 155.737 162.42 156.35 162.9C156.964 163.367 157.817 163.6 158.91 163.6C159.964 163.6 160.91 163.36 161.75 162.88C161.844 162.827 161.917 162.8 161.97 162.8C162.064 162.8 162.137 162.86 162.19 162.98L162.67 163.84C162.71 163.92 162.73 163.993 162.73 164.06C162.73 164.153 162.67 164.24 162.55 164.32C162.004 164.653 161.41 164.9 160.77 165.06C160.144 165.22 159.417 165.3 158.59 165.3ZM161.09 159.38C161.09 158.553 160.857 157.907 160.39 157.44C159.937 156.973 159.25 156.74 158.33 156.74C157.397 156.74 156.677 156.98 156.17 157.46C155.677 157.94 155.43 158.58 155.43 159.38H161.09ZM166.104 165C165.837 165 165.644 164.94 165.524 164.82C165.417 164.7 165.364 164.52 165.364 164.28V152.14C165.364 151.887 165.417 151.7 165.524 151.58C165.644 151.46 165.837 151.4 166.104 151.4H167.164C167.43 151.4 167.624 151.46 167.744 151.58C167.864 151.7 167.924 151.887 167.924 152.14V164.28C167.924 164.52 167.864 164.7 167.744 164.82C167.637 164.94 167.444 165 167.164 165H166.104ZM175.305 165.3C173.572 165.3 172.232 164.847 171.285 163.94C170.352 163.02 169.885 161.773 169.885 160.2C169.885 158.627 170.352 157.387 171.285 156.48C172.232 155.56 173.572 155.1 175.305 155.1C177.039 155.1 178.379 155.56 179.325 156.48C180.272 157.387 180.745 158.627 180.745 160.2C180.745 161.773 180.272 163.02 179.325 163.94C178.379 164.847 177.039 165.3 175.305 165.3ZM175.305 163.42C176.252 163.42 176.972 163.147 177.465 162.6C177.959 162.053 178.205 161.253 178.205 160.2C178.205 159.16 177.959 158.373 177.465 157.84C176.972 157.293 176.252 157.02 175.305 157.02C174.372 157.02 173.652 157.293 173.145 157.84C172.652 158.373 172.405 159.16 172.405 160.2C172.405 161.24 172.652 162.04 173.145 162.6C173.652 163.147 174.372 163.42 175.305 163.42ZM183.447 169.04C183.181 169.04 182.987 168.98 182.867 168.86C182.761 168.74 182.707 168.56 182.707 168.32V156.36C183.214 156 183.887 155.7 184.727 155.46C185.581 155.22 186.434 155.1 187.287 155.1C191.154 155.1 193.087 156.807 193.087 160.22C193.087 161.793 192.661 163.033 191.807 163.94C190.967 164.847 189.807 165.3 188.327 165.3C186.981 165.3 185.947 164.913 185.227 164.14V168.32C185.227 168.573 185.167 168.753 185.047 168.86C184.941 168.98 184.747 169.04 184.467 169.04H183.447ZM187.727 163.48C188.674 163.48 189.381 163.193 189.847 162.62C190.314 162.047 190.547 161.22 190.547 160.14C190.547 158.98 190.274 158.16 189.727 157.68C189.181 157.187 188.341 156.94 187.207 156.94C186.367 156.94 185.707 157.067 185.227 157.32V161.26C185.227 161.94 185.467 162.48 185.947 162.88C186.427 163.28 187.021 163.48 187.727 163.48ZM209.564 165.3C207.297 165.3 205.544 164.687 204.304 163.46C203.064 162.233 202.444 160.48 202.444 158.2C202.444 155.92 203.051 154.167 204.264 152.94C205.491 151.713 207.237 151.1 209.504 151.1C210.411 151.1 211.251 151.193 212.024 151.38C212.797 151.567 213.451 151.833 213.984 152.18C214.104 152.26 214.164 152.347 214.164 152.44C214.164 152.52 214.131 152.613 214.064 152.72L213.504 153.68C213.424 153.8 213.351 153.86 213.284 153.86C213.231 153.86 213.137 153.827 213.004 153.76C212.164 153.253 211.091 153 209.784 153C208.277 153 207.097 153.433 206.244 154.3C205.391 155.167 204.964 156.467 204.964 158.2C204.964 159.96 205.404 161.273 206.284 162.14C207.164 162.993 208.351 163.42 209.844 163.42C211.231 163.42 212.371 163.16 213.264 162.64C213.397 162.573 213.484 162.54 213.524 162.54C213.604 162.54 213.684 162.6 213.764 162.72L214.384 163.76C214.424 163.84 214.444 163.907 214.444 163.96C214.444 164.04 214.371 164.127 214.224 164.22C213.197 164.94 211.644 165.3 209.564 165.3ZM220.501 165.3C218.767 165.3 217.427 164.847 216.481 163.94C215.547 163.02 215.081 161.773 215.081 160.2C215.081 158.627 215.547 157.387 216.481 156.48C217.427 155.56 218.767 155.1 220.501 155.1C222.234 155.1 223.574 155.56 224.521 156.48C225.467 157.387 225.941 158.627 225.941 160.2C225.941 161.773 225.467 163.02 224.521 163.94C223.574 164.847 222.234 165.3 220.501 165.3ZM220.501 163.42C221.447 163.42 222.167 163.147 222.661 162.6C223.154 162.053 223.401 161.253 223.401 160.2C223.401 159.16 223.154 158.373 222.661 157.84C222.167 157.293 221.447 157.02 220.501 157.02C219.567 157.02 218.847 157.293 218.341 157.84C217.847 158.373 217.601 159.16 217.601 160.2C217.601 161.24 217.847 162.04 218.341 162.6C218.847 163.147 219.567 163.42 220.501 163.42ZM228.663 165C228.396 165 228.203 164.94 228.083 164.82C227.963 164.7 227.903 164.52 227.903 164.28V155.94C227.903 155.74 227.936 155.6 228.003 155.52C228.069 155.44 228.209 155.4 228.423 155.4H229.483C229.629 155.4 229.736 155.433 229.803 155.5C229.869 155.553 229.909 155.653 229.923 155.8L229.983 156.64C230.369 156.147 230.809 155.767 231.303 155.5C231.809 155.233 232.409 155.1 233.103 155.1C233.689 155.1 234.196 155.233 234.623 155.5C235.063 155.753 235.383 156.133 235.583 156.64C236.316 155.613 237.376 155.1 238.763 155.1C239.709 155.1 240.456 155.387 241.003 155.96C241.563 156.533 241.843 157.387 241.843 158.52V164.28C241.843 164.52 241.783 164.7 241.663 164.82C241.556 164.94 241.363 165 241.083 165H240.203C239.936 165 239.743 164.94 239.623 164.82C239.503 164.7 239.443 164.52 239.443 164.28V158.66C239.443 158.047 239.309 157.607 239.043 157.34C238.789 157.073 238.403 156.94 237.883 156.94C237.336 156.94 236.889 157.12 236.543 157.48C236.209 157.84 236.043 158.327 236.043 158.94V164.28C236.043 164.52 235.983 164.7 235.863 164.82C235.743 164.94 235.549 165 235.283 165H234.463C234.196 165 234.003 164.94 233.883 164.82C233.763 164.7 233.703 164.52 233.703 164.28V158.56C233.703 158 233.583 157.593 233.343 157.34C233.116 157.073 232.749 156.94 232.243 156.94C231.669 156.94 231.203 157.133 230.843 157.52C230.483 157.893 230.303 158.387 230.303 159V164.28C230.303 164.52 230.243 164.7 230.123 164.82C230.016 164.94 229.823 165 229.543 165H228.663ZM244.834 169.04C244.567 169.04 244.374 168.98 244.254 168.86C244.147 168.74 244.094 168.56 244.094 168.32V156.36C244.601 156 245.274 155.7 246.114 155.46C246.967 155.22 247.821 155.1 248.674 155.1C252.541 155.1 254.474 156.807 254.474 160.22C254.474 161.793 254.047 163.033 253.194 163.94C252.354 164.847 251.194 165.3 249.714 165.3C248.367 165.3 247.334 164.913 246.614 164.14V168.32C246.614 168.573 246.554 168.753 246.434 168.86C246.327 168.98 246.134 169.04 245.854 169.04H244.834ZM249.114 163.48C250.061 163.48 250.767 163.193 251.234 162.62C251.701 162.047 251.934 161.22 251.934 160.14C251.934 158.98 251.661 158.16 251.114 157.68C250.567 157.187 249.727 156.94 248.594 156.94C247.754 156.94 247.094 157.067 246.614 157.32V161.26C246.614 161.94 246.854 162.48 247.334 162.88C247.814 163.28 248.407 163.48 249.114 163.48ZM260.95 165.3C259.217 165.3 257.877 164.847 256.93 163.94C255.997 163.02 255.53 161.773 255.53 160.2C255.53 158.627 255.997 157.387 256.93 156.48C257.877 155.56 259.217 155.1 260.95 155.1C262.683 155.1 264.023 155.56 264.97 156.48C265.917 157.387 266.39 158.627 266.39 160.2C266.39 161.773 265.917 163.02 264.97 163.94C264.023 164.847 262.683 165.3 260.95 165.3ZM260.95 163.42C261.897 163.42 262.617 163.147 263.11 162.6C263.603 162.053 263.85 161.253 263.85 160.2C263.85 159.16 263.603 158.373 263.11 157.84C262.617 157.293 261.897 157.02 260.95 157.02C260.017 157.02 259.297 157.293 258.79 157.84C258.297 158.373 258.05 159.16 258.05 160.2C258.05 161.24 258.297 162.04 258.79 162.6C259.297 163.147 260.017 163.42 260.95 163.42ZM269.112 165C268.845 165 268.652 164.94 268.532 164.82C268.412 164.7 268.352 164.52 268.352 164.28V155.94C268.352 155.74 268.385 155.6 268.452 155.52C268.519 155.44 268.659 155.4 268.872 155.4H270.012C270.305 155.4 270.459 155.533 270.472 155.8L270.512 156.6C271.419 155.6 272.719 155.1 274.412 155.1C275.492 155.1 276.359 155.393 277.012 155.98C277.679 156.553 278.012 157.42 278.012 158.58V164.28C278.012 164.52 277.952 164.7 277.832 164.82C277.725 164.94 277.539 165 277.272 165H276.212C275.945 165 275.752 164.94 275.632 164.82C275.512 164.7 275.452 164.52 275.452 164.28V158.74C275.452 158.087 275.299 157.627 274.992 157.36C274.699 157.08 274.219 156.94 273.552 156.94C272.845 156.94 272.225 157.133 271.692 157.52C271.172 157.893 270.912 158.38 270.912 158.98V164.28C270.912 164.52 270.852 164.7 270.732 164.82C270.625 164.94 270.432 165 270.152 165H269.112ZM285.446 165.3C284.406 165.3 283.466 165.127 282.626 164.78C281.786 164.42 281.113 163.873 280.606 163.14C280.113 162.393 279.866 161.467 279.866 160.36C279.866 158.64 280.326 157.333 281.246 156.44C282.166 155.547 283.473 155.1 285.166 155.1C286.846 155.1 288.113 155.533 288.966 156.4C289.833 157.267 290.266 158.52 290.266 160.16C290.266 160.627 290.053 160.86 289.626 160.86H282.286C282.286 161.74 282.593 162.42 283.206 162.9C283.819 163.367 284.673 163.6 285.766 163.6C286.819 163.6 287.766 163.36 288.606 162.88C288.699 162.827 288.773 162.8 288.826 162.8C288.919 162.8 288.993 162.86 289.046 162.98L289.526 163.84C289.566 163.92 289.586 163.993 289.586 164.06C289.586 164.153 289.526 164.24 289.406 164.32C288.859 164.653 288.266 164.9 287.626 165.06C286.999 165.22 286.273 165.3 285.446 165.3ZM287.946 159.38C287.946 158.553 287.713 157.907 287.246 157.44C286.793 156.973 286.106 156.74 285.186 156.74C284.253 156.74 283.533 156.98 283.026 157.46C282.533 157.94 282.286 158.58 282.286 159.38H287.946ZM292.979 165C292.712 165 292.519 164.94 292.399 164.82C292.279 164.7 292.219 164.52 292.219 164.28V155.94C292.219 155.74 292.252 155.6 292.319 155.52C292.386 155.44 292.526 155.4 292.739 155.4H293.879C294.172 155.4 294.326 155.533 294.339 155.8L294.379 156.6C295.286 155.6 296.586 155.1 298.279 155.1C299.359 155.1 300.226 155.393 300.879 155.98C301.546 156.553 301.879 157.42 301.879 158.58V164.28C301.879 164.52 301.819 164.7 301.699 164.82C301.592 164.94 301.406 165 301.139 165H300.079C299.812 165 299.619 164.94 299.499 164.82C299.379 164.7 299.319 164.52 299.319 164.28V158.74C299.319 158.087 299.166 157.627 298.859 157.36C298.566 157.08 298.086 156.94 297.419 156.94C296.712 156.94 296.092 157.133 295.559 157.52C295.039 157.893 294.779 158.38 294.779 158.98V164.28C294.779 164.52 294.719 164.7 294.599 164.82C294.492 164.94 294.299 165 294.019 165H292.979ZM308.553 165.3C307.42 165.3 306.566 164.987 305.993 164.36C305.42 163.733 305.133 162.867 305.133 161.76V157.28H303.993C303.726 157.28 303.546 157.233 303.453 157.14C303.373 157.047 303.333 156.873 303.333 156.62V156.08C303.333 155.827 303.373 155.653 303.453 155.56C303.546 155.453 303.726 155.4 303.993 155.4H305.133V154.3C305.133 154.02 305.18 153.76 305.273 153.52C305.38 153.267 305.54 152.953 305.753 152.58C305.833 152.42 305.906 152.32 305.973 152.28C306.053 152.227 306.186 152.2 306.373 152.2H307.033C307.273 152.2 307.44 152.26 307.533 152.38C307.64 152.487 307.693 152.653 307.693 152.88V155.4H310.053C310.32 155.4 310.493 155.453 310.573 155.56C310.666 155.653 310.713 155.827 310.713 156.08V156.62C310.713 156.873 310.666 157.047 310.573 157.14C310.493 157.233 310.32 157.28 310.053 157.28H307.693V161.68C307.693 162.293 307.8 162.74 308.013 163.02C308.226 163.287 308.593 163.42 309.113 163.42C309.42 163.42 309.68 163.387 309.893 163.32C310.106 163.24 310.34 163.113 310.593 162.94C310.66 162.887 310.733 162.86 310.813 162.86C310.893 162.86 310.973 162.92 311.053 163.04L311.633 164C311.686 164.067 311.713 164.14 311.713 164.22C311.713 164.313 311.646 164.407 311.513 164.5C310.686 165.033 309.7 165.3 308.553 165.3ZM316.926 165.3C316.126 165.3 315.346 165.213 314.586 165.04C313.826 164.88 313.173 164.633 312.626 164.3C312.453 164.207 312.366 164.107 312.366 164C312.366 163.92 312.393 163.847 312.446 163.78L313.006 162.8C313.073 162.68 313.139 162.62 313.206 162.62C313.273 162.62 313.359 162.653 313.466 162.72C313.866 162.96 314.359 163.16 314.946 163.32C315.533 163.48 316.073 163.56 316.566 163.56C317.326 163.56 317.866 163.487 318.186 163.34C318.519 163.18 318.686 162.9 318.686 162.5C318.686 162.273 318.619 162.093 318.486 161.96C318.366 161.813 318.179 161.687 317.926 161.58C317.673 161.473 317.253 161.327 316.666 161.14C316.666 161.14 316.446 161.067 316.006 160.92C315.246 160.667 314.639 160.42 314.186 160.18C313.733 159.94 313.379 159.64 313.126 159.28C312.886 158.907 312.766 158.44 312.766 157.88C312.766 156.973 313.146 156.287 313.906 155.82C314.679 155.34 315.679 155.1 316.906 155.1C318.399 155.1 319.686 155.42 320.766 156.06C320.939 156.153 321.026 156.253 321.026 156.36C321.026 156.427 320.993 156.513 320.926 156.62L320.386 157.48C320.306 157.6 320.239 157.66 320.186 157.66C320.133 157.66 320.053 157.627 319.946 157.56C319.599 157.347 319.179 157.18 318.686 157.06C318.206 156.927 317.719 156.86 317.226 156.86C316.559 156.86 316.066 156.933 315.746 157.08C315.439 157.213 315.286 157.48 315.286 157.88C315.286 158.227 315.466 158.5 315.826 158.7C316.199 158.9 316.839 159.14 317.746 159.42L318.406 159.62C319.446 159.953 320.173 160.347 320.586 160.8C321.013 161.253 321.226 161.82 321.226 162.5C321.226 163.327 320.859 164 320.126 164.52C319.406 165.04 318.339 165.3 316.926 165.3ZM330.929 165C330.702 165 330.589 164.9 330.589 164.7C330.589 164.62 330.609 164.533 330.649 164.44L335.929 151.92C336.009 151.72 336.095 151.587 336.189 151.52C336.282 151.44 336.415 151.4 336.589 151.4H337.689C337.875 151.4 338.009 151.44 338.089 151.52C338.182 151.587 338.269 151.72 338.349 151.92L343.629 164.44C343.669 164.533 343.689 164.62 343.689 164.7C343.689 164.9 343.575 165 343.349 165H341.609C341.435 165 341.309 164.98 341.229 164.94C341.162 164.887 341.095 164.787 341.029 164.64L339.889 161.84H334.369L333.249 164.64C333.182 164.787 333.109 164.887 333.029 164.94C332.962 164.98 332.842 165 332.669 165H330.929ZM339.249 159.98L337.129 154.74L335.009 159.98H339.249ZM346.417 165C346.15 165 345.957 164.94 345.837 164.82C345.717 164.7 345.657 164.52 345.657 164.28V155.94C345.657 155.74 345.69 155.6 345.757 155.52C345.823 155.44 345.963 155.4 346.177 155.4H347.317C347.61 155.4 347.763 155.533 347.777 155.8L347.817 156.6C348.723 155.6 350.023 155.1 351.717 155.1C352.797 155.1 353.663 155.393 354.317 155.98C354.983 156.553 355.317 157.42 355.317 158.58V164.28C355.317 164.52 355.257 164.7 355.137 164.82C355.03 164.94 354.843 165 354.577 165H353.517C353.25 165 353.057 164.94 352.937 164.82C352.817 164.7 352.757 164.52 352.757 164.28V158.74C352.757 158.087 352.603 157.627 352.297 157.36C352.003 157.08 351.523 156.94 350.857 156.94C350.15 156.94 349.53 157.133 348.997 157.52C348.477 157.893 348.217 158.38 348.217 158.98V164.28C348.217 164.52 348.157 164.7 348.037 164.82C347.93 164.94 347.737 165 347.457 165H346.417ZM361.158 165.3C359.851 165.3 358.811 164.907 358.038 164.12C357.264 163.32 356.878 162.2 356.878 160.76C356.878 159.64 357.124 158.653 357.618 157.8C358.111 156.933 358.811 156.267 359.718 155.8C360.638 155.333 361.704 155.1 362.918 155.1C364.611 155.1 366.044 155.5 367.218 156.3V164.46C367.218 164.66 367.171 164.8 367.078 164.88C366.998 164.96 366.851 165 366.638 165H365.538C365.391 165 365.278 164.973 365.198 164.92C365.131 164.853 365.084 164.753 365.058 164.62L364.898 163.84C364.484 164.347 363.971 164.72 363.358 164.96C362.758 165.187 362.024 165.3 361.158 165.3ZM362.118 163.48C362.824 163.48 363.444 163.273 363.978 162.86C364.524 162.447 364.798 161.9 364.798 161.22V157.32C364.518 157.173 364.231 157.073 363.938 157.02C363.658 156.953 363.311 156.92 362.898 156.92C361.844 156.92 360.998 157.253 360.358 157.92C359.718 158.587 359.398 159.507 359.398 160.68C359.398 161.64 359.618 162.347 360.058 162.8C360.511 163.253 361.198 163.48 362.118 163.48ZM370.322 165C370.056 165 369.862 164.94 369.742 164.82C369.636 164.7 369.582 164.52 369.582 164.28V152.14C369.582 151.887 369.636 151.7 369.742 151.58C369.862 151.46 370.056 151.4 370.322 151.4H371.382C371.649 151.4 371.842 151.46 371.962 151.58C372.082 151.7 372.142 151.887 372.142 152.14V164.28C372.142 164.52 372.082 164.7 371.962 164.82C371.856 164.94 371.662 165 371.382 165H370.322ZM376.824 168.12C376.318 168.12 375.851 168.047 375.424 167.9C374.998 167.753 374.631 167.553 374.324 167.3C374.218 167.207 374.164 167.12 374.164 167.04C374.164 166.96 374.191 166.887 374.244 166.82L374.804 165.86C374.884 165.727 374.964 165.66 375.044 165.66C375.111 165.66 375.191 165.7 375.284 165.78C375.498 165.94 375.711 166.06 375.924 166.14C376.151 166.22 376.418 166.26 376.724 166.26C377.124 166.26 377.438 166.127 377.664 165.86C377.891 165.607 378.124 165.173 378.364 164.56L374.324 155.96C374.271 155.827 374.244 155.733 374.244 155.68C374.244 155.493 374.351 155.4 374.564 155.4H376.264C376.438 155.4 376.564 155.427 376.644 155.48C376.724 155.533 376.798 155.633 376.864 155.78L379.544 162.06L382.224 155.78C382.291 155.633 382.364 155.533 382.444 155.48C382.524 155.427 382.651 155.4 382.824 155.4H384.524C384.738 155.4 384.844 155.493 384.844 155.68C384.844 155.733 384.818 155.827 384.764 155.96L381.004 163.98C380.484 165.073 380.044 165.9 379.684 166.46C379.338 167.02 378.938 167.433 378.484 167.7C378.044 167.98 377.491 168.12 376.824 168.12ZM390.559 165.3C389.759 165.3 388.979 165.213 388.219 165.04C387.459 164.88 386.805 164.633 386.259 164.3C386.085 164.207 385.999 164.107 385.999 164C385.999 163.92 386.025 163.847 386.079 163.78L386.639 162.8C386.705 162.68 386.772 162.62 386.839 162.62C386.905 162.62 386.992 162.653 387.099 162.72C387.499 162.96 387.992 163.16 388.579 163.32C389.165 163.48 389.705 163.56 390.199 163.56C390.959 163.56 391.499 163.487 391.819 163.34C392.152 163.18 392.319 162.9 392.319 162.5C392.319 162.273 392.252 162.093 392.119 161.96C391.999 161.813 391.812 161.687 391.559 161.58C391.305 161.473 390.885 161.327 390.299 161.14C390.299 161.14 390.079 161.067 389.639 160.92C388.879 160.667 388.272 160.42 387.819 160.18C387.365 159.94 387.012 159.64 386.759 159.28C386.519 158.907 386.399 158.44 386.399 157.88C386.399 156.973 386.779 156.287 387.539 155.82C388.312 155.34 389.312 155.1 390.539 155.1C392.032 155.1 393.319 155.42 394.399 156.06C394.572 156.153 394.659 156.253 394.659 156.36C394.659 156.427 394.625 156.513 394.559 156.62L394.019 157.48C393.939 157.6 393.872 157.66 393.819 157.66C393.765 157.66 393.685 157.627 393.579 157.56C393.232 157.347 392.812 157.18 392.319 157.06C391.839 156.927 391.352 156.86 390.859 156.86C390.192 156.86 389.699 156.933 389.379 157.08C389.072 157.213 388.919 157.48 388.919 157.88C388.919 158.227 389.099 158.5 389.459 158.7C389.832 158.9 390.472 159.14 391.379 159.42L392.039 159.62C393.079 159.953 393.805 160.347 394.219 160.8C394.645 161.253 394.859 161.82 394.859 162.5C394.859 163.327 394.492 164 393.759 164.52C393.039 165.04 391.972 165.3 390.559 165.3ZM402.008 165.3C400.968 165.3 400.028 165.127 399.188 164.78C398.348 164.42 397.675 163.873 397.168 163.14C396.675 162.393 396.428 161.467 396.428 160.36C396.428 158.64 396.888 157.333 397.808 156.44C398.728 155.547 400.035 155.1 401.728 155.1C403.408 155.1 404.675 155.533 405.528 156.4C406.395 157.267 406.828 158.52 406.828 160.16C406.828 160.627 406.615 160.86 406.188 160.86H398.848C398.848 161.74 399.155 162.42 399.768 162.9C400.382 163.367 401.235 163.6 402.328 163.6C403.382 163.6 404.328 163.36 405.168 162.88C405.262 162.827 405.335 162.8 405.388 162.8C405.482 162.8 405.555 162.86 405.608 162.98L406.088 163.84C406.128 163.92 406.148 163.993 406.148 164.06C406.148 164.153 406.088 164.24 405.968 164.32C405.422 164.653 404.828 164.9 404.188 165.06C403.562 165.22 402.835 165.3 402.008 165.3ZM404.508 159.38C404.508 158.553 404.275 157.907 403.808 157.44C403.355 156.973 402.668 156.74 401.748 156.74C400.815 156.74 400.095 156.98 399.588 157.46C399.095 157.94 398.848 158.58 398.848 159.38H404.508ZM412.942 165.3C412.142 165.3 411.362 165.213 410.602 165.04C409.842 164.88 409.188 164.633 408.642 164.3C408.468 164.207 408.382 164.107 408.382 164C408.382 163.92 408.408 163.847 408.462 163.78L409.022 162.8C409.088 162.68 409.155 162.62 409.222 162.62C409.288 162.62 409.375 162.653 409.482 162.72C409.882 162.96 410.375 163.16 410.962 163.32C411.548 163.48 412.088 163.56 412.582 163.56C413.342 163.56 413.882 163.487 414.202 163.34C414.535 163.18 414.702 162.9 414.702 162.5C414.702 162.273 414.635 162.093 414.502 161.96C414.382 161.813 414.195 161.687 413.942 161.58C413.688 161.473 413.268 161.327 412.682 161.14C412.682 161.14 412.462 161.067 412.022 160.92C411.262 160.667 410.655 160.42 410.202 160.18C409.748 159.94 409.395 159.64 409.142 159.28C408.902 158.907 408.782 158.44 408.782 157.88C408.782 156.973 409.162 156.287 409.922 155.82C410.695 155.34 411.695 155.1 412.922 155.1C414.415 155.1 415.702 155.42 416.782 156.06C416.955 156.153 417.042 156.253 417.042 156.36C417.042 156.427 417.008 156.513 416.942 156.62L416.402 157.48C416.322 157.6 416.255 157.66 416.202 157.66C416.148 157.66 416.068 157.627 415.962 157.56C415.615 157.347 415.195 157.18 414.702 157.06C414.222 156.927 413.735 156.86 413.242 156.86C412.575 156.86 412.082 156.933 411.762 157.08C411.455 157.213 411.302 157.48 411.302 157.88C411.302 158.227 411.482 158.5 411.842 158.7C412.215 158.9 412.855 159.14 413.762 159.42L414.422 159.62C415.462 159.953 416.188 160.347 416.602 160.8C417.028 161.253 417.242 161.82 417.242 162.5C417.242 163.327 416.875 164 416.142 164.52C415.422 165.04 414.355 165.3 412.942 165.3Z" fill="#2F4558"/>
</svg>
