<svg width="452" height="180" viewBox="0 0 452 180" fill="none" xmlns="http://www.w3.org/2000/svg">
<rect width="452" height="180" fill="white"/>
<path d="M137.944 137C137.331 137 136.886 136.862 136.61 136.586C136.365 136.31 136.242 135.896 136.242 135.344V107.422C136.242 106.839 136.365 106.41 136.61 106.134C136.886 105.858 137.331 105.72 137.944 105.72H151.238C154.428 105.72 156.835 106.487 158.46 108.02C160.116 109.553 160.944 111.623 160.944 114.23C160.944 115.702 160.576 117.021 159.84 118.186C159.104 119.351 158.077 120.21 156.758 120.762C160.162 121.835 161.864 124.227 161.864 127.938C161.864 129.655 161.466 131.204 160.668 132.584C159.902 133.933 158.736 135.007 157.172 135.804C155.608 136.601 153.676 137 151.376 137H137.944ZM150.41 118.784C151.913 118.784 153.063 118.401 153.86 117.634C154.688 116.867 155.102 115.794 155.102 114.414C155.102 112.911 154.719 111.838 153.952 111.194C153.216 110.519 152.02 110.182 150.364 110.182H142.13V118.784H150.41ZM151.1 132.538C152.787 132.538 154.029 132.109 154.826 131.25C155.624 130.361 156.022 129.226 156.022 127.846C156.022 126.251 155.532 125.055 154.55 124.258C153.6 123.43 152.266 123.016 150.548 123.016H142.13V132.538H151.1ZM168.087 137C167.474 137 167.029 136.862 166.753 136.586C166.508 136.31 166.385 135.896 166.385 135.344V107.422C166.385 106.839 166.508 106.41 166.753 106.134C167.029 105.858 167.474 105.72 168.087 105.72H187.223C187.836 105.72 188.25 105.843 188.465 106.088C188.71 106.333 188.833 106.747 188.833 107.33V108.572C188.833 109.155 188.71 109.584 188.465 109.86C188.25 110.105 187.836 110.228 187.223 110.228H172.273V119.152H183.129C183.742 119.152 184.172 119.275 184.417 119.52C184.662 119.765 184.785 120.179 184.785 120.762V121.912C184.785 122.495 184.662 122.924 184.417 123.2C184.172 123.445 183.742 123.568 183.129 123.568H172.273V132.538H187.177C187.79 132.538 188.22 132.676 188.465 132.952C188.71 133.197 188.833 133.611 188.833 134.194V135.436C188.833 135.988 188.71 136.387 188.465 136.632C188.22 136.877 187.79 137 187.177 137H168.087ZM206.278 137.69C201.065 137.69 197.032 136.279 194.18 133.458C191.328 130.637 189.902 126.604 189.902 121.36C189.902 116.116 191.298 112.083 194.088 109.262C196.91 106.441 200.927 105.03 206.14 105.03C208.226 105.03 210.158 105.245 211.936 105.674C213.715 106.103 215.218 106.717 216.444 107.514C216.72 107.698 216.858 107.897 216.858 108.112C216.858 108.296 216.782 108.511 216.628 108.756L215.34 110.964C215.156 111.24 214.988 111.378 214.834 111.378C214.712 111.378 214.497 111.301 214.19 111.148C212.258 109.983 209.79 109.4 206.784 109.4C203.319 109.4 200.605 110.397 198.642 112.39C196.68 114.383 195.698 117.373 195.698 121.36C195.698 125.408 196.71 128.429 198.734 130.422C200.758 132.385 203.488 133.366 206.922 133.366C210.112 133.366 212.734 132.768 214.788 131.572C215.095 131.419 215.294 131.342 215.386 131.342C215.57 131.342 215.754 131.48 215.938 131.756L217.364 134.148C217.456 134.332 217.502 134.485 217.502 134.608C217.502 134.792 217.334 134.991 216.996 135.206C214.635 136.862 211.062 137.69 206.278 137.69ZM220.647 137C220.126 137 219.865 136.77 219.865 136.31C219.865 136.126 219.911 135.927 220.003 135.712L232.147 106.916C232.331 106.456 232.531 106.149 232.745 105.996C232.96 105.812 233.267 105.72 233.665 105.72H236.195C236.625 105.72 236.931 105.812 237.115 105.996C237.33 106.149 237.529 106.456 237.713 106.916L249.857 135.712C249.949 135.927 249.995 136.126 249.995 136.31C249.995 136.77 249.735 137 249.213 137H245.211C244.813 137 244.521 136.954 244.337 136.862C244.184 136.739 244.031 136.509 243.877 136.172L241.255 129.732H228.559L225.983 136.172C225.83 136.509 225.661 136.739 225.477 136.862C225.324 136.954 225.048 137 224.649 137H220.647ZM239.783 125.454L234.907 113.402L230.031 125.454H239.783Z" fill="#2F4558"/>
<path d="M256.224 137C255.61 137 255.166 136.862 254.89 136.586C254.644 136.31 254.522 135.896 254.522 135.344V107.422C254.522 106.839 254.644 106.41 254.89 106.134C255.166 105.858 255.61 105.72 256.224 105.72H258.662C259.275 105.72 259.72 105.858 259.996 106.134C260.272 106.41 260.41 106.839 260.41 107.422V132.538H274.486C275.099 132.538 275.528 132.676 275.774 132.952C276.019 133.197 276.142 133.611 276.142 134.194V135.436C276.142 135.988 276.019 136.387 275.774 136.632C275.528 136.877 275.099 137 274.486 137H256.224Z" fill="#F6B12D"/>
<path d="M281.425 137C280.811 137 280.367 136.862 280.091 136.586C279.845 136.31 279.723 135.896 279.723 135.344V107.422C279.723 106.839 279.845 106.41 280.091 106.134C280.367 105.858 280.811 105.72 281.425 105.72H283.863C284.476 105.72 284.921 105.858 285.197 106.134C285.473 106.41 285.611 106.839 285.611 107.422V135.344C285.611 135.896 285.473 136.31 285.197 136.586C284.951 136.862 284.507 137 283.863 137H281.425Z" fill="#335F8A"/>
<path d="M292.745 137C292.132 137 291.687 136.862 291.411 136.586C291.166 136.31 291.043 135.896 291.043 135.344V107.422C291.043 106.839 291.166 106.41 291.411 106.134C291.687 105.858 292.132 105.72 292.745 105.72H306.039C309.228 105.72 311.636 106.487 313.261 108.02C314.917 109.553 315.745 111.623 315.745 114.23C315.745 115.702 315.377 117.021 314.641 118.186C313.905 119.351 312.878 120.21 311.559 120.762C314.963 121.835 316.665 124.227 316.665 127.938C316.665 129.655 316.266 131.204 315.469 132.584C314.702 133.933 313.537 135.007 311.973 135.804C310.409 136.601 308.477 137 306.177 137H292.745ZM305.211 118.784C306.714 118.784 307.864 118.401 308.661 117.634C309.489 116.867 309.903 115.794 309.903 114.414C309.903 112.911 309.52 111.838 308.753 111.194C308.017 110.519 306.821 110.182 305.165 110.182H296.931V118.784H305.211ZM305.901 132.538C307.588 132.538 308.83 132.109 309.627 131.25C310.424 130.361 310.823 129.226 310.823 127.846C310.823 126.251 310.332 125.055 309.351 124.258C308.4 123.43 307.066 123.016 305.349 123.016H296.931V132.538H305.901Z" fill="#F26619"/>
<path d="M195.198 66.8444L192.665 73.4452L189.408 79.7591L188.323 81.4811L187.395 82.5847C187.049 82.9959 186.663 83.3712 186.242 83.705L185.428 84.351" stroke="#2F4558" stroke-width="3" stroke-linecap="round"/>
<path d="M266.847 51.6337L264.676 58.2345L261.781 66.8444L259.248 73.4452L255.991 79.7591L254.905 81.4811L253.941 82.6284C253.62 83.0105 253.261 83.3593 252.87 83.6694L252.542 83.9293C252.19 84.2089 251.798 84.4353 251.38 84.6011L250.899 84.7916C250.677 84.8797 250.44 84.925 250.201 84.925V84.925" stroke="#2F4558" stroke-width="3" stroke-linecap="round"/>
<path d="M232.832 49.1006L235.727 58.2345L238.622 66.8444L241.155 73.4452L244.411 79.7591L245.497 81.4811L246.462 82.6284C246.783 83.0105 247.142 83.3593 247.533 83.6694L247.86 83.9293C248.213 84.2089 248.604 84.4353 249.023 84.6011L249.503 84.7916C249.725 84.8797 249.962 84.925 250.201 84.925V84.925" stroke="#2F4558" stroke-width="3" stroke-linecap="round"/>
<path d="M229.213 38.6066L225.957 29.8221L222.7 23.5082L221.614 21.7863L220.65 20.6389C220.329 20.2568 219.97 19.908 219.579 19.5979L219.251 19.338C218.899 19.0584 218.507 18.8321 218.089 18.6662L217.608 18.4757C217.386 18.3876 217.149 18.3423 216.91 18.3423V18.3423" stroke="#2F4558" stroke-width="3" stroke-linecap="round"/>
<path d="M198.455 57.7854L200.626 50.91L202.436 45.0328L205.33 36.423L207.864 29.8221L209.311 26.6652L211.12 23.5083L212.206 21.7863L213.17 20.6389C213.491 20.2568 213.85 19.9081 214.241 19.5979L214.569 19.338C214.922 19.0584 215.313 18.8321 215.732 18.6662L216.212 18.4758C216.434 18.3876 216.671 18.3424 216.91 18.3424V18.3424" stroke="#2F4558" stroke-width="3" stroke-linecap="round"/>
<path d="M224.147 51.9955L221.787 54.9372L218.641 58.7742L216.289 61.2862C216.022 61.5723 215.733 61.8383 215.427 62.0821L212.347 64.5297L211.167 65.2971L209.594 66.0644L208.605 66.3862C208.216 66.5126 207.818 66.609 207.415 66.6746L206.836 66.7687C206.577 66.8107 206.316 66.8318 206.054 66.8318V66.8318" stroke="#2F4558" stroke-width="3" stroke-linecap="round"/>
<path d="M187.961 51.9955L190.321 54.9372L193.468 58.7742L195.819 61.2862C196.086 61.5723 196.375 61.8383 196.682 62.0821L199.761 64.5297L200.941 65.2971L202.514 66.0645L203.503 66.3862C203.892 66.5126 204.29 66.609 204.693 66.6746L205.272 66.7687C205.531 66.8107 205.792 66.8318 206.054 66.8318V66.8318" stroke="#2F4558" stroke-width="3" stroke-linecap="round"/>
<path d="M260.333 51.9955L257.973 49.0538L254.827 45.2169L252.476 42.7048C252.208 42.4188 251.919 42.1528 251.613 41.909L248.533 39.4614L247.353 38.694L245.78 37.9266L244.791 37.6049C244.402 37.4785 244.004 37.382 243.601 37.3164L243.022 37.2223C242.763 37.1803 242.502 37.1592 242.24 37.1592V37.1592" stroke="#2F4558" stroke-width="3" stroke-linecap="round"/>
<path d="M224.147 51.9955L226.507 49.0538L229.654 45.2169L232.005 42.7048C232.273 42.4188 232.561 42.1528 232.868 41.909L235.947 39.4614L237.127 38.694L238.7 37.9266L239.69 37.6049C240.078 37.4785 240.476 37.382 240.88 37.3164L241.459 37.2223C241.717 37.1803 241.978 37.1592 242.24 37.1592V37.1592" stroke="#2F4558" stroke-width="3" stroke-linecap="round"/>
<path d="M187.961 51.9955L185.601 49.0538" stroke="#2F4558" stroke-width="3" stroke-linecap="round"/>
<path d="M180 89.9911H272.637" stroke="#2F4558" stroke-width="3" stroke-linecap="round"/>
<path d="M180 14H272.637" stroke="#2F4558" stroke-width="3" stroke-linecap="round"/>
<path d="M33.2716 165C33.0049 165 32.8116 164.94 32.6916 164.82C32.5849 164.7 32.5316 164.52 32.5316 164.28V152.14C32.5316 151.887 32.5849 151.7 32.6916 151.58C32.8116 151.46 33.0049 151.4 33.2716 151.4H39.0516C40.4382 151.4 41.4849 151.733 42.1916 152.4C42.9116 153.067 43.2716 153.967 43.2716 155.1C43.2716 155.74 43.1116 156.313 42.7916 156.82C42.4716 157.327 42.0249 157.7 41.4516 157.94C42.9316 158.407 43.6716 159.447 43.6716 161.06C43.6716 161.807 43.4982 162.48 43.1516 163.08C42.8182 163.667 42.3116 164.133 41.6316 164.48C40.9516 164.827 40.1116 165 39.1116 165H33.2716ZM38.6916 157.08C39.3449 157.08 39.8449 156.913 40.1916 156.58C40.5516 156.247 40.7316 155.78 40.7316 155.18C40.7316 154.527 40.5649 154.06 40.2316 153.78C39.9116 153.487 39.3916 153.34 38.6716 153.34H35.0916V157.08H38.6916ZM38.9916 163.06C39.7249 163.06 40.2649 162.873 40.6116 162.5C40.9582 162.113 41.1316 161.62 41.1316 161.02C41.1316 160.327 40.9182 159.807 40.4916 159.46C40.0782 159.1 39.4982 158.92 38.7516 158.92H35.0916V163.06H38.9916ZM49.177 165.3C48.0837 165.3 47.2037 165 46.537 164.4C45.8704 163.787 45.537 162.88 45.537 161.68V156.14C45.537 155.887 45.5904 155.7 45.697 155.58C45.817 155.46 46.0104 155.4 46.277 155.4H47.337C47.6037 155.4 47.797 155.46 47.917 155.58C48.037 155.7 48.097 155.887 48.097 156.14V161.62C48.097 162.26 48.2637 162.733 48.597 163.04C48.9304 163.333 49.4237 163.48 50.077 163.48C50.7704 163.48 51.3504 163.287 51.817 162.9C52.2837 162.513 52.517 162.013 52.517 161.4V156.14C52.517 155.887 52.577 155.7 52.697 155.58C52.817 155.46 53.0104 155.4 53.277 155.4H54.317C54.5837 155.4 54.777 155.46 54.897 155.58C55.017 155.7 55.077 155.887 55.077 156.14V164.46C55.077 164.673 55.0437 164.82 54.977 164.9C54.9104 164.967 54.7704 165 54.557 165H53.437C53.2904 165 53.1837 164.973 53.117 164.92C53.0504 164.853 53.0104 164.753 52.997 164.62L52.917 163.78C52.0104 164.793 50.7637 165.3 49.177 165.3ZM58.4339 153.74C58.1139 153.74 57.8672 153.647 57.6939 153.46C57.5206 153.273 57.4339 153.047 57.4339 152.78V152.36C57.4339 152.093 57.5206 151.867 57.6939 151.68C57.8672 151.493 58.1139 151.4 58.4339 151.4H59.2939C59.6139 151.4 59.8606 151.493 60.0339 151.68C60.2206 151.867 60.3139 152.093 60.3139 152.36V152.78C60.3139 153.047 60.2206 153.273 60.0339 153.46C59.8606 153.647 59.6139 153.74 59.2939 153.74H58.4339ZM58.3539 165C58.0872 165 57.8939 164.94 57.7739 164.82C57.6539 164.7 57.5939 164.52 57.5939 164.28V156.14C57.5939 155.887 57.6539 155.7 57.7739 155.58C57.8939 155.46 58.0872 155.4 58.3539 155.4H59.3939C59.6606 155.4 59.8539 155.46 59.9739 155.58C60.0939 155.7 60.1539 155.887 60.1539 156.14V164.28C60.1539 164.52 60.0939 164.7 59.9739 164.82C59.8672 164.94 59.6739 165 59.3939 165H58.3539ZM63.4083 165C63.1416 165 62.9483 164.94 62.8283 164.82C62.7216 164.7 62.6683 164.52 62.6683 164.28V152.14C62.6683 151.887 62.7216 151.7 62.8283 151.58C62.9483 151.46 63.1416 151.4 63.4083 151.4H64.4683C64.7349 151.4 64.9283 151.46 65.0483 151.58C65.1683 151.7 65.2283 151.887 65.2283 152.14V164.28C65.2283 164.52 65.1683 164.7 65.0483 164.82C64.9416 164.94 64.7483 165 64.4683 165H63.4083ZM72.8702 165.3C69.0835 165.3 67.1902 163.593 67.1902 160.18C67.1902 159.18 67.3835 158.3 67.7702 157.54C68.1568 156.767 68.7102 156.167 69.4302 155.74C70.1635 155.313 71.0235 155.1 72.0102 155.1C73.4102 155.1 74.4235 155.413 75.0502 156.04V152.14C75.0502 151.887 75.1102 151.7 75.2302 151.58C75.3502 151.46 75.5435 151.4 75.8102 151.4H76.8102C77.0768 151.4 77.2702 151.46 77.3902 151.58C77.5102 151.7 77.5702 151.887 77.5702 152.14V164C77.0635 164.373 76.3835 164.687 75.5302 164.94C74.6768 165.18 73.7902 165.3 72.8702 165.3ZM72.9302 163.48C73.8235 163.48 74.5302 163.32 75.0502 163V158.92C75.0502 158.267 74.8235 157.773 74.3702 157.44C73.9168 157.107 73.3302 156.94 72.6102 156.94C71.6368 156.94 70.9102 157.233 70.4302 157.82C69.9502 158.407 69.7102 159.213 69.7102 160.24C69.7102 161.387 69.9768 162.213 70.5102 162.72C71.0435 163.227 71.8502 163.48 72.9302 163.48ZM80.9339 153.74C80.6139 153.74 80.3672 153.647 80.1939 153.46C80.0206 153.273 79.9339 153.047 79.9339 152.78V152.36C79.9339 152.093 80.0206 151.867 80.1939 151.68C80.3672 151.493 80.6139 151.4 80.9339 151.4H81.7939C82.1139 151.4 82.3606 151.493 82.5339 151.68C82.7206 151.867 82.8139 152.093 82.8139 152.36V152.78C82.8139 153.047 82.7206 153.273 82.5339 153.46C82.3606 153.647 82.1139 153.74 81.7939 153.74H80.9339ZM80.8539 165C80.5872 165 80.3939 164.94 80.2739 164.82C80.1539 164.7 80.0939 164.52 80.0939 164.28V156.14C80.0939 155.887 80.1539 155.7 80.2739 155.58C80.3939 155.46 80.5872 155.4 80.8539 155.4H81.8939C82.1606 155.4 82.3539 155.46 82.4739 155.58C82.5939 155.7 82.6539 155.887 82.6539 156.14V164.28C82.6539 164.52 82.5939 164.7 82.4739 164.82C82.3672 164.94 82.1739 165 81.8939 165H80.8539ZM85.9283 165C85.6616 165 85.4683 164.94 85.3483 164.82C85.2283 164.7 85.1683 164.52 85.1683 164.28V155.94C85.1683 155.74 85.2016 155.6 85.2683 155.52C85.3349 155.44 85.4749 155.4 85.6883 155.4H86.8283C87.1216 155.4 87.2749 155.533 87.2883 155.8L87.3283 156.6C88.2349 155.6 89.5349 155.1 91.2283 155.1C92.3083 155.1 93.1749 155.393 93.8283 155.98C94.4949 156.553 94.8283 157.42 94.8283 158.58V164.28C94.8283 164.52 94.7683 164.7 94.6483 164.82C94.5416 164.94 94.3549 165 94.0883 165H93.0283C92.7616 165 92.5683 164.94 92.4483 164.82C92.3283 164.7 92.2683 164.52 92.2683 164.28V158.74C92.2683 158.087 92.1149 157.627 91.8083 157.36C91.5149 157.08 91.0349 156.94 90.3683 156.94C89.6616 156.94 89.0416 157.133 88.5083 157.52C87.9883 157.893 87.7283 158.38 87.7283 158.98V164.28C87.7283 164.52 87.6683 164.7 87.5483 164.82C87.4416 164.94 87.2483 165 86.9683 165H85.9283ZM102.182 168.4C101.409 168.4 100.656 168.327 99.9223 168.18C99.189 168.033 98.629 167.84 98.2423 167.6C98.029 167.48 97.9757 167.333 98.0823 167.16L98.6623 166.18C98.7423 166.047 98.8223 165.98 98.9023 165.98C98.9557 165.98 99.0223 166 99.1023 166.04C99.8357 166.413 100.789 166.6 101.962 166.6C102.856 166.6 103.509 166.387 103.922 165.96C104.336 165.533 104.542 164.813 104.542 163.8C104.169 164.2 103.729 164.5 103.222 164.7C102.729 164.887 102.129 164.98 101.422 164.98C99.929 164.98 98.7623 164.573 97.9223 163.76C97.0957 162.947 96.6823 161.8 96.6823 160.32C96.6823 158.64 97.1757 157.353 98.1623 156.46C99.1623 155.553 100.602 155.1 102.482 155.1C103.349 155.1 104.196 155.22 105.022 155.46C105.862 155.7 106.542 156 107.062 156.36V163.22C107.062 164.833 106.669 166.1 105.882 167.02C105.096 167.94 103.862 168.4 102.182 168.4ZM102.022 163.1C102.769 163.1 103.376 162.907 103.842 162.52C104.309 162.12 104.542 161.573 104.542 160.88V157.32C104.289 157.2 103.969 157.107 103.582 157.04C103.196 156.973 102.789 156.94 102.362 156.94C100.256 156.94 99.2023 158.013 99.2023 160.16C99.2023 161.147 99.4357 161.887 99.9023 162.38C100.369 162.86 101.076 163.1 102.022 163.1ZM117.959 165C117.692 165 117.499 164.94 117.379 164.82C117.272 164.7 117.219 164.52 117.219 164.28V152.14C117.219 151.887 117.272 151.7 117.379 151.58C117.499 151.46 117.692 151.4 117.959 151.4H126.279C126.546 151.4 126.726 151.453 126.819 151.56C126.926 151.667 126.979 151.847 126.979 152.1V152.64C126.979 152.893 126.926 153.08 126.819 153.2C126.726 153.307 126.546 153.36 126.279 153.36H119.779V157.24H124.499C124.766 157.24 124.952 157.293 125.059 157.4C125.166 157.507 125.219 157.687 125.219 157.94V158.44C125.219 158.693 125.166 158.88 125.059 159C124.952 159.107 124.766 159.16 124.499 159.16H119.779V163.06H126.259C126.526 163.06 126.712 163.12 126.819 163.24C126.926 163.347 126.979 163.527 126.979 163.78V164.32C126.979 164.56 126.926 164.733 126.819 164.84C126.712 164.947 126.526 165 126.259 165H117.959ZM129.503 165C129.236 165 129.043 164.94 128.923 164.82C128.803 164.7 128.743 164.52 128.743 164.28V155.94C128.743 155.74 128.776 155.6 128.843 155.52C128.909 155.44 129.049 155.4 129.263 155.4H130.403C130.696 155.4 130.849 155.533 130.863 155.8L130.903 156.6C131.809 155.6 133.109 155.1 134.803 155.1C135.883 155.1 136.749 155.393 137.403 155.98C138.069 156.553 138.403 157.42 138.403 158.58V164.28C138.403 164.52 138.343 164.7 138.223 164.82C138.116 164.94 137.929 165 137.662 165H136.603C136.336 165 136.143 164.94 136.023 164.82C135.903 164.7 135.843 164.52 135.843 164.28V158.74C135.843 158.087 135.689 157.627 135.383 157.36C135.089 157.08 134.609 156.94 133.943 156.94C133.236 156.94 132.616 157.133 132.083 157.52C131.563 157.893 131.303 158.38 131.303 158.98V164.28C131.303 164.52 131.243 164.7 131.123 164.82C131.016 164.94 130.823 165 130.543 165H129.503ZM144.529 165C144.342 165 144.202 164.967 144.109 164.9C144.015 164.82 143.922 164.687 143.829 164.5L139.809 155.96C139.769 155.88 139.749 155.8 139.749 155.72C139.749 155.627 139.775 155.553 139.829 155.5C139.895 155.433 139.982 155.4 140.089 155.4H141.749C141.922 155.4 142.049 155.433 142.129 155.5C142.209 155.553 142.282 155.66 142.349 155.82L145.029 162.06L147.709 155.82C147.775 155.673 147.849 155.567 147.929 155.5C148.022 155.433 148.155 155.4 148.329 155.4H149.989C150.095 155.4 150.175 155.433 150.229 155.5C150.295 155.553 150.329 155.627 150.329 155.72C150.329 155.8 150.309 155.88 150.269 155.96L146.249 164.5C146.155 164.687 146.062 164.82 145.969 164.9C145.875 164.967 145.735 165 145.549 165H144.529ZM155.973 165.3C154.933 165.3 153.993 165.127 153.153 164.78C152.313 164.42 151.64 163.873 151.133 163.14C150.64 162.393 150.393 161.467 150.393 160.36C150.393 158.64 150.853 157.333 151.773 156.44C152.693 155.547 154 155.1 155.693 155.1C157.373 155.1 158.64 155.533 159.493 156.4C160.36 157.267 160.793 158.52 160.793 160.16C160.793 160.627 160.58 160.86 160.153 160.86H152.813C152.813 161.74 153.12 162.42 153.733 162.9C154.347 163.367 155.2 163.6 156.293 163.6C157.347 163.6 158.293 163.36 159.133 162.88C159.227 162.827 159.3 162.8 159.353 162.8C159.447 162.8 159.52 162.86 159.573 162.98L160.053 163.84C160.093 163.92 160.113 163.993 160.113 164.06C160.113 164.153 160.053 164.24 159.933 164.32C159.387 164.653 158.793 164.9 158.153 165.06C157.527 165.22 156.8 165.3 155.973 165.3ZM158.473 159.38C158.473 158.553 158.24 157.907 157.773 157.44C157.32 156.973 156.633 156.74 155.713 156.74C154.78 156.74 154.06 156.98 153.553 157.46C153.06 157.94 152.813 158.58 152.813 159.38H158.473ZM163.486 165C163.22 165 163.026 164.94 162.906 164.82C162.8 164.7 162.746 164.52 162.746 164.28V152.14C162.746 151.887 162.8 151.7 162.906 151.58C163.026 151.46 163.22 151.4 163.486 151.4H164.546C164.813 151.4 165.006 151.46 165.126 151.58C165.246 151.7 165.306 151.887 165.306 152.14V164.28C165.306 164.52 165.246 164.7 165.126 164.82C165.02 164.94 164.826 165 164.546 165H163.486ZM172.688 165.3C170.955 165.3 169.615 164.847 168.668 163.94C167.735 163.02 167.268 161.773 167.268 160.2C167.268 158.627 167.735 157.387 168.668 156.48C169.615 155.56 170.955 155.1 172.688 155.1C174.422 155.1 175.762 155.56 176.708 156.48C177.655 157.387 178.128 158.627 178.128 160.2C178.128 161.773 177.655 163.02 176.708 163.94C175.762 164.847 174.422 165.3 172.688 165.3ZM172.688 163.42C173.635 163.42 174.355 163.147 174.848 162.6C175.342 162.053 175.588 161.253 175.588 160.2C175.588 159.16 175.342 158.373 174.848 157.84C174.355 157.293 173.635 157.02 172.688 157.02C171.755 157.02 171.035 157.293 170.528 157.84C170.035 158.373 169.788 159.16 169.788 160.2C169.788 161.24 170.035 162.04 170.528 162.6C171.035 163.147 171.755 163.42 172.688 163.42ZM180.83 169.04C180.563 169.04 180.37 168.98 180.25 168.86C180.143 168.74 180.09 168.56 180.09 168.32V156.36C180.597 156 181.27 155.7 182.11 155.46C182.963 155.22 183.817 155.1 184.67 155.1C188.537 155.1 190.47 156.807 190.47 160.22C190.47 161.793 190.043 163.033 189.19 163.94C188.35 164.847 187.19 165.3 185.71 165.3C184.363 165.3 183.33 164.913 182.61 164.14V168.32C182.61 168.573 182.55 168.753 182.43 168.86C182.323 168.98 182.13 169.04 181.85 169.04H180.83ZM185.11 163.48C186.057 163.48 186.763 163.193 187.23 162.62C187.697 162.047 187.93 161.22 187.93 160.14C187.93 158.98 187.657 158.16 187.11 157.68C186.563 157.187 185.723 156.94 184.59 156.94C183.75 156.94 183.09 157.067 182.61 157.32V161.26C182.61 161.94 182.85 162.48 183.33 162.88C183.81 163.28 184.403 163.48 185.11 163.48ZM197.614 165.3C196.574 165.3 195.634 165.127 194.794 164.78C193.954 164.42 193.281 163.873 192.774 163.14C192.281 162.393 192.034 161.467 192.034 160.36C192.034 158.64 192.494 157.333 193.414 156.44C194.334 155.547 195.641 155.1 197.334 155.1C199.014 155.1 200.281 155.533 201.134 156.4C202.001 157.267 202.434 158.52 202.434 160.16C202.434 160.627 202.221 160.86 201.794 160.86H194.454C194.454 161.74 194.761 162.42 195.374 162.9C195.987 163.367 196.841 163.6 197.934 163.6C198.987 163.6 199.934 163.36 200.774 162.88C200.867 162.827 200.941 162.8 200.994 162.8C201.087 162.8 201.161 162.86 201.214 162.98L201.694 163.84C201.734 163.92 201.754 163.993 201.754 164.06C201.754 164.153 201.694 164.24 201.574 164.32C201.027 164.653 200.434 164.9 199.794 165.06C199.167 165.22 198.441 165.3 197.614 165.3ZM200.114 159.38C200.114 158.553 199.881 157.907 199.414 157.44C198.961 156.973 198.274 156.74 197.354 156.74C196.421 156.74 195.701 156.98 195.194 157.46C194.701 157.94 194.454 158.58 194.454 159.38H200.114ZM218.9 165.3C216.633 165.3 214.88 164.687 213.64 163.46C212.4 162.233 211.78 160.48 211.78 158.2C211.78 155.92 212.387 154.167 213.6 152.94C214.827 151.713 216.573 151.1 218.84 151.1C219.747 151.1 220.587 151.193 221.36 151.38C222.133 151.567 222.787 151.833 223.32 152.18C223.44 152.26 223.5 152.347 223.5 152.44C223.5 152.52 223.467 152.613 223.4 152.72L222.84 153.68C222.76 153.8 222.687 153.86 222.62 153.86C222.567 153.86 222.473 153.827 222.34 153.76C221.5 153.253 220.427 153 219.12 153C217.613 153 216.433 153.433 215.58 154.3C214.727 155.167 214.3 156.467 214.3 158.2C214.3 159.96 214.74 161.273 215.62 162.14C216.5 162.993 217.687 163.42 219.18 163.42C220.567 163.42 221.707 163.16 222.6 162.64C222.733 162.573 222.82 162.54 222.86 162.54C222.94 162.54 223.02 162.6 223.1 162.72L223.72 163.76C223.76 163.84 223.78 163.907 223.78 163.96C223.78 164.04 223.707 164.127 223.56 164.22C222.533 164.94 220.98 165.3 218.9 165.3ZM229.837 165.3C228.103 165.3 226.763 164.847 225.817 163.94C224.883 163.02 224.417 161.773 224.417 160.2C224.417 158.627 224.883 157.387 225.817 156.48C226.763 155.56 228.103 155.1 229.837 155.1C231.57 155.1 232.91 155.56 233.857 156.48C234.803 157.387 235.277 158.627 235.277 160.2C235.277 161.773 234.803 163.02 233.857 163.94C232.91 164.847 231.57 165.3 229.837 165.3ZM229.837 163.42C230.783 163.42 231.503 163.147 231.997 162.6C232.49 162.053 232.737 161.253 232.737 160.2C232.737 159.16 232.49 158.373 231.997 157.84C231.503 157.293 230.783 157.02 229.837 157.02C228.903 157.02 228.183 157.293 227.677 157.84C227.183 158.373 226.937 159.16 226.937 160.2C226.937 161.24 227.183 162.04 227.677 162.6C228.183 163.147 228.903 163.42 229.837 163.42ZM237.999 165C237.732 165 237.539 164.94 237.419 164.82C237.299 164.7 237.239 164.52 237.239 164.28V155.94C237.239 155.74 237.272 155.6 237.339 155.52C237.405 155.44 237.545 155.4 237.759 155.4H238.819C238.965 155.4 239.072 155.433 239.139 155.5C239.205 155.553 239.245 155.653 239.259 155.8L239.319 156.64C239.705 156.147 240.145 155.767 240.639 155.5C241.145 155.233 241.745 155.1 242.439 155.1C243.025 155.1 243.532 155.233 243.959 155.5C244.399 155.753 244.719 156.133 244.919 156.64C245.652 155.613 246.712 155.1 248.099 155.1C249.045 155.1 249.792 155.387 250.339 155.96C250.899 156.533 251.179 157.387 251.179 158.52V164.28C251.179 164.52 251.119 164.7 250.999 164.82C250.892 164.94 250.699 165 250.419 165H249.539C249.272 165 249.079 164.94 248.959 164.82C248.839 164.7 248.779 164.52 248.779 164.28V158.66C248.779 158.047 248.645 157.607 248.379 157.34C248.125 157.073 247.739 156.94 247.219 156.94C246.672 156.94 246.225 157.12 245.879 157.48C245.545 157.84 245.379 158.327 245.379 158.94V164.28C245.379 164.52 245.319 164.7 245.199 164.82C245.079 164.94 244.885 165 244.619 165H243.799C243.532 165 243.339 164.94 243.219 164.82C243.099 164.7 243.039 164.52 243.039 164.28V158.56C243.039 158 242.919 157.593 242.679 157.34C242.452 157.073 242.085 156.94 241.579 156.94C241.005 156.94 240.539 157.133 240.179 157.52C239.819 157.893 239.639 158.387 239.639 159V164.28C239.639 164.52 239.579 164.7 239.459 164.82C239.352 164.94 239.159 165 238.879 165H237.999ZM254.17 169.04C253.903 169.04 253.71 168.98 253.59 168.86C253.483 168.74 253.43 168.56 253.43 168.32V156.36C253.937 156 254.61 155.7 255.45 155.46C256.303 155.22 257.157 155.1 258.01 155.1C261.877 155.1 263.81 156.807 263.81 160.22C263.81 161.793 263.383 163.033 262.53 163.94C261.69 164.847 260.53 165.3 259.05 165.3C257.703 165.3 256.67 164.913 255.95 164.14V168.32C255.95 168.573 255.89 168.753 255.77 168.86C255.663 168.98 255.47 169.04 255.19 169.04H254.17ZM258.45 163.48C259.397 163.48 260.103 163.193 260.57 162.62C261.037 162.047 261.27 161.22 261.27 160.14C261.27 158.98 260.997 158.16 260.45 157.68C259.903 157.187 259.063 156.94 257.93 156.94C257.09 156.94 256.43 157.067 255.95 157.32V161.26C255.95 161.94 256.19 162.48 256.67 162.88C257.15 163.28 257.743 163.48 258.45 163.48ZM270.286 165.3C268.553 165.3 267.213 164.847 266.266 163.94C265.333 163.02 264.866 161.773 264.866 160.2C264.866 158.627 265.333 157.387 266.266 156.48C267.213 155.56 268.553 155.1 270.286 155.1C272.019 155.1 273.359 155.56 274.306 156.48C275.253 157.387 275.726 158.627 275.726 160.2C275.726 161.773 275.253 163.02 274.306 163.94C273.359 164.847 272.019 165.3 270.286 165.3ZM270.286 163.42C271.233 163.42 271.953 163.147 272.446 162.6C272.939 162.053 273.186 161.253 273.186 160.2C273.186 159.16 272.939 158.373 272.446 157.84C271.953 157.293 271.233 157.02 270.286 157.02C269.353 157.02 268.633 157.293 268.126 157.84C267.633 158.373 267.386 159.16 267.386 160.2C267.386 161.24 267.633 162.04 268.126 162.6C268.633 163.147 269.353 163.42 270.286 163.42ZM278.448 165C278.181 165 277.988 164.94 277.868 164.82C277.748 164.7 277.688 164.52 277.688 164.28V155.94C277.688 155.74 277.721 155.6 277.788 155.52C277.854 155.44 277.994 155.4 278.208 155.4H279.348C279.641 155.4 279.794 155.533 279.808 155.8L279.848 156.6C280.754 155.6 282.054 155.1 283.748 155.1C284.828 155.1 285.694 155.393 286.348 155.98C287.014 156.553 287.348 157.42 287.348 158.58V164.28C287.348 164.52 287.288 164.7 287.168 164.82C287.061 164.94 286.874 165 286.608 165H285.548C285.281 165 285.088 164.94 284.968 164.82C284.848 164.7 284.788 164.52 284.788 164.28V158.74C284.788 158.087 284.634 157.627 284.328 157.36C284.034 157.08 283.554 156.94 282.888 156.94C282.181 156.94 281.561 157.133 281.028 157.52C280.508 157.893 280.248 158.38 280.248 158.98V164.28C280.248 164.52 280.188 164.7 280.068 164.82C279.961 164.94 279.768 165 279.488 165H278.448ZM294.782 165.3C293.742 165.3 292.802 165.127 291.962 164.78C291.122 164.42 290.449 163.873 289.942 163.14C289.449 162.393 289.202 161.467 289.202 160.36C289.202 158.64 289.662 157.333 290.582 156.44C291.502 155.547 292.809 155.1 294.502 155.1C296.182 155.1 297.449 155.533 298.302 156.4C299.169 157.267 299.602 158.52 299.602 160.16C299.602 160.627 299.389 160.86 298.962 160.86H291.622C291.622 161.74 291.929 162.42 292.542 162.9C293.155 163.367 294.009 163.6 295.102 163.6C296.155 163.6 297.102 163.36 297.942 162.88C298.035 162.827 298.109 162.8 298.162 162.8C298.255 162.8 298.329 162.86 298.382 162.98L298.862 163.84C298.902 163.92 298.922 163.993 298.922 164.06C298.922 164.153 298.862 164.24 298.742 164.32C298.195 164.653 297.602 164.9 296.962 165.06C296.335 165.22 295.609 165.3 294.782 165.3ZM297.282 159.38C297.282 158.553 297.049 157.907 296.582 157.44C296.129 156.973 295.442 156.74 294.522 156.74C293.589 156.74 292.869 156.98 292.362 157.46C291.869 157.94 291.622 158.58 291.622 159.38H297.282ZM302.315 165C302.048 165 301.855 164.94 301.735 164.82C301.615 164.7 301.555 164.52 301.555 164.28V155.94C301.555 155.74 301.588 155.6 301.655 155.52C301.722 155.44 301.862 155.4 302.075 155.4H303.215C303.508 155.4 303.662 155.533 303.675 155.8L303.715 156.6C304.622 155.6 305.922 155.1 307.615 155.1C308.695 155.1 309.562 155.393 310.215 155.98C310.882 156.553 311.215 157.42 311.215 158.58V164.28C311.215 164.52 311.155 164.7 311.035 164.82C310.928 164.94 310.742 165 310.475 165H309.415C309.148 165 308.955 164.94 308.835 164.82C308.715 164.7 308.655 164.52 308.655 164.28V158.74C308.655 158.087 308.502 157.627 308.195 157.36C307.902 157.08 307.422 156.94 306.755 156.94C306.048 156.94 305.428 157.133 304.895 157.52C304.375 157.893 304.115 158.38 304.115 158.98V164.28C304.115 164.52 304.055 164.7 303.935 164.82C303.828 164.94 303.635 165 303.355 165H302.315ZM317.889 165.3C316.756 165.3 315.902 164.987 315.329 164.36C314.756 163.733 314.469 162.867 314.469 161.76V157.28H313.329C313.062 157.28 312.882 157.233 312.789 157.14C312.709 157.047 312.669 156.873 312.669 156.62V156.08C312.669 155.827 312.709 155.653 312.789 155.56C312.882 155.453 313.062 155.4 313.329 155.4H314.469V154.3C314.469 154.02 314.516 153.76 314.609 153.52C314.716 153.267 314.876 152.953 315.089 152.58C315.169 152.42 315.242 152.32 315.309 152.28C315.389 152.227 315.522 152.2 315.709 152.2H316.369C316.609 152.2 316.776 152.26 316.869 152.38C316.976 152.487 317.029 152.653 317.029 152.88V155.4H319.389C319.656 155.4 319.829 155.453 319.909 155.56C320.002 155.653 320.049 155.827 320.049 156.08V156.62C320.049 156.873 320.002 157.047 319.909 157.14C319.829 157.233 319.656 157.28 319.389 157.28H317.029V161.68C317.029 162.293 317.136 162.74 317.349 163.02C317.562 163.287 317.929 163.42 318.449 163.42C318.756 163.42 319.016 163.387 319.229 163.32C319.442 163.24 319.676 163.113 319.929 162.94C319.996 162.887 320.069 162.86 320.149 162.86C320.229 162.86 320.309 162.92 320.389 163.04L320.969 164C321.022 164.067 321.049 164.14 321.049 164.22C321.049 164.313 320.982 164.407 320.849 164.5C320.022 165.033 319.036 165.3 317.889 165.3ZM326.262 165.3C325.462 165.3 324.682 165.213 323.922 165.04C323.162 164.88 322.509 164.633 321.962 164.3C321.789 164.207 321.702 164.107 321.702 164C321.702 163.92 321.729 163.847 321.782 163.78L322.342 162.8C322.409 162.68 322.475 162.62 322.542 162.62C322.609 162.62 322.695 162.653 322.802 162.72C323.202 162.96 323.695 163.16 324.282 163.32C324.869 163.48 325.409 163.56 325.902 163.56C326.662 163.56 327.202 163.487 327.522 163.34C327.855 163.18 328.022 162.9 328.022 162.5C328.022 162.273 327.955 162.093 327.822 161.96C327.702 161.813 327.515 161.687 327.262 161.58C327.009 161.473 326.589 161.327 326.002 161.14C326.002 161.14 325.782 161.067 325.342 160.92C324.582 160.667 323.975 160.42 323.522 160.18C323.069 159.94 322.715 159.64 322.462 159.28C322.222 158.907 322.102 158.44 322.102 157.88C322.102 156.973 322.482 156.287 323.242 155.82C324.015 155.34 325.015 155.1 326.242 155.1C327.735 155.1 329.022 155.42 330.102 156.06C330.275 156.153 330.362 156.253 330.362 156.36C330.362 156.427 330.329 156.513 330.262 156.62L329.722 157.48C329.642 157.6 329.575 157.66 329.522 157.66C329.469 157.66 329.389 157.627 329.282 157.56C328.935 157.347 328.515 157.18 328.022 157.06C327.542 156.927 327.055 156.86 326.562 156.86C325.895 156.86 325.402 156.933 325.082 157.08C324.775 157.213 324.622 157.48 324.622 157.88C324.622 158.227 324.802 158.5 325.162 158.7C325.535 158.9 326.175 159.14 327.082 159.42L327.742 159.62C328.782 159.953 329.509 160.347 329.922 160.8C330.349 161.253 330.562 161.82 330.562 162.5C330.562 163.327 330.195 164 329.462 164.52C328.742 165.04 327.675 165.3 326.262 165.3ZM340.265 165C340.038 165 339.925 164.9 339.925 164.7C339.925 164.62 339.945 164.533 339.985 164.44L345.265 151.92C345.345 151.72 345.431 151.587 345.525 151.52C345.618 151.44 345.751 151.4 345.925 151.4H347.025C347.211 151.4 347.345 151.44 347.425 151.52C347.518 151.587 347.605 151.72 347.685 151.92L352.965 164.44C353.005 164.533 353.025 164.62 353.025 164.7C353.025 164.9 352.911 165 352.685 165H350.945C350.771 165 350.645 164.98 350.565 164.94C350.498 164.887 350.431 164.787 350.365 164.64L349.225 161.84H343.705L342.585 164.64C342.518 164.787 342.445 164.887 342.365 164.94C342.298 164.98 342.178 165 342.005 165H340.265ZM348.585 159.98L346.465 154.74L344.345 159.98H348.585ZM355.753 165C355.486 165 355.293 164.94 355.173 164.82C355.053 164.7 354.993 164.52 354.993 164.28V155.94C354.993 155.74 355.026 155.6 355.093 155.52C355.159 155.44 355.299 155.4 355.513 155.4H356.653C356.946 155.4 357.099 155.533 357.113 155.8L357.153 156.6C358.059 155.6 359.359 155.1 361.053 155.1C362.133 155.1 362.999 155.393 363.653 155.98C364.319 156.553 364.653 157.42 364.653 158.58V164.28C364.653 164.52 364.593 164.7 364.473 164.82C364.366 164.94 364.179 165 363.912 165H362.853C362.586 165 362.393 164.94 362.273 164.82C362.153 164.7 362.093 164.52 362.093 164.28V158.74C362.093 158.087 361.939 157.627 361.633 157.36C361.339 157.08 360.859 156.94 360.193 156.94C359.486 156.94 358.866 157.133 358.333 157.52C357.813 157.893 357.553 158.38 357.553 158.98V164.28C357.553 164.52 357.493 164.7 357.373 164.82C357.266 164.94 357.073 165 356.793 165H355.753ZM370.494 165.3C369.187 165.3 368.147 164.907 367.374 164.12C366.6 163.32 366.214 162.2 366.214 160.76C366.214 159.64 366.46 158.653 366.954 157.8C367.447 156.933 368.147 156.267 369.054 155.8C369.974 155.333 371.04 155.1 372.254 155.1C373.947 155.1 375.38 155.5 376.554 156.3V164.46C376.554 164.66 376.507 164.8 376.414 164.88C376.334 164.96 376.187 165 375.974 165H374.874C374.727 165 374.614 164.973 374.534 164.92C374.467 164.853 374.42 164.753 374.394 164.62L374.234 163.84C373.82 164.347 373.307 164.72 372.694 164.96C372.094 165.187 371.36 165.3 370.494 165.3ZM371.454 163.48C372.16 163.48 372.78 163.273 373.314 162.86C373.86 162.447 374.134 161.9 374.134 161.22V157.32C373.854 157.173 373.567 157.073 373.274 157.02C372.994 156.953 372.647 156.92 372.234 156.92C371.18 156.92 370.334 157.253 369.694 157.92C369.054 158.587 368.734 159.507 368.734 160.68C368.734 161.64 368.954 162.347 369.394 162.8C369.847 163.253 370.534 163.48 371.454 163.48ZM379.658 165C379.392 165 379.198 164.94 379.078 164.82C378.972 164.7 378.918 164.52 378.918 164.28V152.14C378.918 151.887 378.972 151.7 379.078 151.58C379.198 151.46 379.392 151.4 379.658 151.4H380.718C380.985 151.4 381.178 151.46 381.298 151.58C381.418 151.7 381.478 151.887 381.478 152.14V164.28C381.478 164.52 381.418 164.7 381.298 164.82C381.192 164.94 380.998 165 380.718 165H379.658ZM386.16 168.12C385.653 168.12 385.187 168.047 384.76 167.9C384.333 167.753 383.967 167.553 383.66 167.3C383.553 167.207 383.5 167.12 383.5 167.04C383.5 166.96 383.527 166.887 383.58 166.82L384.14 165.86C384.22 165.727 384.3 165.66 384.38 165.66C384.447 165.66 384.527 165.7 384.62 165.78C384.833 165.94 385.047 166.06 385.26 166.14C385.487 166.22 385.753 166.26 386.06 166.26C386.46 166.26 386.773 166.127 387 165.86C387.227 165.607 387.46 165.173 387.7 164.56L383.66 155.96C383.607 155.827 383.58 155.733 383.58 155.68C383.58 155.493 383.687 155.4 383.9 155.4H385.6C385.773 155.4 385.9 155.427 385.98 155.48C386.06 155.533 386.133 155.633 386.2 155.78L388.88 162.06L391.56 155.78C391.627 155.633 391.7 155.533 391.78 155.48C391.86 155.427 391.987 155.4 392.16 155.4H393.86C394.073 155.4 394.18 155.493 394.18 155.68C394.18 155.733 394.153 155.827 394.1 155.96L390.34 163.98C389.82 165.073 389.38 165.9 389.02 166.46C388.673 167.02 388.273 167.433 387.82 167.7C387.38 167.98 386.827 168.12 386.16 168.12ZM399.895 165.3C399.095 165.3 398.315 165.213 397.555 165.04C396.795 164.88 396.141 164.633 395.595 164.3C395.421 164.207 395.335 164.107 395.335 164C395.335 163.92 395.361 163.847 395.415 163.78L395.975 162.8C396.041 162.68 396.108 162.62 396.175 162.62C396.241 162.62 396.328 162.653 396.435 162.72C396.835 162.96 397.328 163.16 397.915 163.32C398.501 163.48 399.041 163.56 399.535 163.56C400.295 163.56 400.835 163.487 401.155 163.34C401.488 163.18 401.655 162.9 401.655 162.5C401.655 162.273 401.588 162.093 401.455 161.96C401.335 161.813 401.148 161.687 400.895 161.58C400.641 161.473 400.221 161.327 399.635 161.14C399.635 161.14 399.415 161.067 398.975 160.92C398.215 160.667 397.608 160.42 397.155 160.18C396.701 159.94 396.348 159.64 396.095 159.28C395.855 158.907 395.735 158.44 395.735 157.88C395.735 156.973 396.115 156.287 396.875 155.82C397.648 155.34 398.648 155.1 399.875 155.1C401.368 155.1 402.655 155.42 403.735 156.06C403.908 156.153 403.995 156.253 403.995 156.36C403.995 156.427 403.961 156.513 403.895 156.62L403.355 157.48C403.275 157.6 403.208 157.66 403.155 157.66C403.101 157.66 403.021 157.627 402.915 157.56C402.568 157.347 402.148 157.18 401.655 157.06C401.175 156.927 400.688 156.86 400.195 156.86C399.528 156.86 399.035 156.933 398.715 157.08C398.408 157.213 398.255 157.48 398.255 157.88C398.255 158.227 398.435 158.5 398.795 158.7C399.168 158.9 399.808 159.14 400.715 159.42L401.375 159.62C402.415 159.953 403.141 160.347 403.555 160.8C403.981 161.253 404.195 161.82 404.195 162.5C404.195 163.327 403.828 164 403.095 164.52C402.375 165.04 401.308 165.3 399.895 165.3ZM407.164 153.74C406.844 153.74 406.598 153.647 406.424 153.46C406.251 153.273 406.164 153.047 406.164 152.78V152.36C406.164 152.093 406.251 151.867 406.424 151.68C406.598 151.493 406.844 151.4 407.164 151.4H408.024C408.344 151.4 408.591 151.493 408.764 151.68C408.951 151.867 409.044 152.093 409.044 152.36V152.78C409.044 153.047 408.951 153.273 408.764 153.46C408.591 153.647 408.344 153.74 408.024 153.74H407.164ZM407.084 165C406.818 165 406.624 164.94 406.504 164.82C406.384 164.7 406.324 164.52 406.324 164.28V156.14C406.324 155.887 406.384 155.7 406.504 155.58C406.624 155.46 406.818 155.4 407.084 155.4H408.124C408.391 155.4 408.584 155.46 408.704 155.58C408.824 155.7 408.884 155.887 408.884 156.14V164.28C408.884 164.52 408.824 164.7 408.704 164.82C408.598 164.94 408.404 165 408.124 165H407.084ZM415.559 165.3C414.759 165.3 413.979 165.213 413.219 165.04C412.459 164.88 411.805 164.633 411.259 164.3C411.085 164.207 410.999 164.107 410.999 164C410.999 163.92 411.025 163.847 411.079 163.78L411.639 162.8C411.705 162.68 411.772 162.62 411.839 162.62C411.905 162.62 411.992 162.653 412.099 162.72C412.499 162.96 412.992 163.16 413.579 163.32C414.165 163.48 414.705 163.56 415.199 163.56C415.959 163.56 416.499 163.487 416.819 163.34C417.152 163.18 417.319 162.9 417.319 162.5C417.319 162.273 417.252 162.093 417.119 161.96C416.999 161.813 416.812 161.687 416.559 161.58C416.305 161.473 415.885 161.327 415.299 161.14C415.299 161.14 415.079 161.067 414.639 160.92C413.879 160.667 413.272 160.42 412.819 160.18C412.365 159.94 412.012 159.64 411.759 159.28C411.519 158.907 411.399 158.44 411.399 157.88C411.399 156.973 411.779 156.287 412.539 155.82C413.312 155.34 414.312 155.1 415.539 155.1C417.032 155.1 418.319 155.42 419.399 156.06C419.572 156.153 419.659 156.253 419.659 156.36C419.659 156.427 419.625 156.513 419.559 156.62L419.019 157.48C418.939 157.6 418.872 157.66 418.819 157.66C418.765 157.66 418.685 157.627 418.579 157.56C418.232 157.347 417.812 157.18 417.319 157.06C416.839 156.927 416.352 156.86 415.859 156.86C415.192 156.86 414.699 156.933 414.379 157.08C414.072 157.213 413.919 157.48 413.919 157.88C413.919 158.227 414.099 158.5 414.459 158.7C414.832 158.9 415.472 159.14 416.379 159.42L417.039 159.62C418.079 159.953 418.805 160.347 419.219 160.8C419.645 161.253 419.859 161.82 419.859 162.5C419.859 163.327 419.492 164 418.759 164.52C418.039 165.04 416.972 165.3 415.559 165.3Z" fill="#2F4558"/>
</svg>
