<svg width="452" height="180" viewBox="0 0 452 180" fill="none" xmlns="http://www.w3.org/2000/svg">
<rect width="452" height="180" fill="white"/>
<path d="M35.8888 167.991C35.6221 167.991 35.4288 167.931 35.3088 167.811C35.2021 167.691 35.1488 167.511 35.1488 167.271V155.131C35.1488 154.878 35.2021 154.691 35.3088 154.571C35.4288 154.451 35.6221 154.391 35.8888 154.391H41.6688C43.0554 154.391 44.1021 154.724 44.8088 155.391C45.5288 156.058 45.8888 156.958 45.8888 158.091C45.8888 158.731 45.7288 159.304 45.4088 159.811C45.0888 160.318 44.6421 160.691 44.0687 160.931C45.5488 161.398 46.2888 162.438 46.2888 164.051C46.2888 164.798 46.1154 165.471 45.7688 166.071C45.4354 166.658 44.9287 167.124 44.2487 167.471C43.5688 167.818 42.7288 167.991 41.7288 167.991H35.8888ZM41.3088 160.071C41.9621 160.071 42.4621 159.904 42.8088 159.571C43.1688 159.238 43.3488 158.771 43.3488 158.171C43.3488 157.518 43.1821 157.051 42.8488 156.771C42.5288 156.478 42.0088 156.331 41.2888 156.331H37.7088V160.071H41.3088ZM41.6088 166.051C42.3421 166.051 42.8821 165.864 43.2288 165.491C43.5754 165.104 43.7488 164.611 43.7488 164.011C43.7488 163.318 43.5354 162.798 43.1088 162.451C42.6954 162.091 42.1154 161.911 41.3688 161.911H37.7088V166.051H41.6088ZM51.7942 168.291C50.7009 168.291 49.8209 167.991 49.1542 167.391C48.4876 166.778 48.1542 165.871 48.1542 164.671V159.131C48.1542 158.878 48.2076 158.691 48.3142 158.571C48.4342 158.451 48.6276 158.391 48.8942 158.391H49.9542C50.2209 158.391 50.4142 158.451 50.5342 158.571C50.6542 158.691 50.7142 158.878 50.7142 159.131V164.611C50.7142 165.251 50.8809 165.724 51.2142 166.031C51.5476 166.324 52.0409 166.471 52.6942 166.471C53.3876 166.471 53.9676 166.278 54.4342 165.891C54.9009 165.504 55.1342 165.004 55.1342 164.391V159.131C55.1342 158.878 55.1942 158.691 55.3142 158.571C55.4342 158.451 55.6276 158.391 55.8942 158.391H56.9342C57.2009 158.391 57.3942 158.451 57.5142 158.571C57.6342 158.691 57.6942 158.878 57.6942 159.131V167.451C57.6942 167.664 57.6609 167.811 57.5942 167.891C57.5276 167.958 57.3876 167.991 57.1742 167.991H56.0542C55.9076 167.991 55.8009 167.964 55.7342 167.911C55.6676 167.844 55.6276 167.744 55.6142 167.611L55.5342 166.771C54.6276 167.784 53.3809 168.291 51.7942 168.291ZM61.0511 156.731C60.7311 156.731 60.4844 156.638 60.3111 156.451C60.1378 156.264 60.0511 156.038 60.0511 155.771V155.351C60.0511 155.084 60.1378 154.858 60.3111 154.671C60.4844 154.484 60.7311 154.391 61.0511 154.391H61.9111C62.2311 154.391 62.4778 154.484 62.6511 154.671C62.8378 154.858 62.9311 155.084 62.9311 155.351V155.771C62.9311 156.038 62.8378 156.264 62.6511 156.451C62.4778 156.638 62.2311 156.731 61.9111 156.731H61.0511ZM60.9711 167.991C60.7044 167.991 60.5111 167.931 60.3911 167.811C60.2711 167.691 60.2111 167.511 60.2111 167.271V159.131C60.2111 158.878 60.2711 158.691 60.3911 158.571C60.5111 158.451 60.7044 158.391 60.9711 158.391H62.0111C62.2778 158.391 62.4711 158.451 62.5911 158.571C62.7111 158.691 62.7711 158.878 62.7711 159.131V167.271C62.7711 167.511 62.7111 167.691 62.5911 167.811C62.4844 167.931 62.2911 167.991 62.0111 167.991H60.9711ZM66.0255 167.991C65.7588 167.991 65.5655 167.931 65.4455 167.811C65.3388 167.691 65.2855 167.511 65.2855 167.271V155.131C65.2855 154.878 65.3388 154.691 65.4455 154.571C65.5655 154.451 65.7588 154.391 66.0255 154.391H67.0855C67.3521 154.391 67.5455 154.451 67.6655 154.571C67.7855 154.691 67.8455 154.878 67.8455 155.131V167.271C67.8455 167.511 67.7855 167.691 67.6655 167.811C67.5588 167.931 67.3655 167.991 67.0855 167.991H66.0255ZM75.4873 168.291C71.7007 168.291 69.8073 166.584 69.8073 163.171C69.8073 162.171 70.0007 161.291 70.3873 160.531C70.774 159.758 71.3273 159.158 72.0473 158.731C72.7807 158.304 73.6407 158.091 74.6273 158.091C76.0273 158.091 77.0407 158.404 77.6673 159.031V155.131C77.6673 154.878 77.7273 154.691 77.8473 154.571C77.9673 154.451 78.1607 154.391 78.4273 154.391H79.4273C79.694 154.391 79.8873 154.451 80.0073 154.571C80.1273 154.691 80.1873 154.878 80.1873 155.131V166.991C79.6807 167.364 79.0007 167.678 78.1473 167.931C77.294 168.171 76.4073 168.291 75.4873 168.291ZM75.5473 166.471C76.4407 166.471 77.1473 166.311 77.6673 165.991V161.911C77.6673 161.258 77.4407 160.764 76.9873 160.431C76.534 160.098 75.9473 159.931 75.2273 159.931C74.254 159.931 73.5273 160.224 73.0473 160.811C72.5673 161.398 72.3273 162.204 72.3273 163.231C72.3273 164.378 72.594 165.204 73.1273 165.711C73.6607 166.218 74.4673 166.471 75.5473 166.471ZM83.5511 156.731C83.2311 156.731 82.9844 156.638 82.8111 156.451C82.6378 156.264 82.5511 156.038 82.5511 155.771V155.351C82.5511 155.084 82.6378 154.858 82.8111 154.671C82.9844 154.484 83.2311 154.391 83.5511 154.391H84.4111C84.7311 154.391 84.9778 154.484 85.1511 154.671C85.3378 154.858 85.4311 155.084 85.4311 155.351V155.771C85.4311 156.038 85.3378 156.264 85.1511 156.451C84.9778 156.638 84.7311 156.731 84.4111 156.731H83.5511ZM83.4711 167.991C83.2044 167.991 83.0111 167.931 82.8911 167.811C82.7711 167.691 82.7111 167.511 82.7111 167.271V159.131C82.7111 158.878 82.7711 158.691 82.8911 158.571C83.0111 158.451 83.2044 158.391 83.4711 158.391H84.5111C84.7778 158.391 84.9711 158.451 85.0911 158.571C85.2111 158.691 85.2711 158.878 85.2711 159.131V167.271C85.2711 167.511 85.2111 167.691 85.0911 167.811C84.9844 167.931 84.7911 167.991 84.5111 167.991H83.4711ZM88.5455 167.991C88.2788 167.991 88.0855 167.931 87.9655 167.811C87.8455 167.691 87.7855 167.511 87.7855 167.271V158.931C87.7855 158.731 87.8188 158.591 87.8855 158.511C87.9521 158.431 88.0921 158.391 88.3055 158.391H89.4455C89.7388 158.391 89.8921 158.524 89.9055 158.791L89.9455 159.591C90.8521 158.591 92.1521 158.091 93.8455 158.091C94.9255 158.091 95.7921 158.384 96.4455 158.971C97.1121 159.544 97.4455 160.411 97.4455 161.571V167.271C97.4455 167.511 97.3855 167.691 97.2655 167.811C97.1588 167.931 96.9721 167.991 96.7055 167.991H95.6455C95.3788 167.991 95.1855 167.931 95.0655 167.811C94.9455 167.691 94.8855 167.511 94.8855 167.271V161.731C94.8855 161.078 94.7321 160.618 94.4255 160.351C94.1321 160.071 93.6521 159.931 92.9855 159.931C92.2788 159.931 91.6588 160.124 91.1255 160.511C90.6055 160.884 90.3455 161.371 90.3455 161.971V167.271C90.3455 167.511 90.2855 167.691 90.1655 167.811C90.0588 167.931 89.8655 167.991 89.5855 167.991H88.5455ZM104.8 171.391C104.026 171.391 103.273 171.318 102.54 171.171C101.806 171.024 101.246 170.831 100.86 170.591C100.646 170.471 100.593 170.324 100.7 170.151L101.28 169.171C101.36 169.038 101.44 168.971 101.52 168.971C101.573 168.971 101.64 168.991 101.72 169.031C102.453 169.404 103.406 169.591 104.58 169.591C105.473 169.591 106.126 169.378 106.54 168.951C106.953 168.524 107.16 167.804 107.16 166.791C106.786 167.191 106.346 167.491 105.84 167.691C105.346 167.878 104.746 167.971 104.04 167.971C102.546 167.971 101.38 167.564 100.54 166.751C99.7129 165.938 99.2995 164.791 99.2995 163.311C99.2995 161.631 99.7929 160.344 100.78 159.451C101.78 158.544 103.22 158.091 105.1 158.091C105.966 158.091 106.813 158.211 107.64 158.451C108.48 158.691 109.16 158.991 109.68 159.351V166.211C109.68 167.824 109.286 169.091 108.5 170.011C107.713 170.931 106.48 171.391 104.8 171.391ZM104.64 166.091C105.386 166.091 105.993 165.898 106.46 165.511C106.926 165.111 107.16 164.564 107.16 163.871V160.311C106.906 160.191 106.586 160.098 106.2 160.031C105.813 159.964 105.406 159.931 104.98 159.931C102.873 159.931 101.82 161.004 101.82 163.151C101.82 164.138 102.053 164.878 102.52 165.371C102.986 165.851 103.693 166.091 104.64 166.091ZM120.576 167.991C120.31 167.991 120.116 167.931 119.996 167.811C119.89 167.691 119.836 167.511 119.836 167.271V155.131C119.836 154.878 119.89 154.691 119.996 154.571C120.116 154.451 120.31 154.391 120.576 154.391H128.896C129.163 154.391 129.343 154.444 129.436 154.551C129.543 154.658 129.596 154.838 129.596 155.091V155.631C129.596 155.884 129.543 156.071 129.436 156.191C129.343 156.298 129.163 156.351 128.896 156.351H122.396V160.231H127.116C127.383 160.231 127.57 160.284 127.676 160.391C127.783 160.498 127.836 160.678 127.836 160.931V161.431C127.836 161.684 127.783 161.871 127.676 161.991C127.57 162.098 127.383 162.151 127.116 162.151H122.396V166.051H128.876C129.143 166.051 129.33 166.111 129.436 166.231C129.543 166.338 129.596 166.518 129.596 166.771V167.311C129.596 167.551 129.543 167.724 129.436 167.831C129.33 167.938 129.143 167.991 128.876 167.991H120.576ZM132.12 167.991C131.853 167.991 131.66 167.931 131.54 167.811C131.42 167.691 131.36 167.511 131.36 167.271V158.931C131.36 158.731 131.393 158.591 131.46 158.511C131.526 158.431 131.666 158.391 131.88 158.391H133.02C133.313 158.391 133.466 158.524 133.48 158.791L133.52 159.591C134.426 158.591 135.726 158.091 137.42 158.091C138.5 158.091 139.366 158.384 140.02 158.971C140.686 159.544 141.02 160.411 141.02 161.571V167.271C141.02 167.511 140.96 167.691 140.84 167.811C140.733 167.931 140.546 167.991 140.28 167.991H139.22C138.953 167.991 138.76 167.931 138.64 167.811C138.52 167.691 138.46 167.511 138.46 167.271V161.731C138.46 161.078 138.306 160.618 138 160.351C137.706 160.071 137.226 159.931 136.56 159.931C135.853 159.931 135.233 160.124 134.7 160.511C134.18 160.884 133.92 161.371 133.92 161.971V167.271C133.92 167.511 133.86 167.691 133.74 167.811C133.633 167.931 133.44 167.991 133.16 167.991H132.12ZM147.146 167.991C146.959 167.991 146.819 167.958 146.726 167.891C146.633 167.811 146.539 167.678 146.446 167.491L142.426 158.951C142.386 158.871 142.366 158.791 142.366 158.711C142.366 158.618 142.393 158.544 142.446 158.491C142.513 158.424 142.599 158.391 142.706 158.391H144.366C144.539 158.391 144.666 158.424 144.746 158.491C144.826 158.544 144.899 158.651 144.966 158.811L147.646 165.051L150.326 158.811C150.393 158.664 150.466 158.558 150.546 158.491C150.639 158.424 150.773 158.391 150.946 158.391H152.606C152.713 158.391 152.793 158.424 152.846 158.491C152.913 158.544 152.946 158.618 152.946 158.711C152.946 158.791 152.926 158.871 152.886 158.951L148.866 167.491C148.773 167.678 148.679 167.811 148.586 167.891C148.493 167.958 148.353 167.991 148.166 167.991H147.146ZM158.59 168.291C157.55 168.291 156.61 168.118 155.77 167.771C154.93 167.411 154.257 166.864 153.75 166.131C153.257 165.384 153.01 164.458 153.01 163.351C153.01 161.631 153.47 160.324 154.39 159.431C155.31 158.538 156.617 158.091 158.31 158.091C159.99 158.091 161.257 158.524 162.11 159.391C162.977 160.258 163.41 161.511 163.41 163.151C163.41 163.618 163.197 163.851 162.77 163.851H155.43C155.43 164.731 155.737 165.411 156.35 165.891C156.964 166.358 157.817 166.591 158.91 166.591C159.964 166.591 160.91 166.351 161.75 165.871C161.844 165.818 161.917 165.791 161.97 165.791C162.064 165.791 162.137 165.851 162.19 165.971L162.67 166.831C162.71 166.911 162.73 166.984 162.73 167.051C162.73 167.144 162.67 167.231 162.55 167.311C162.004 167.644 161.41 167.891 160.77 168.051C160.144 168.211 159.417 168.291 158.59 168.291ZM161.09 162.371C161.09 161.544 160.857 160.898 160.39 160.431C159.937 159.964 159.25 159.731 158.33 159.731C157.397 159.731 156.677 159.971 156.17 160.451C155.677 160.931 155.43 161.571 155.43 162.371H161.09ZM166.104 167.991C165.837 167.991 165.644 167.931 165.524 167.811C165.417 167.691 165.364 167.511 165.364 167.271V155.131C165.364 154.878 165.417 154.691 165.524 154.571C165.644 154.451 165.837 154.391 166.104 154.391H167.164C167.43 154.391 167.624 154.451 167.744 154.571C167.864 154.691 167.924 154.878 167.924 155.131V167.271C167.924 167.511 167.864 167.691 167.744 167.811C167.637 167.931 167.444 167.991 167.164 167.991H166.104ZM175.305 168.291C173.572 168.291 172.232 167.838 171.285 166.931C170.352 166.011 169.885 164.764 169.885 163.191C169.885 161.618 170.352 160.378 171.285 159.471C172.232 158.551 173.572 158.091 175.305 158.091C177.039 158.091 178.379 158.551 179.325 159.471C180.272 160.378 180.745 161.618 180.745 163.191C180.745 164.764 180.272 166.011 179.325 166.931C178.379 167.838 177.039 168.291 175.305 168.291ZM175.305 166.411C176.252 166.411 176.972 166.138 177.465 165.591C177.959 165.044 178.205 164.244 178.205 163.191C178.205 162.151 177.959 161.364 177.465 160.831C176.972 160.284 176.252 160.011 175.305 160.011C174.372 160.011 173.652 160.284 173.145 160.831C172.652 161.364 172.405 162.151 172.405 163.191C172.405 164.231 172.652 165.031 173.145 165.591C173.652 166.138 174.372 166.411 175.305 166.411ZM183.447 172.031C183.181 172.031 182.987 171.971 182.867 171.851C182.761 171.731 182.707 171.551 182.707 171.311V159.351C183.214 158.991 183.887 158.691 184.727 158.451C185.581 158.211 186.434 158.091 187.287 158.091C191.154 158.091 193.087 159.798 193.087 163.211C193.087 164.784 192.661 166.024 191.807 166.931C190.967 167.838 189.807 168.291 188.327 168.291C186.981 168.291 185.947 167.904 185.227 167.131V171.311C185.227 171.564 185.167 171.744 185.047 171.851C184.941 171.971 184.747 172.031 184.467 172.031H183.447ZM187.727 166.471C188.674 166.471 189.381 166.184 189.847 165.611C190.314 165.038 190.547 164.211 190.547 163.131C190.547 161.971 190.274 161.151 189.727 160.671C189.181 160.178 188.341 159.931 187.207 159.931C186.367 159.931 185.707 160.058 185.227 160.311V164.251C185.227 164.931 185.467 165.471 185.947 165.871C186.427 166.271 187.021 166.471 187.727 166.471ZM209.564 168.291C207.297 168.291 205.544 167.678 204.304 166.451C203.064 165.224 202.444 163.471 202.444 161.191C202.444 158.911 203.051 157.158 204.264 155.931C205.491 154.704 207.237 154.091 209.504 154.091C210.411 154.091 211.251 154.184 212.024 154.371C212.797 154.558 213.451 154.824 213.984 155.171C214.104 155.251 214.164 155.338 214.164 155.431C214.164 155.511 214.131 155.604 214.064 155.711L213.504 156.671C213.424 156.791 213.351 156.851 213.284 156.851C213.231 156.851 213.137 156.818 213.004 156.751C212.164 156.244 211.091 155.991 209.784 155.991C208.277 155.991 207.097 156.424 206.244 157.291C205.391 158.158 204.964 159.458 204.964 161.191C204.964 162.951 205.404 164.264 206.284 165.131C207.164 165.984 208.351 166.411 209.844 166.411C211.231 166.411 212.371 166.151 213.264 165.631C213.397 165.564 213.484 165.531 213.524 165.531C213.604 165.531 213.684 165.591 213.764 165.711L214.384 166.751C214.424 166.831 214.444 166.898 214.444 166.951C214.444 167.031 214.371 167.118 214.224 167.211C213.197 167.931 211.644 168.291 209.564 168.291ZM220.501 168.291C218.767 168.291 217.427 167.838 216.481 166.931C215.547 166.011 215.081 164.764 215.081 163.191C215.081 161.618 215.547 160.378 216.481 159.471C217.427 158.551 218.767 158.091 220.501 158.091C222.234 158.091 223.574 158.551 224.521 159.471C225.467 160.378 225.941 161.618 225.941 163.191C225.941 164.764 225.467 166.011 224.521 166.931C223.574 167.838 222.234 168.291 220.501 168.291ZM220.501 166.411C221.447 166.411 222.167 166.138 222.661 165.591C223.154 165.044 223.401 164.244 223.401 163.191C223.401 162.151 223.154 161.364 222.661 160.831C222.167 160.284 221.447 160.011 220.501 160.011C219.567 160.011 218.847 160.284 218.341 160.831C217.847 161.364 217.601 162.151 217.601 163.191C217.601 164.231 217.847 165.031 218.341 165.591C218.847 166.138 219.567 166.411 220.501 166.411ZM228.663 167.991C228.396 167.991 228.203 167.931 228.083 167.811C227.963 167.691 227.903 167.511 227.903 167.271V158.931C227.903 158.731 227.936 158.591 228.003 158.511C228.069 158.431 228.209 158.391 228.423 158.391H229.483C229.629 158.391 229.736 158.424 229.803 158.491C229.869 158.544 229.909 158.644 229.923 158.791L229.983 159.631C230.369 159.138 230.809 158.758 231.303 158.491C231.809 158.224 232.409 158.091 233.103 158.091C233.689 158.091 234.196 158.224 234.623 158.491C235.063 158.744 235.383 159.124 235.583 159.631C236.316 158.604 237.376 158.091 238.763 158.091C239.709 158.091 240.456 158.378 241.003 158.951C241.563 159.524 241.843 160.378 241.843 161.511V167.271C241.843 167.511 241.783 167.691 241.663 167.811C241.556 167.931 241.363 167.991 241.083 167.991H240.203C239.936 167.991 239.743 167.931 239.623 167.811C239.503 167.691 239.443 167.511 239.443 167.271V161.651C239.443 161.038 239.309 160.598 239.043 160.331C238.789 160.064 238.403 159.931 237.883 159.931C237.336 159.931 236.889 160.111 236.543 160.471C236.209 160.831 236.043 161.318 236.043 161.931V167.271C236.043 167.511 235.983 167.691 235.863 167.811C235.743 167.931 235.549 167.991 235.283 167.991H234.463C234.196 167.991 234.003 167.931 233.883 167.811C233.763 167.691 233.703 167.511 233.703 167.271V161.551C233.703 160.991 233.583 160.584 233.343 160.331C233.116 160.064 232.749 159.931 232.243 159.931C231.669 159.931 231.203 160.124 230.843 160.511C230.483 160.884 230.303 161.378 230.303 161.991V167.271C230.303 167.511 230.243 167.691 230.123 167.811C230.016 167.931 229.823 167.991 229.543 167.991H228.663ZM244.834 172.031C244.567 172.031 244.374 171.971 244.254 171.851C244.147 171.731 244.094 171.551 244.094 171.311V159.351C244.601 158.991 245.274 158.691 246.114 158.451C246.967 158.211 247.821 158.091 248.674 158.091C252.541 158.091 254.474 159.798 254.474 163.211C254.474 164.784 254.047 166.024 253.194 166.931C252.354 167.838 251.194 168.291 249.714 168.291C248.367 168.291 247.334 167.904 246.614 167.131V171.311C246.614 171.564 246.554 171.744 246.434 171.851C246.327 171.971 246.134 172.031 245.854 172.031H244.834ZM249.114 166.471C250.061 166.471 250.767 166.184 251.234 165.611C251.701 165.038 251.934 164.211 251.934 163.131C251.934 161.971 251.661 161.151 251.114 160.671C250.567 160.178 249.727 159.931 248.594 159.931C247.754 159.931 247.094 160.058 246.614 160.311V164.251C246.614 164.931 246.854 165.471 247.334 165.871C247.814 166.271 248.407 166.471 249.114 166.471ZM260.95 168.291C259.217 168.291 257.877 167.838 256.93 166.931C255.997 166.011 255.53 164.764 255.53 163.191C255.53 161.618 255.997 160.378 256.93 159.471C257.877 158.551 259.217 158.091 260.95 158.091C262.683 158.091 264.023 158.551 264.97 159.471C265.917 160.378 266.39 161.618 266.39 163.191C266.39 164.764 265.917 166.011 264.97 166.931C264.023 167.838 262.683 168.291 260.95 168.291ZM260.95 166.411C261.897 166.411 262.617 166.138 263.11 165.591C263.603 165.044 263.85 164.244 263.85 163.191C263.85 162.151 263.603 161.364 263.11 160.831C262.617 160.284 261.897 160.011 260.95 160.011C260.017 160.011 259.297 160.284 258.79 160.831C258.297 161.364 258.05 162.151 258.05 163.191C258.05 164.231 258.297 165.031 258.79 165.591C259.297 166.138 260.017 166.411 260.95 166.411ZM269.112 167.991C268.845 167.991 268.652 167.931 268.532 167.811C268.412 167.691 268.352 167.511 268.352 167.271V158.931C268.352 158.731 268.385 158.591 268.452 158.511C268.519 158.431 268.659 158.391 268.872 158.391H270.012C270.305 158.391 270.459 158.524 270.472 158.791L270.512 159.591C271.419 158.591 272.719 158.091 274.412 158.091C275.492 158.091 276.359 158.384 277.012 158.971C277.679 159.544 278.012 160.411 278.012 161.571V167.271C278.012 167.511 277.952 167.691 277.832 167.811C277.725 167.931 277.539 167.991 277.272 167.991H276.212C275.945 167.991 275.752 167.931 275.632 167.811C275.512 167.691 275.452 167.511 275.452 167.271V161.731C275.452 161.078 275.299 160.618 274.992 160.351C274.699 160.071 274.219 159.931 273.552 159.931C272.845 159.931 272.225 160.124 271.692 160.511C271.172 160.884 270.912 161.371 270.912 161.971V167.271C270.912 167.511 270.852 167.691 270.732 167.811C270.625 167.931 270.432 167.991 270.152 167.991H269.112ZM285.446 168.291C284.406 168.291 283.466 168.118 282.626 167.771C281.786 167.411 281.113 166.864 280.606 166.131C280.113 165.384 279.866 164.458 279.866 163.351C279.866 161.631 280.326 160.324 281.246 159.431C282.166 158.538 283.473 158.091 285.166 158.091C286.846 158.091 288.113 158.524 288.966 159.391C289.833 160.258 290.266 161.511 290.266 163.151C290.266 163.618 290.053 163.851 289.626 163.851H282.286C282.286 164.731 282.593 165.411 283.206 165.891C283.819 166.358 284.673 166.591 285.766 166.591C286.819 166.591 287.766 166.351 288.606 165.871C288.699 165.818 288.773 165.791 288.826 165.791C288.919 165.791 288.993 165.851 289.046 165.971L289.526 166.831C289.566 166.911 289.586 166.984 289.586 167.051C289.586 167.144 289.526 167.231 289.406 167.311C288.859 167.644 288.266 167.891 287.626 168.051C286.999 168.211 286.273 168.291 285.446 168.291ZM287.946 162.371C287.946 161.544 287.713 160.898 287.246 160.431C286.793 159.964 286.106 159.731 285.186 159.731C284.253 159.731 283.533 159.971 283.026 160.451C282.533 160.931 282.286 161.571 282.286 162.371H287.946ZM292.979 167.991C292.712 167.991 292.519 167.931 292.399 167.811C292.279 167.691 292.219 167.511 292.219 167.271V158.931C292.219 158.731 292.252 158.591 292.319 158.511C292.386 158.431 292.526 158.391 292.739 158.391H293.879C294.172 158.391 294.326 158.524 294.339 158.791L294.379 159.591C295.286 158.591 296.586 158.091 298.279 158.091C299.359 158.091 300.226 158.384 300.879 158.971C301.546 159.544 301.879 160.411 301.879 161.571V167.271C301.879 167.511 301.819 167.691 301.699 167.811C301.592 167.931 301.406 167.991 301.139 167.991H300.079C299.812 167.991 299.619 167.931 299.499 167.811C299.379 167.691 299.319 167.511 299.319 167.271V161.731C299.319 161.078 299.166 160.618 298.859 160.351C298.566 160.071 298.086 159.931 297.419 159.931C296.712 159.931 296.092 160.124 295.559 160.511C295.039 160.884 294.779 161.371 294.779 161.971V167.271C294.779 167.511 294.719 167.691 294.599 167.811C294.492 167.931 294.299 167.991 294.019 167.991H292.979ZM308.553 168.291C307.42 168.291 306.566 167.978 305.993 167.351C305.42 166.724 305.133 165.858 305.133 164.751V160.271H303.993C303.726 160.271 303.546 160.224 303.453 160.131C303.373 160.038 303.333 159.864 303.333 159.611V159.071C303.333 158.818 303.373 158.644 303.453 158.551C303.546 158.444 303.726 158.391 303.993 158.391H305.133V157.291C305.133 157.011 305.18 156.751 305.273 156.511C305.38 156.258 305.54 155.944 305.753 155.571C305.833 155.411 305.906 155.311 305.973 155.271C306.053 155.218 306.186 155.191 306.373 155.191H307.033C307.273 155.191 307.44 155.251 307.533 155.371C307.64 155.478 307.693 155.644 307.693 155.871V158.391H310.053C310.32 158.391 310.493 158.444 310.573 158.551C310.666 158.644 310.713 158.818 310.713 159.071V159.611C310.713 159.864 310.666 160.038 310.573 160.131C310.493 160.224 310.32 160.271 310.053 160.271H307.693V164.671C307.693 165.284 307.8 165.731 308.013 166.011C308.226 166.278 308.593 166.411 309.113 166.411C309.42 166.411 309.68 166.378 309.893 166.311C310.106 166.231 310.34 166.104 310.593 165.931C310.66 165.878 310.733 165.851 310.813 165.851C310.893 165.851 310.973 165.911 311.053 166.031L311.633 166.991C311.686 167.058 311.713 167.131 311.713 167.211C311.713 167.304 311.646 167.398 311.513 167.491C310.686 168.024 309.7 168.291 308.553 168.291ZM316.926 168.291C316.126 168.291 315.346 168.204 314.586 168.031C313.826 167.871 313.173 167.624 312.626 167.291C312.453 167.198 312.366 167.098 312.366 166.991C312.366 166.911 312.393 166.838 312.446 166.771L313.006 165.791C313.073 165.671 313.139 165.611 313.206 165.611C313.273 165.611 313.359 165.644 313.466 165.711C313.866 165.951 314.359 166.151 314.946 166.311C315.533 166.471 316.073 166.551 316.566 166.551C317.326 166.551 317.866 166.478 318.186 166.331C318.519 166.171 318.686 165.891 318.686 165.491C318.686 165.264 318.619 165.084 318.486 164.951C318.366 164.804 318.179 164.678 317.926 164.571C317.673 164.464 317.253 164.318 316.666 164.131C316.666 164.131 316.446 164.058 316.006 163.911C315.246 163.658 314.639 163.411 314.186 163.171C313.733 162.931 313.379 162.631 313.126 162.271C312.886 161.898 312.766 161.431 312.766 160.871C312.766 159.964 313.146 159.278 313.906 158.811C314.679 158.331 315.679 158.091 316.906 158.091C318.399 158.091 319.686 158.411 320.766 159.051C320.939 159.144 321.026 159.244 321.026 159.351C321.026 159.418 320.993 159.504 320.926 159.611L320.386 160.471C320.306 160.591 320.239 160.651 320.186 160.651C320.133 160.651 320.053 160.618 319.946 160.551C319.599 160.338 319.179 160.171 318.686 160.051C318.206 159.918 317.719 159.851 317.226 159.851C316.559 159.851 316.066 159.924 315.746 160.071C315.439 160.204 315.286 160.471 315.286 160.871C315.286 161.218 315.466 161.491 315.826 161.691C316.199 161.891 316.839 162.131 317.746 162.411L318.406 162.611C319.446 162.944 320.173 163.338 320.586 163.791C321.013 164.244 321.226 164.811 321.226 165.491C321.226 166.318 320.859 166.991 320.126 167.511C319.406 168.031 318.339 168.291 316.926 168.291ZM330.929 167.991C330.702 167.991 330.589 167.891 330.589 167.691C330.589 167.611 330.609 167.524 330.649 167.431L335.929 154.911C336.009 154.711 336.095 154.578 336.189 154.511C336.282 154.431 336.415 154.391 336.589 154.391H337.689C337.875 154.391 338.009 154.431 338.089 154.511C338.182 154.578 338.269 154.711 338.349 154.911L343.629 167.431C343.669 167.524 343.689 167.611 343.689 167.691C343.689 167.891 343.575 167.991 343.349 167.991H341.609C341.435 167.991 341.309 167.971 341.229 167.931C341.162 167.878 341.095 167.778 341.029 167.631L339.889 164.831H334.369L333.249 167.631C333.182 167.778 333.109 167.878 333.029 167.931C332.962 167.971 332.842 167.991 332.669 167.991H330.929ZM339.249 162.971L337.129 157.731L335.009 162.971H339.249ZM346.417 167.991C346.15 167.991 345.957 167.931 345.837 167.811C345.717 167.691 345.657 167.511 345.657 167.271V158.931C345.657 158.731 345.69 158.591 345.757 158.511C345.823 158.431 345.963 158.391 346.177 158.391H347.317C347.61 158.391 347.763 158.524 347.777 158.791L347.817 159.591C348.723 158.591 350.023 158.091 351.717 158.091C352.797 158.091 353.663 158.384 354.317 158.971C354.983 159.544 355.317 160.411 355.317 161.571V167.271C355.317 167.511 355.257 167.691 355.137 167.811C355.03 167.931 354.843 167.991 354.577 167.991H353.517C353.25 167.991 353.057 167.931 352.937 167.811C352.817 167.691 352.757 167.511 352.757 167.271V161.731C352.757 161.078 352.603 160.618 352.297 160.351C352.003 160.071 351.523 159.931 350.857 159.931C350.15 159.931 349.53 160.124 348.997 160.511C348.477 160.884 348.217 161.371 348.217 161.971V167.271C348.217 167.511 348.157 167.691 348.037 167.811C347.93 167.931 347.737 167.991 347.457 167.991H346.417ZM361.158 168.291C359.851 168.291 358.811 167.898 358.038 167.111C357.264 166.311 356.878 165.191 356.878 163.751C356.878 162.631 357.124 161.644 357.618 160.791C358.111 159.924 358.811 159.258 359.718 158.791C360.638 158.324 361.704 158.091 362.918 158.091C364.611 158.091 366.044 158.491 367.218 159.291V167.451C367.218 167.651 367.171 167.791 367.078 167.871C366.998 167.951 366.851 167.991 366.638 167.991H365.538C365.391 167.991 365.278 167.964 365.198 167.911C365.131 167.844 365.084 167.744 365.058 167.611L364.898 166.831C364.484 167.338 363.971 167.711 363.358 167.951C362.758 168.178 362.024 168.291 361.158 168.291ZM362.118 166.471C362.824 166.471 363.444 166.264 363.978 165.851C364.524 165.438 364.798 164.891 364.798 164.211V160.311C364.518 160.164 364.231 160.064 363.938 160.011C363.658 159.944 363.311 159.911 362.898 159.911C361.844 159.911 360.998 160.244 360.358 160.911C359.718 161.578 359.398 162.498 359.398 163.671C359.398 164.631 359.618 165.338 360.058 165.791C360.511 166.244 361.198 166.471 362.118 166.471ZM370.322 167.991C370.056 167.991 369.862 167.931 369.742 167.811C369.636 167.691 369.582 167.511 369.582 167.271V155.131C369.582 154.878 369.636 154.691 369.742 154.571C369.862 154.451 370.056 154.391 370.322 154.391H371.382C371.649 154.391 371.842 154.451 371.962 154.571C372.082 154.691 372.142 154.878 372.142 155.131V167.271C372.142 167.511 372.082 167.691 371.962 167.811C371.856 167.931 371.662 167.991 371.382 167.991H370.322ZM376.824 171.111C376.318 171.111 375.851 171.038 375.424 170.891C374.998 170.744 374.631 170.544 374.324 170.291C374.218 170.198 374.164 170.111 374.164 170.031C374.164 169.951 374.191 169.878 374.244 169.811L374.804 168.851C374.884 168.718 374.964 168.651 375.044 168.651C375.111 168.651 375.191 168.691 375.284 168.771C375.498 168.931 375.711 169.051 375.924 169.131C376.151 169.211 376.418 169.251 376.724 169.251C377.124 169.251 377.438 169.118 377.664 168.851C377.891 168.598 378.124 168.164 378.364 167.551L374.324 158.951C374.271 158.818 374.244 158.724 374.244 158.671C374.244 158.484 374.351 158.391 374.564 158.391H376.264C376.438 158.391 376.564 158.418 376.644 158.471C376.724 158.524 376.798 158.624 376.864 158.771L379.544 165.051L382.224 158.771C382.291 158.624 382.364 158.524 382.444 158.471C382.524 158.418 382.651 158.391 382.824 158.391H384.524C384.738 158.391 384.844 158.484 384.844 158.671C384.844 158.724 384.818 158.818 384.764 158.951L381.004 166.971C380.484 168.064 380.044 168.891 379.684 169.451C379.338 170.011 378.938 170.424 378.484 170.691C378.044 170.971 377.491 171.111 376.824 171.111ZM390.559 168.291C389.759 168.291 388.979 168.204 388.219 168.031C387.459 167.871 386.805 167.624 386.259 167.291C386.085 167.198 385.999 167.098 385.999 166.991C385.999 166.911 386.025 166.838 386.079 166.771L386.639 165.791C386.705 165.671 386.772 165.611 386.839 165.611C386.905 165.611 386.992 165.644 387.099 165.711C387.499 165.951 387.992 166.151 388.579 166.311C389.165 166.471 389.705 166.551 390.199 166.551C390.959 166.551 391.499 166.478 391.819 166.331C392.152 166.171 392.319 165.891 392.319 165.491C392.319 165.264 392.252 165.084 392.119 164.951C391.999 164.804 391.812 164.678 391.559 164.571C391.305 164.464 390.885 164.318 390.299 164.131C390.299 164.131 390.079 164.058 389.639 163.911C388.879 163.658 388.272 163.411 387.819 163.171C387.365 162.931 387.012 162.631 386.759 162.271C386.519 161.898 386.399 161.431 386.399 160.871C386.399 159.964 386.779 159.278 387.539 158.811C388.312 158.331 389.312 158.091 390.539 158.091C392.032 158.091 393.319 158.411 394.399 159.051C394.572 159.144 394.659 159.244 394.659 159.351C394.659 159.418 394.625 159.504 394.559 159.611L394.019 160.471C393.939 160.591 393.872 160.651 393.819 160.651C393.765 160.651 393.685 160.618 393.579 160.551C393.232 160.338 392.812 160.171 392.319 160.051C391.839 159.918 391.352 159.851 390.859 159.851C390.192 159.851 389.699 159.924 389.379 160.071C389.072 160.204 388.919 160.471 388.919 160.871C388.919 161.218 389.099 161.491 389.459 161.691C389.832 161.891 390.472 162.131 391.379 162.411L392.039 162.611C393.079 162.944 393.805 163.338 394.219 163.791C394.645 164.244 394.859 164.811 394.859 165.491C394.859 166.318 394.492 166.991 393.759 167.511C393.039 168.031 391.972 168.291 390.559 168.291ZM402.008 168.291C400.968 168.291 400.028 168.118 399.188 167.771C398.348 167.411 397.675 166.864 397.168 166.131C396.675 165.384 396.428 164.458 396.428 163.351C396.428 161.631 396.888 160.324 397.808 159.431C398.728 158.538 400.035 158.091 401.728 158.091C403.408 158.091 404.675 158.524 405.528 159.391C406.395 160.258 406.828 161.511 406.828 163.151C406.828 163.618 406.615 163.851 406.188 163.851H398.848C398.848 164.731 399.155 165.411 399.768 165.891C400.382 166.358 401.235 166.591 402.328 166.591C403.382 166.591 404.328 166.351 405.168 165.871C405.262 165.818 405.335 165.791 405.388 165.791C405.482 165.791 405.555 165.851 405.608 165.971L406.088 166.831C406.128 166.911 406.148 166.984 406.148 167.051C406.148 167.144 406.088 167.231 405.968 167.311C405.422 167.644 404.828 167.891 404.188 168.051C403.562 168.211 402.835 168.291 402.008 168.291ZM404.508 162.371C404.508 161.544 404.275 160.898 403.808 160.431C403.355 159.964 402.668 159.731 401.748 159.731C400.815 159.731 400.095 159.971 399.588 160.451C399.095 160.931 398.848 161.571 398.848 162.371H404.508ZM412.942 168.291C412.142 168.291 411.362 168.204 410.602 168.031C409.842 167.871 409.188 167.624 408.642 167.291C408.468 167.198 408.382 167.098 408.382 166.991C408.382 166.911 408.408 166.838 408.462 166.771L409.022 165.791C409.088 165.671 409.155 165.611 409.222 165.611C409.288 165.611 409.375 165.644 409.482 165.711C409.882 165.951 410.375 166.151 410.962 166.311C411.548 166.471 412.088 166.551 412.582 166.551C413.342 166.551 413.882 166.478 414.202 166.331C414.535 166.171 414.702 165.891 414.702 165.491C414.702 165.264 414.635 165.084 414.502 164.951C414.382 164.804 414.195 164.678 413.942 164.571C413.688 164.464 413.268 164.318 412.682 164.131C412.682 164.131 412.462 164.058 412.022 163.911C411.262 163.658 410.655 163.411 410.202 163.171C409.748 162.931 409.395 162.631 409.142 162.271C408.902 161.898 408.782 161.431 408.782 160.871C408.782 159.964 409.162 159.278 409.922 158.811C410.695 158.331 411.695 158.091 412.922 158.091C414.415 158.091 415.702 158.411 416.782 159.051C416.955 159.144 417.042 159.244 417.042 159.351C417.042 159.418 417.008 159.504 416.942 159.611L416.402 160.471C416.322 160.591 416.255 160.651 416.202 160.651C416.148 160.651 416.068 160.618 415.962 160.551C415.615 160.338 415.195 160.171 414.702 160.051C414.222 159.918 413.735 159.851 413.242 159.851C412.575 159.851 412.082 159.924 411.762 160.071C411.455 160.204 411.302 160.471 411.302 160.871C411.302 161.218 411.482 161.491 411.842 161.691C412.215 161.891 412.855 162.131 413.762 162.411L414.422 162.611C415.462 162.944 416.188 163.338 416.602 163.791C417.028 164.244 417.242 164.811 417.242 165.491C417.242 166.318 416.875 166.991 416.142 167.511C415.422 168.031 414.355 168.291 412.942 168.291Z" fill="#1E1E1E"/>
<path d="M137.944 133.991C137.331 133.991 136.886 133.853 136.61 133.577C136.365 133.301 136.242 132.887 136.242 132.335V104.413C136.242 103.83 136.365 103.401 136.61 103.125C136.886 102.849 137.331 102.711 137.944 102.711H151.238C154.428 102.711 156.835 103.478 158.46 105.011C160.116 106.544 160.944 108.614 160.944 111.221C160.944 112.693 160.576 114.012 159.84 115.177C159.104 116.342 158.077 117.201 156.758 117.753C160.162 118.826 161.864 121.218 161.864 124.929C161.864 126.646 161.466 128.195 160.668 129.575C159.902 130.924 158.736 131.998 157.172 132.795C155.608 133.592 153.676 133.991 151.376 133.991H137.944ZM150.41 115.775C151.913 115.775 153.063 115.392 153.86 114.625C154.688 113.858 155.102 112.785 155.102 111.405C155.102 109.902 154.719 108.829 153.952 108.185C153.216 107.51 152.02 107.173 150.364 107.173H142.13V115.775H150.41ZM151.1 129.529C152.787 129.529 154.029 129.1 154.826 128.241C155.624 127.352 156.022 126.217 156.022 124.837C156.022 123.242 155.532 122.046 154.55 121.249C153.6 120.421 152.266 120.007 150.548 120.007H142.13V129.529H151.1ZM168.087 133.991C167.474 133.991 167.029 133.853 166.753 133.577C166.508 133.301 166.385 132.887 166.385 132.335V104.413C166.385 103.83 166.508 103.401 166.753 103.125C167.029 102.849 167.474 102.711 168.087 102.711H187.223C187.836 102.711 188.25 102.834 188.465 103.079C188.71 103.324 188.833 103.738 188.833 104.321V105.563C188.833 106.146 188.71 106.575 188.465 106.851C188.25 107.096 187.836 107.219 187.223 107.219H172.273V116.143H183.129C183.742 116.143 184.172 116.266 184.417 116.511C184.662 116.756 184.785 117.17 184.785 117.753V118.903C184.785 119.486 184.662 119.915 184.417 120.191C184.172 120.436 183.742 120.559 183.129 120.559H172.273V129.529H187.177C187.79 129.529 188.22 129.667 188.465 129.943C188.71 130.188 188.833 130.602 188.833 131.185V132.427C188.833 132.979 188.71 133.378 188.465 133.623C188.22 133.868 187.79 133.991 187.177 133.991H168.087ZM206.278 134.681C201.065 134.681 197.032 133.27 194.18 130.449C191.328 127.628 189.902 123.595 189.902 118.351C189.902 113.107 191.298 109.074 194.088 106.253C196.91 103.432 200.927 102.021 206.14 102.021C208.226 102.021 210.158 102.236 211.936 102.665C213.715 103.094 215.218 103.708 216.444 104.505C216.72 104.689 216.858 104.888 216.858 105.103C216.858 105.287 216.782 105.502 216.628 105.747L215.34 107.955C215.156 108.231 214.988 108.369 214.834 108.369C214.712 108.369 214.497 108.292 214.19 108.139C212.258 106.974 209.79 106.391 206.784 106.391C203.319 106.391 200.605 107.388 198.642 109.381C196.68 111.374 195.698 114.364 195.698 118.351C195.698 122.399 196.71 125.42 198.734 127.413C200.758 129.376 203.488 130.357 206.922 130.357C210.112 130.357 212.734 129.759 214.788 128.563C215.095 128.41 215.294 128.333 215.386 128.333C215.57 128.333 215.754 128.471 215.938 128.747L217.364 131.139C217.456 131.323 217.502 131.476 217.502 131.599C217.502 131.783 217.334 131.982 216.996 132.197C214.635 133.853 211.062 134.681 206.278 134.681ZM220.647 133.991C220.126 133.991 219.865 133.761 219.865 133.301C219.865 133.117 219.911 132.918 220.003 132.703L232.147 103.907C232.331 103.447 232.531 103.14 232.745 102.987C232.96 102.803 233.267 102.711 233.665 102.711H236.195C236.625 102.711 236.931 102.803 237.115 102.987C237.33 103.14 237.529 103.447 237.713 103.907L249.857 132.703C249.949 132.918 249.995 133.117 249.995 133.301C249.995 133.761 249.735 133.991 249.213 133.991H245.211C244.813 133.991 244.521 133.945 244.337 133.853C244.184 133.73 244.031 133.5 243.877 133.163L241.255 126.723H228.559L225.983 133.163C225.83 133.5 225.661 133.73 225.477 133.853C225.324 133.945 225.048 133.991 224.649 133.991H220.647ZM239.783 122.445L234.907 110.393L230.031 122.445H239.783ZM256.224 133.991C255.61 133.991 255.166 133.853 254.89 133.577C254.644 133.301 254.522 132.887 254.522 132.335V104.413C254.522 103.83 254.644 103.401 254.89 103.125C255.166 102.849 255.61 102.711 256.224 102.711H258.662C259.275 102.711 259.72 102.849 259.996 103.125C260.272 103.401 260.41 103.83 260.41 104.413V129.529H274.486C275.099 129.529 275.528 129.667 275.774 129.943C276.019 130.188 276.142 130.602 276.142 131.185V132.427C276.142 132.979 276.019 133.378 275.774 133.623C275.528 133.868 275.099 133.991 274.486 133.991H256.224ZM281.425 133.991C280.811 133.991 280.367 133.853 280.091 133.577C279.845 133.301 279.723 132.887 279.723 132.335V104.413C279.723 103.83 279.845 103.401 280.091 103.125C280.367 102.849 280.811 102.711 281.425 102.711H283.863C284.476 102.711 284.921 102.849 285.197 103.125C285.473 103.401 285.611 103.83 285.611 104.413V132.335C285.611 132.887 285.473 133.301 285.197 133.577C284.951 133.853 284.507 133.991 283.863 133.991H281.425ZM292.745 133.991C292.132 133.991 291.687 133.853 291.411 133.577C291.166 133.301 291.043 132.887 291.043 132.335V104.413C291.043 103.83 291.166 103.401 291.411 103.125C291.687 102.849 292.132 102.711 292.745 102.711H306.039C309.228 102.711 311.636 103.478 313.261 105.011C314.917 106.544 315.745 108.614 315.745 111.221C315.745 112.693 315.377 114.012 314.641 115.177C313.905 116.342 312.878 117.201 311.559 117.753C314.963 118.826 316.665 121.218 316.665 124.929C316.665 126.646 316.266 128.195 315.469 129.575C314.702 130.924 313.537 131.998 311.973 132.795C310.409 133.592 308.477 133.991 306.177 133.991H292.745ZM305.211 115.775C306.714 115.775 307.864 115.392 308.661 114.625C309.489 113.858 309.903 112.785 309.903 111.405C309.903 109.902 309.52 108.829 308.753 108.185C308.017 107.51 306.821 107.173 305.165 107.173H296.931V115.775H305.211ZM305.901 129.529C307.588 129.529 308.83 129.1 309.627 128.241C310.424 127.352 310.823 126.217 310.823 124.837C310.823 123.242 310.332 122.046 309.351 121.249C308.4 120.421 307.066 120.007 305.349 120.007H296.931V129.529H305.901Z" fill="#1E1E1E"/>
<path d="M195.198 65.8444L192.665 72.4452L189.408 78.7591L188.323 80.4811L187.395 81.5847C187.049 81.9959 186.663 82.3712 186.242 82.705L185.428 83.351" stroke="black" stroke-width="3" stroke-linecap="round"/>
<path d="M266.847 50.6337L264.676 57.2345L261.781 65.8444L259.248 72.4452L255.991 78.7591L254.905 80.4811L253.941 81.6284C253.62 82.0105 253.261 82.3593 252.87 82.6694L252.542 82.9293C252.19 83.2089 251.798 83.4353 251.38 83.6011L250.899 83.7916C250.677 83.8797 250.44 83.925 250.201 83.925V83.925" stroke="black" stroke-width="3" stroke-linecap="round"/>
<path d="M232.832 48.1006L235.727 57.2345L238.622 65.8444L241.155 72.4452L244.411 78.7591L245.497 80.4811L246.462 81.6284C246.783 82.0105 247.142 82.3593 247.533 82.6694L247.86 82.9293C248.213 83.2089 248.604 83.4353 249.023 83.6011L249.503 83.7916C249.725 83.8797 249.962 83.925 250.201 83.925V83.925" stroke="black" stroke-width="3" stroke-linecap="round"/>
<path d="M229.213 37.6066L225.957 28.8221L222.7 22.5082L221.614 20.7863L220.65 19.6389C220.329 19.2568 219.97 18.908 219.579 18.5979L219.251 18.338C218.899 18.0584 218.507 17.8321 218.089 17.6662L217.608 17.4757C217.386 17.3876 217.149 17.3423 216.91 17.3423V17.3423" stroke="black" stroke-width="3" stroke-linecap="round"/>
<path d="M198.455 56.7854L200.626 49.91L202.436 44.0328L205.33 35.423L207.863 28.8221L209.311 25.6652L211.12 22.5083L212.206 20.7863L213.17 19.6389C213.491 19.2568 213.85 18.9081 214.241 18.5979L214.569 18.338C214.922 18.0584 215.313 17.8321 215.731 17.6662L216.212 17.4758C216.434 17.3876 216.671 17.3424 216.91 17.3424V17.3424" stroke="black" stroke-width="3" stroke-linecap="round"/>
<path d="M224.147 50.9955L221.787 53.9372L218.64 57.7742L216.289 60.2862C216.022 60.5723 215.733 60.8383 215.426 61.0821L212.347 63.5297L211.167 64.2971L209.594 65.0644L208.605 65.3862C208.216 65.5126 207.818 65.609 207.415 65.6746L206.836 65.7687C206.577 65.8107 206.316 65.8318 206.054 65.8318V65.8318" stroke="black" stroke-width="3" stroke-linecap="round"/>
<path d="M187.961 50.9955L190.321 53.9372L193.467 57.7742L195.819 60.2862C196.086 60.5723 196.375 60.8383 196.681 61.0821L199.761 63.5297L200.941 64.2971L202.514 65.0645L203.503 65.3862C203.892 65.5126 204.29 65.609 204.693 65.6746L205.272 65.7687C205.531 65.8107 205.792 65.8318 206.054 65.8318V65.8318" stroke="black" stroke-width="3" stroke-linecap="round"/>
<path d="M260.333 50.9955L257.973 48.0538L254.827 44.2169L252.476 41.7048C252.208 41.4188 251.919 41.1528 251.613 40.909L248.533 38.4614L247.353 37.694L245.78 36.9266L244.791 36.6049C244.402 36.4785 244.004 36.382 243.601 36.3164L243.022 36.2223C242.763 36.1803 242.502 36.1592 242.24 36.1592V36.1592" stroke="black" stroke-width="3" stroke-linecap="round"/>
<path d="M224.147 50.9955L226.507 48.0538L229.654 44.2169L232.005 41.7048C232.273 41.4188 232.561 41.1528 232.868 40.909L235.947 38.4614L237.127 37.694L238.7 36.9266L239.69 36.6049C240.078 36.4785 240.476 36.382 240.88 36.3164L241.459 36.2223C241.717 36.1803 241.978 36.1592 242.24 36.1592V36.1592" stroke="black" stroke-width="3" stroke-linecap="round"/>
<path d="M187.961 50.9955L185.601 48.0538" stroke="black" stroke-width="3" stroke-linecap="round"/>
<path d="M180 88.9911H272.637" stroke="#1E1E1E" stroke-width="3" stroke-linecap="round"/>
<path d="M180 13H272.637" stroke="#1E1E1E" stroke-width="3" stroke-linecap="round"/>
</svg>
