<svg width="232" height="84" viewBox="0 0 232 84" fill="none" xmlns="http://www.w3.org/2000/svg">
<rect width="232" height="84" fill="white"/>
<path d="M20.9444 75C20.811 75 20.7144 74.97 20.6544 74.91C20.601 74.85 20.5744 74.76 20.5744 74.64V68.57C20.5744 68.4433 20.601 68.35 20.6544 68.29C20.7144 68.23 20.811 68.2 20.9444 68.2H23.8344C24.5277 68.2 25.051 68.3667 25.4044 68.7C25.7644 69.0333 25.9444 69.4833 25.9444 70.05C25.9444 70.37 25.8644 70.6567 25.7044 70.91C25.5444 71.1633 25.321 71.35 25.0344 71.47C25.7744 71.7033 26.1444 72.2233 26.1444 73.03C26.1444 73.4033 26.0577 73.74 25.8844 74.04C25.7177 74.3333 25.4644 74.5667 25.1244 74.74C24.7844 74.9133 24.3644 75 23.8644 75H20.9444ZM23.6544 71.04C23.981 71.04 24.231 70.9567 24.4044 70.79C24.5844 70.6233 24.6744 70.39 24.6744 70.09C24.6744 69.7633 24.591 69.53 24.4244 69.39C24.2644 69.2433 24.0044 69.17 23.6444 69.17H21.8544V71.04H23.6544ZM23.8044 74.03C24.171 74.03 24.441 73.9367 24.6144 73.75C24.7877 73.5567 24.8744 73.31 24.8744 73.01C24.8744 72.6633 24.7677 72.4033 24.5544 72.23C24.3477 72.05 24.0577 71.96 23.6844 71.96H21.8544V74.03H23.8044ZM28.8971 75.15C28.3504 75.15 27.9104 75 27.5771 74.7C27.2438 74.3933 27.0771 73.94 27.0771 73.34V70.57C27.0771 70.4433 27.1038 70.35 27.1571 70.29C27.2171 70.23 27.3138 70.2 27.4471 70.2H27.9771C28.1104 70.2 28.2071 70.23 28.2671 70.29C28.3271 70.35 28.3571 70.4433 28.3571 70.57V73.31C28.3571 73.63 28.4404 73.8667 28.6071 74.02C28.7738 74.1667 29.0204 74.24 29.3471 74.24C29.6938 74.24 29.9838 74.1433 30.2171 73.95C30.4504 73.7567 30.5671 73.5067 30.5671 73.2V70.57C30.5671 70.4433 30.5971 70.35 30.6571 70.29C30.7171 70.23 30.8138 70.2 30.9471 70.2H31.4671C31.6004 70.2 31.6971 70.23 31.7571 70.29C31.8171 70.35 31.8471 70.4433 31.8471 70.57V74.73C31.8471 74.8367 31.8304 74.91 31.7971 74.95C31.7638 74.9833 31.6938 75 31.5871 75H31.0271C30.9538 75 30.9004 74.9867 30.8671 74.96C30.8338 74.9267 30.8138 74.8767 30.8071 74.81L30.7671 74.39C30.3138 74.8967 29.6904 75.15 28.8971 75.15ZM33.5255 69.37C33.3655 69.37 33.2422 69.3233 33.1555 69.23C33.0689 69.1367 33.0255 69.0233 33.0255 68.89V68.68C33.0255 68.5467 33.0689 68.4333 33.1555 68.34C33.2422 68.2467 33.3655 68.2 33.5255 68.2H33.9555C34.1155 68.2 34.2389 68.2467 34.3255 68.34C34.4189 68.4333 34.4655 68.5467 34.4655 68.68V68.89C34.4655 69.0233 34.4189 69.1367 34.3255 69.23C34.2389 69.3233 34.1155 69.37 33.9555 69.37H33.5255ZM33.4855 75C33.3522 75 33.2555 74.97 33.1955 74.91C33.1355 74.85 33.1055 74.76 33.1055 74.64V70.57C33.1055 70.4433 33.1355 70.35 33.1955 70.29C33.2555 70.23 33.3522 70.2 33.4855 70.2H34.0055C34.1389 70.2 34.2355 70.23 34.2955 70.29C34.3555 70.35 34.3855 70.4433 34.3855 70.57V74.64C34.3855 74.76 34.3555 74.85 34.2955 74.91C34.2422 74.97 34.1455 75 34.0055 75H33.4855ZM36.0127 75C35.8794 75 35.7827 74.97 35.7227 74.91C35.6694 74.85 35.6427 74.76 35.6427 74.64V68.57C35.6427 68.4433 35.6694 68.35 35.7227 68.29C35.7827 68.23 35.8794 68.2 36.0127 68.2H36.5427C36.6761 68.2 36.7727 68.23 36.8327 68.29C36.8927 68.35 36.9227 68.4433 36.9227 68.57V74.64C36.9227 74.76 36.8927 74.85 36.8327 74.91C36.7794 74.97 36.6827 75 36.5427 75H36.0127ZM40.7437 75.15C38.8503 75.15 37.9037 74.2967 37.9037 72.59C37.9037 72.09 38.0003 71.65 38.1937 71.27C38.387 70.8833 38.6637 70.5833 39.0237 70.37C39.3903 70.1567 39.8203 70.05 40.3137 70.05C41.0137 70.05 41.5203 70.2067 41.8337 70.52V68.57C41.8337 68.4433 41.8637 68.35 41.9237 68.29C41.9837 68.23 42.0803 68.2 42.2137 68.2H42.7137C42.847 68.2 42.9437 68.23 43.0037 68.29C43.0637 68.35 43.0937 68.4433 43.0937 68.57V74.5C42.8403 74.6867 42.5003 74.8433 42.0737 74.97C41.647 75.09 41.2037 75.15 40.7437 75.15ZM40.7737 74.24C41.2203 74.24 41.5737 74.16 41.8337 74V71.96C41.8337 71.6333 41.7203 71.3867 41.4937 71.22C41.267 71.0533 40.9737 70.97 40.6137 70.97C40.127 70.97 39.7637 71.1167 39.5237 71.41C39.2837 71.7033 39.1637 72.1067 39.1637 72.62C39.1637 73.1933 39.297 73.6067 39.5637 73.86C39.8303 74.1133 40.2337 74.24 40.7737 74.24ZM44.7755 69.37C44.6155 69.37 44.4922 69.3233 44.4055 69.23C44.3189 69.1367 44.2755 69.0233 44.2755 68.89V68.68C44.2755 68.5467 44.3189 68.4333 44.4055 68.34C44.4922 68.2467 44.6155 68.2 44.7755 68.2H45.2055C45.3655 68.2 45.4889 68.2467 45.5755 68.34C45.6689 68.4333 45.7155 68.5467 45.7155 68.68V68.89C45.7155 69.0233 45.6689 69.1367 45.5755 69.23C45.4889 69.3233 45.3655 69.37 45.2055 69.37H44.7755ZM44.7355 75C44.6022 75 44.5055 74.97 44.4455 74.91C44.3855 74.85 44.3555 74.76 44.3555 74.64V70.57C44.3555 70.4433 44.3855 70.35 44.4455 70.29C44.5055 70.23 44.6022 70.2 44.7355 70.2H45.2555C45.3889 70.2 45.4855 70.23 45.5455 70.29C45.6055 70.35 45.6355 70.4433 45.6355 70.57V74.64C45.6355 74.76 45.6055 74.85 45.5455 74.91C45.4922 74.97 45.3955 75 45.2555 75H44.7355ZM47.2727 75C47.1394 75 47.0427 74.97 46.9827 74.91C46.9227 74.85 46.8927 74.76 46.8927 74.64V70.47C46.8927 70.37 46.9094 70.3 46.9427 70.26C46.9761 70.22 47.0461 70.2 47.1527 70.2H47.7227C47.8694 70.2 47.9461 70.2667 47.9527 70.4L47.9727 70.8C48.4261 70.3 49.0761 70.05 49.9227 70.05C50.4627 70.05 50.8961 70.1967 51.2227 70.49C51.5561 70.7767 51.7227 71.21 51.7227 71.79V74.64C51.7227 74.76 51.6927 74.85 51.6327 74.91C51.5794 74.97 51.4861 75 51.3527 75H50.8227C50.6894 75 50.5927 74.97 50.5327 74.91C50.4727 74.85 50.4427 74.76 50.4427 74.64V71.87C50.4427 71.5433 50.3661 71.3133 50.2127 71.18C50.0661 71.04 49.8261 70.97 49.4927 70.97C49.1394 70.97 48.8294 71.0667 48.5627 71.26C48.3027 71.4467 48.1727 71.69 48.1727 71.99V74.64C48.1727 74.76 48.1427 74.85 48.0827 74.91C48.0294 74.97 47.9327 75 47.7927 75H47.2727ZM55.3998 76.7C55.0131 76.7 54.6364 76.6633 54.2698 76.59C53.9031 76.5167 53.6231 76.42 53.4298 76.3C53.3231 76.24 53.2964 76.1667 53.3498 76.08L53.6398 75.59C53.6798 75.5233 53.7198 75.49 53.7598 75.49C53.7864 75.49 53.8198 75.5 53.8598 75.52C54.2264 75.7067 54.7031 75.8 55.2898 75.8C55.7364 75.8 56.0631 75.6933 56.2698 75.48C56.4764 75.2667 56.5798 74.9067 56.5798 74.4C56.3931 74.6 56.1731 74.75 55.9198 74.85C55.6731 74.9433 55.3731 74.99 55.0198 74.99C54.2731 74.99 53.6898 74.7867 53.2698 74.38C52.8564 73.9733 52.6498 73.4 52.6498 72.66C52.6498 71.82 52.8964 71.1767 53.3898 70.73C53.8898 70.2767 54.6098 70.05 55.5498 70.05C55.9831 70.05 56.4064 70.11 56.8198 70.23C57.2398 70.35 57.5798 70.5 57.8398 70.68V74.11C57.8398 74.9167 57.6431 75.55 57.2498 76.01C56.8564 76.47 56.2398 76.7 55.3998 76.7ZM55.3198 74.05C55.6931 74.05 55.9964 73.9533 56.2298 73.76C56.4631 73.56 56.5798 73.2867 56.5798 72.94V71.16C56.4531 71.1 56.2931 71.0533 56.0998 71.02C55.9064 70.9867 55.7031 70.97 55.4898 70.97C54.4364 70.97 53.9098 71.5067 53.9098 72.58C53.9098 73.0733 54.0264 73.4433 54.2598 73.69C54.4931 73.93 54.8464 74.05 55.3198 74.05ZM63.2881 75C63.1548 75 63.0581 74.97 62.9981 74.91C62.9448 74.85 62.9181 74.76 62.9181 74.64V68.57C62.9181 68.4433 62.9448 68.35 62.9981 68.29C63.0581 68.23 63.1548 68.2 63.2881 68.2H67.4481C67.5815 68.2 67.6715 68.2267 67.7181 68.28C67.7715 68.3333 67.7981 68.4233 67.7981 68.55V68.82C67.7981 68.9467 67.7715 69.04 67.7181 69.1C67.6715 69.1533 67.5815 69.18 67.4481 69.18H64.1981V71.12H66.5581C66.6915 71.12 66.7848 71.1467 66.8381 71.2C66.8915 71.2533 66.9181 71.3433 66.9181 71.47V71.72C66.9181 71.8467 66.8915 71.94 66.8381 72C66.7848 72.0533 66.6915 72.08 66.5581 72.08H64.1981V74.03H67.4381C67.5715 74.03 67.6648 74.06 67.7181 74.12C67.7715 74.1733 67.7981 74.2633 67.7981 74.39V74.66C67.7981 74.78 67.7715 74.8667 67.7181 74.92C67.6648 74.9733 67.5715 75 67.4381 75H63.2881ZM69.0598 75C68.9265 75 68.8298 74.97 68.7698 74.91C68.7098 74.85 68.6798 74.76 68.6798 74.64V70.47C68.6798 70.37 68.6965 70.3 68.7298 70.26C68.7632 70.22 68.8332 70.2 68.9398 70.2H69.5098C69.6565 70.2 69.7332 70.2667 69.7398 70.4L69.7598 70.8C70.2132 70.3 70.8632 70.05 71.7098 70.05C72.2498 70.05 72.6832 70.1967 73.0098 70.49C73.3432 70.7767 73.5098 71.21 73.5098 71.79V74.64C73.5098 74.76 73.4798 74.85 73.4198 74.91C73.3665 74.97 73.2732 75 73.1398 75H72.6098C72.4765 75 72.3798 74.97 72.3198 74.91C72.2598 74.85 72.2298 74.76 72.2298 74.64V71.87C72.2298 71.5433 72.1532 71.3133 71.9998 71.18C71.8532 71.04 71.6132 70.97 71.2798 70.97C70.9265 70.97 70.6165 71.0667 70.3498 71.26C70.0898 71.4467 69.9598 71.69 69.9598 71.99V74.64C69.9598 74.76 69.9298 74.85 69.8698 74.91C69.8165 74.97 69.7198 75 69.5798 75H69.0598ZM76.573 75C76.4796 75 76.4096 74.9833 76.363 74.95C76.3163 74.91 76.2696 74.8433 76.223 74.75L74.213 70.48C74.193 70.44 74.183 70.4 74.183 70.36C74.183 70.3133 74.1963 70.2767 74.223 70.25C74.2563 70.2167 74.2996 70.2 74.353 70.2H75.183C75.2696 70.2 75.333 70.2167 75.373 70.25C75.413 70.2767 75.4496 70.33 75.483 70.41L76.823 73.53L78.163 70.41C78.1963 70.3367 78.233 70.2833 78.273 70.25C78.3196 70.2167 78.3863 70.2 78.473 70.2H79.303C79.3563 70.2 79.3963 70.2167 79.423 70.25C79.4563 70.2767 79.473 70.3133 79.473 70.36C79.473 70.4 79.463 70.44 79.443 70.48L77.433 74.75C77.3863 74.8433 77.3396 74.91 77.293 74.95C77.2463 74.9833 77.1763 75 77.083 75H76.573ZM82.2952 75.15C81.7752 75.15 81.3052 75.0633 80.8852 74.89C80.4652 74.71 80.1286 74.4367 79.8752 74.07C79.6286 73.6967 79.5052 73.2333 79.5052 72.68C79.5052 71.82 79.7352 71.1667 80.1952 70.72C80.6552 70.2733 81.3086 70.05 82.1552 70.05C82.9952 70.05 83.6286 70.2667 84.0552 70.7C84.4886 71.1333 84.7052 71.76 84.7052 72.58C84.7052 72.8133 84.5986 72.93 84.3852 72.93H80.7152C80.7152 73.37 80.8686 73.71 81.1752 73.95C81.4819 74.1833 81.9086 74.3 82.4552 74.3C82.9819 74.3 83.4552 74.18 83.8752 73.94C83.9219 73.9133 83.9586 73.9 83.9852 73.9C84.0319 73.9 84.0686 73.93 84.0952 73.99L84.3352 74.42C84.3552 74.46 84.3652 74.4967 84.3652 74.53C84.3652 74.5767 84.3352 74.62 84.2752 74.66C84.0019 74.8267 83.7052 74.95 83.3852 75.03C83.0719 75.11 82.7086 75.15 82.2952 75.15ZM83.5452 72.19C83.5452 71.7767 83.4286 71.4533 83.1952 71.22C82.9686 70.9867 82.6252 70.87 82.1652 70.87C81.6986 70.87 81.3386 70.99 81.0852 71.23C80.8386 71.47 80.7152 71.79 80.7152 72.19H83.5452ZM86.0518 75C85.9185 75 85.8218 74.97 85.7618 74.91C85.7085 74.85 85.6818 74.76 85.6818 74.64V68.57C85.6818 68.4433 85.7085 68.35 85.7618 68.29C85.8218 68.23 85.9185 68.2 86.0518 68.2H86.5818C86.7151 68.2 86.8118 68.23 86.8718 68.29C86.9318 68.35 86.9618 68.4433 86.9618 68.57V74.64C86.9618 74.76 86.9318 74.85 86.8718 74.91C86.8185 74.97 86.7218 75 86.5818 75H86.0518ZM90.6527 75.15C89.7861 75.15 89.1161 74.9233 88.6427 74.47C88.1761 74.01 87.9427 73.3867 87.9427 72.6C87.9427 71.8133 88.1761 71.1933 88.6427 70.74C89.1161 70.28 89.7861 70.05 90.6527 70.05C91.5194 70.05 92.1894 70.28 92.6627 70.74C93.1361 71.1933 93.3727 71.8133 93.3727 72.6C93.3727 73.3867 93.1361 74.01 92.6627 74.47C92.1894 74.9233 91.5194 75.15 90.6527 75.15ZM90.6527 74.21C91.1261 74.21 91.4861 74.0733 91.7327 73.8C91.9794 73.5267 92.1027 73.1267 92.1027 72.6C92.1027 72.08 91.9794 71.6867 91.7327 71.42C91.4861 71.1467 91.1261 71.01 90.6527 71.01C90.1861 71.01 89.8261 71.1467 89.5727 71.42C89.3261 71.6867 89.2027 72.08 89.2027 72.6C89.2027 73.12 89.3261 73.52 89.5727 73.8C89.8261 74.0733 90.1861 74.21 90.6527 74.21ZM94.7237 77.02C94.5903 77.02 94.4937 76.99 94.4337 76.93C94.3803 76.87 94.3537 76.78 94.3537 76.66V70.68C94.607 70.5 94.9437 70.35 95.3637 70.23C95.7903 70.11 96.217 70.05 96.6437 70.05C98.577 70.05 99.5437 70.9033 99.5437 72.61C99.5437 73.3967 99.3303 74.0167 98.9037 74.47C98.4837 74.9233 97.9037 75.15 97.1637 75.15C96.4903 75.15 95.9737 74.9567 95.6137 74.57V76.66C95.6137 76.7867 95.5837 76.8767 95.5237 76.93C95.4703 76.99 95.3737 77.02 95.2337 77.02H94.7237ZM96.8637 74.24C97.337 74.24 97.6903 74.0967 97.9237 73.81C98.157 73.5233 98.2737 73.11 98.2737 72.57C98.2737 71.99 98.137 71.58 97.8637 71.34C97.5903 71.0933 97.1703 70.97 96.6037 70.97C96.1837 70.97 95.8537 71.0333 95.6137 71.16V73.13C95.6137 73.47 95.7337 73.74 95.9737 73.94C96.2137 74.14 96.5103 74.24 96.8637 74.24ZM107.782 75.15C106.649 75.15 105.772 74.8433 105.152 74.23C104.532 73.6167 104.222 72.74 104.222 71.6C104.222 70.46 104.525 69.5833 105.132 68.97C105.745 68.3567 106.619 68.05 107.752 68.05C108.205 68.05 108.625 68.0967 109.012 68.19C109.399 68.2833 109.725 68.4167 109.992 68.59C110.052 68.63 110.082 68.6733 110.082 68.72C110.082 68.76 110.065 68.8067 110.032 68.86L109.752 69.34C109.712 69.4 109.675 69.43 109.642 69.43C109.615 69.43 109.569 69.4133 109.502 69.38C109.082 69.1267 108.545 69 107.892 69C107.139 69 106.549 69.2167 106.122 69.65C105.695 70.0833 105.482 70.7333 105.482 71.6C105.482 72.48 105.702 73.1367 106.142 73.57C106.582 73.9967 107.175 74.21 107.922 74.21C108.615 74.21 109.185 74.08 109.632 73.82C109.699 73.7867 109.742 73.77 109.762 73.77C109.802 73.77 109.842 73.8 109.882 73.86L110.192 74.38C110.212 74.42 110.222 74.4533 110.222 74.48C110.222 74.52 110.185 74.5633 110.112 74.61C109.599 74.97 108.822 75.15 107.782 75.15ZM113.25 75.15C112.384 75.15 111.714 74.9233 111.24 74.47C110.774 74.01 110.54 73.3867 110.54 72.6C110.54 71.8133 110.774 71.1933 111.24 70.74C111.714 70.28 112.384 70.05 113.25 70.05C114.117 70.05 114.787 70.28 115.26 70.74C115.734 71.1933 115.97 71.8133 115.97 72.6C115.97 73.3867 115.734 74.01 115.26 74.47C114.787 74.9233 114.117 75.15 113.25 75.15ZM113.25 74.21C113.724 74.21 114.084 74.0733 114.33 73.8C114.577 73.5267 114.7 73.1267 114.7 72.6C114.7 72.08 114.577 71.6867 114.33 71.42C114.084 71.1467 113.724 71.01 113.25 71.01C112.784 71.01 112.424 71.1467 112.17 71.42C111.924 71.6867 111.8 72.08 111.8 72.6C111.8 73.12 111.924 73.52 112.17 73.8C112.424 74.0733 112.784 74.21 113.25 74.21ZM117.331 75C117.198 75 117.101 74.97 117.041 74.91C116.981 74.85 116.951 74.76 116.951 74.64V70.47C116.951 70.37 116.968 70.3 117.001 70.26C117.035 70.22 117.105 70.2 117.211 70.2H117.741C117.815 70.2 117.868 70.2167 117.901 70.25C117.935 70.2767 117.955 70.3267 117.961 70.4L117.991 70.82C118.185 70.5733 118.405 70.3833 118.651 70.25C118.905 70.1167 119.205 70.05 119.551 70.05C119.845 70.05 120.098 70.1167 120.311 70.25C120.531 70.3767 120.691 70.5667 120.791 70.82C121.158 70.3067 121.688 70.05 122.381 70.05C122.855 70.05 123.228 70.1933 123.501 70.48C123.781 70.7667 123.921 71.1933 123.921 71.76V74.64C123.921 74.76 123.891 74.85 123.831 74.91C123.778 74.97 123.681 75 123.541 75H123.101C122.968 75 122.871 74.97 122.811 74.91C122.751 74.85 122.721 74.76 122.721 74.64V71.83C122.721 71.5233 122.655 71.3033 122.521 71.17C122.395 71.0367 122.201 70.97 121.941 70.97C121.668 70.97 121.445 71.06 121.271 71.24C121.105 71.42 121.021 71.6633 121.021 71.97V74.64C121.021 74.76 120.991 74.85 120.931 74.91C120.871 74.97 120.775 75 120.641 75H120.231C120.098 75 120.001 74.97 119.941 74.91C119.881 74.85 119.851 74.76 119.851 74.64V71.78C119.851 71.5 119.791 71.2967 119.671 71.17C119.558 71.0367 119.375 70.97 119.121 70.97C118.835 70.97 118.601 71.0667 118.421 71.26C118.241 71.4467 118.151 71.6933 118.151 72V74.64C118.151 74.76 118.121 74.85 118.061 74.91C118.008 74.97 117.911 75 117.771 75H117.331ZM125.417 77.02C125.284 77.02 125.187 76.99 125.127 76.93C125.074 76.87 125.047 76.78 125.047 76.66V70.68C125.3 70.5 125.637 70.35 126.057 70.23C126.484 70.11 126.91 70.05 127.337 70.05C129.27 70.05 130.237 70.9033 130.237 72.61C130.237 73.3967 130.024 74.0167 129.597 74.47C129.177 74.9233 128.597 75.15 127.857 75.15C127.184 75.15 126.667 74.9567 126.307 74.57V76.66C126.307 76.7867 126.277 76.8767 126.217 76.93C126.164 76.99 126.067 77.02 125.927 77.02H125.417ZM127.557 74.24C128.03 74.24 128.384 74.0967 128.617 73.81C128.85 73.5233 128.967 73.11 128.967 72.57C128.967 71.99 128.83 71.58 128.557 71.34C128.284 71.0933 127.864 70.97 127.297 70.97C126.877 70.97 126.547 71.0333 126.307 71.16V73.13C126.307 73.47 126.427 73.74 126.667 73.94C126.907 74.14 127.204 74.24 127.557 74.24ZM133.475 75.15C132.608 75.15 131.938 74.9233 131.465 74.47C130.998 74.01 130.765 73.3867 130.765 72.6C130.765 71.8133 130.998 71.1933 131.465 70.74C131.938 70.28 132.608 70.05 133.475 70.05C134.342 70.05 135.012 70.28 135.485 70.74C135.958 71.1933 136.195 71.8133 136.195 72.6C136.195 73.3867 135.958 74.01 135.485 74.47C135.012 74.9233 134.342 75.15 133.475 75.15ZM133.475 74.21C133.948 74.21 134.308 74.0733 134.555 73.8C134.802 73.5267 134.925 73.1267 134.925 72.6C134.925 72.08 134.802 71.6867 134.555 71.42C134.308 71.1467 133.948 71.01 133.475 71.01C133.008 71.01 132.648 71.1467 132.395 71.42C132.148 71.6867 132.025 72.08 132.025 72.6C132.025 73.12 132.148 73.52 132.395 73.8C132.648 74.0733 133.008 74.21 133.475 74.21ZM137.556 75C137.423 75 137.326 74.97 137.266 74.91C137.206 74.85 137.176 74.76 137.176 74.64V70.47C137.176 70.37 137.193 70.3 137.226 70.26C137.259 70.22 137.329 70.2 137.436 70.2H138.006C138.153 70.2 138.229 70.2667 138.236 70.4L138.256 70.8C138.709 70.3 139.359 70.05 140.206 70.05C140.746 70.05 141.179 70.1967 141.506 70.49C141.839 70.7767 142.006 71.21 142.006 71.79V74.64C142.006 74.76 141.976 74.85 141.916 74.91C141.863 74.97 141.769 75 141.636 75H141.106C140.973 75 140.876 74.97 140.816 74.91C140.756 74.85 140.726 74.76 140.726 74.64V71.87C140.726 71.5433 140.649 71.3133 140.496 71.18C140.349 71.04 140.109 70.97 139.776 70.97C139.423 70.97 139.113 71.0667 138.846 71.26C138.586 71.4467 138.456 71.69 138.456 71.99V74.64C138.456 74.76 138.426 74.85 138.366 74.91C138.313 74.97 138.216 75 138.076 75H137.556ZM145.723 75.15C145.203 75.15 144.733 75.0633 144.313 74.89C143.893 74.71 143.556 74.4367 143.303 74.07C143.056 73.6967 142.933 73.2333 142.933 72.68C142.933 71.82 143.163 71.1667 143.623 70.72C144.083 70.2733 144.736 70.05 145.583 70.05C146.423 70.05 147.056 70.2667 147.483 70.7C147.916 71.1333 148.133 71.76 148.133 72.58C148.133 72.8133 148.026 72.93 147.813 72.93H144.143C144.143 73.37 144.296 73.71 144.603 73.95C144.91 74.1833 145.336 74.3 145.883 74.3C146.41 74.3 146.883 74.18 147.303 73.94C147.35 73.9133 147.386 73.9 147.413 73.9C147.46 73.9 147.496 73.93 147.523 73.99L147.763 74.42C147.783 74.46 147.793 74.4967 147.793 74.53C147.793 74.5767 147.763 74.62 147.703 74.66C147.43 74.8267 147.133 74.95 146.813 75.03C146.5 75.11 146.136 75.15 145.723 75.15ZM146.973 72.19C146.973 71.7767 146.856 71.4533 146.623 71.22C146.396 70.9867 146.053 70.87 145.593 70.87C145.126 70.87 144.766 70.99 144.513 71.23C144.266 71.47 144.143 71.79 144.143 72.19H146.973ZM149.49 75C149.356 75 149.26 74.97 149.2 74.91C149.14 74.85 149.11 74.76 149.11 74.64V70.47C149.11 70.37 149.126 70.3 149.16 70.26C149.193 70.22 149.263 70.2 149.37 70.2H149.94C150.086 70.2 150.163 70.2667 150.17 70.4L150.19 70.8C150.643 70.3 151.293 70.05 152.14 70.05C152.68 70.05 153.113 70.1967 153.44 70.49C153.773 70.7767 153.94 71.21 153.94 71.79V74.64C153.94 74.76 153.91 74.85 153.85 74.91C153.796 74.97 153.703 75 153.57 75H153.04C152.906 75 152.81 74.97 152.75 74.91C152.69 74.85 152.66 74.76 152.66 74.64V71.87C152.66 71.5433 152.583 71.3133 152.43 71.18C152.283 71.04 152.043 70.97 151.71 70.97C151.356 70.97 151.046 71.0667 150.78 71.26C150.52 71.4467 150.39 71.69 150.39 71.99V74.64C150.39 74.76 150.36 74.85 150.3 74.91C150.246 74.97 150.15 75 150.01 75H149.49ZM157.277 75.15C156.71 75.15 156.283 74.9933 155.997 74.68C155.71 74.3667 155.567 73.9333 155.567 73.38V71.14H154.997C154.863 71.14 154.773 71.1167 154.727 71.07C154.687 71.0233 154.667 70.9367 154.667 70.81V70.54C154.667 70.4133 154.687 70.3267 154.727 70.28C154.773 70.2267 154.863 70.2 154.997 70.2H155.567V69.65C155.567 69.51 155.59 69.38 155.637 69.26C155.69 69.1333 155.77 68.9767 155.877 68.79C155.917 68.71 155.953 68.66 155.987 68.64C156.027 68.6133 156.093 68.6 156.187 68.6H156.517C156.637 68.6 156.72 68.63 156.767 68.69C156.82 68.7433 156.847 68.8267 156.847 68.94V70.2H158.027C158.16 70.2 158.247 70.2267 158.287 70.28C158.333 70.3267 158.357 70.4133 158.357 70.54V70.81C158.357 70.9367 158.333 71.0233 158.287 71.07C158.247 71.1167 158.16 71.14 158.027 71.14H156.847V73.34C156.847 73.6467 156.9 73.87 157.007 74.01C157.113 74.1433 157.297 74.21 157.557 74.21C157.71 74.21 157.84 74.1933 157.947 74.16C158.053 74.12 158.17 74.0567 158.297 73.97C158.33 73.9433 158.367 73.93 158.407 73.93C158.447 73.93 158.487 73.96 158.527 74.02L158.817 74.5C158.843 74.5333 158.857 74.57 158.857 74.61C158.857 74.6567 158.823 74.7033 158.757 74.75C158.343 75.0167 157.85 75.15 157.277 75.15ZM161.463 75.15C161.063 75.15 160.673 75.1067 160.293 75.02C159.913 74.94 159.586 74.8167 159.313 74.65C159.226 74.6033 159.183 74.5533 159.183 74.5C159.183 74.46 159.196 74.4233 159.223 74.39L159.503 73.9C159.536 73.84 159.57 73.81 159.603 73.81C159.636 73.81 159.68 73.8267 159.733 73.86C159.933 73.98 160.18 74.08 160.473 74.16C160.766 74.24 161.036 74.28 161.283 74.28C161.663 74.28 161.933 74.2433 162.093 74.17C162.26 74.09 162.343 73.95 162.343 73.75C162.343 73.6367 162.31 73.5467 162.243 73.48C162.183 73.4067 162.09 73.3433 161.963 73.29C161.836 73.2367 161.626 73.1633 161.333 73.07C161.333 73.07 161.223 73.0333 161.003 72.96C160.623 72.8333 160.32 72.71 160.093 72.59C159.866 72.47 159.69 72.32 159.563 72.14C159.443 71.9533 159.383 71.72 159.383 71.44C159.383 70.9867 159.573 70.6433 159.953 70.41C160.34 70.17 160.84 70.05 161.453 70.05C162.2 70.05 162.843 70.21 163.383 70.53C163.47 70.5767 163.513 70.6267 163.513 70.68C163.513 70.7133 163.496 70.7567 163.463 70.81L163.193 71.24C163.153 71.3 163.12 71.33 163.093 71.33C163.066 71.33 163.026 71.3133 162.973 71.28C162.8 71.1733 162.59 71.09 162.343 71.03C162.103 70.9633 161.86 70.93 161.613 70.93C161.28 70.93 161.033 70.9667 160.873 71.04C160.72 71.1067 160.643 71.24 160.643 71.44C160.643 71.6133 160.733 71.75 160.913 71.85C161.1 71.95 161.42 72.07 161.873 72.21L162.203 72.31C162.723 72.4767 163.086 72.6733 163.293 72.9C163.506 73.1267 163.613 73.41 163.613 73.75C163.613 74.1633 163.43 74.5 163.063 74.76C162.703 75.02 162.17 75.15 161.463 75.15ZM168.464 75C168.351 75 168.294 74.95 168.294 74.85C168.294 74.81 168.304 74.7667 168.324 74.72L170.964 68.46C171.004 68.36 171.048 68.2933 171.094 68.26C171.141 68.22 171.208 68.2 171.294 68.2H171.844C171.938 68.2 172.004 68.22 172.044 68.26C172.091 68.2933 172.134 68.36 172.174 68.46L174.814 74.72C174.834 74.7667 174.844 74.81 174.844 74.85C174.844 74.95 174.788 75 174.674 75H173.804C173.718 75 173.654 74.99 173.614 74.97C173.581 74.9433 173.548 74.8933 173.514 74.82L172.944 73.42H170.184L169.624 74.82C169.591 74.8933 169.554 74.9433 169.514 74.97C169.481 74.99 169.421 75 169.334 75H168.464ZM172.624 72.49L171.564 69.87L170.504 72.49H172.624ZM176.208 75C176.075 75 175.978 74.97 175.918 74.91C175.858 74.85 175.828 74.76 175.828 74.64V70.47C175.828 70.37 175.845 70.3 175.878 70.26C175.912 70.22 175.982 70.2 176.088 70.2H176.658C176.805 70.2 176.882 70.2667 176.888 70.4L176.908 70.8C177.362 70.3 178.012 70.05 178.858 70.05C179.398 70.05 179.832 70.1967 180.158 70.49C180.492 70.7767 180.658 71.21 180.658 71.79V74.64C180.658 74.76 180.628 74.85 180.568 74.91C180.515 74.97 180.422 75 180.288 75H179.758C179.625 75 179.528 74.97 179.468 74.91C179.408 74.85 179.378 74.76 179.378 74.64V71.87C179.378 71.5433 179.302 71.3133 179.148 71.18C179.002 71.04 178.762 70.97 178.428 70.97C178.075 70.97 177.765 71.0667 177.498 71.26C177.238 71.4467 177.108 71.69 177.108 71.99V74.64C177.108 74.76 177.078 74.85 177.018 74.91C176.965 74.97 176.868 75 176.728 75H176.208ZM183.579 75.15C182.925 75.15 182.405 74.9533 182.019 74.56C181.632 74.16 181.439 73.6 181.439 72.88C181.439 72.32 181.562 71.8267 181.809 71.4C182.055 70.9667 182.405 70.6333 182.859 70.4C183.319 70.1667 183.852 70.05 184.459 70.05C185.305 70.05 186.022 70.25 186.609 70.65V74.73C186.609 74.83 186.585 74.9 186.539 74.94C186.499 74.98 186.425 75 186.319 75H185.769C185.695 75 185.639 74.9867 185.599 74.96C185.565 74.9267 185.542 74.8767 185.529 74.81L185.449 74.42C185.242 74.6733 184.985 74.86 184.679 74.98C184.379 75.0933 184.012 75.15 183.579 75.15ZM184.059 74.24C184.412 74.24 184.722 74.1367 184.989 73.93C185.262 73.7233 185.399 73.45 185.399 73.11V71.16C185.259 71.0867 185.115 71.0367 184.969 71.01C184.829 70.9767 184.655 70.96 184.449 70.96C183.922 70.96 183.499 71.1267 183.179 71.46C182.859 71.7933 182.699 72.2533 182.699 72.84C182.699 73.32 182.809 73.6733 183.029 73.9C183.255 74.1267 183.599 74.24 184.059 74.24ZM188.161 75C188.028 75 187.931 74.97 187.871 74.91C187.818 74.85 187.791 74.76 187.791 74.64V68.57C187.791 68.4433 187.818 68.35 187.871 68.29C187.931 68.23 188.028 68.2 188.161 68.2H188.691C188.825 68.2 188.921 68.23 188.981 68.29C189.041 68.35 189.071 68.4433 189.071 68.57V74.64C189.071 74.76 189.041 74.85 188.981 74.91C188.928 74.97 188.831 75 188.691 75H188.161ZM191.412 76.56C191.159 76.56 190.925 76.5233 190.712 76.45C190.499 76.3767 190.315 76.2767 190.162 76.15C190.109 76.1033 190.082 76.06 190.082 76.02C190.082 75.98 190.095 75.9433 190.122 75.91L190.402 75.43C190.442 75.3633 190.482 75.33 190.522 75.33C190.555 75.33 190.595 75.35 190.642 75.39C190.749 75.47 190.855 75.53 190.962 75.57C191.075 75.61 191.209 75.63 191.362 75.63C191.562 75.63 191.719 75.5633 191.832 75.43C191.945 75.3033 192.062 75.0867 192.182 74.78L190.162 70.48C190.135 70.4133 190.122 70.3667 190.122 70.34C190.122 70.2467 190.175 70.2 190.282 70.2H191.132C191.219 70.2 191.282 70.2133 191.322 70.24C191.362 70.2667 191.399 70.3167 191.432 70.39L192.772 73.53L194.112 70.39C194.145 70.3167 194.182 70.2667 194.222 70.24C194.262 70.2133 194.325 70.2 194.412 70.2H195.262C195.369 70.2 195.422 70.2467 195.422 70.34C195.422 70.3667 195.409 70.4133 195.382 70.48L193.502 74.49C193.242 75.0367 193.022 75.45 192.842 75.73C192.669 76.01 192.469 76.2167 192.242 76.35C192.022 76.49 191.745 76.56 191.412 76.56ZM198.279 75.15C197.879 75.15 197.489 75.1067 197.109 75.02C196.729 74.94 196.403 74.8167 196.129 74.65C196.043 74.6033 195.999 74.5533 195.999 74.5C195.999 74.46 196.013 74.4233 196.039 74.39L196.319 73.9C196.353 73.84 196.386 73.81 196.419 73.81C196.453 73.81 196.496 73.8267 196.549 73.86C196.749 73.98 196.996 74.08 197.289 74.16C197.583 74.24 197.853 74.28 198.099 74.28C198.479 74.28 198.749 74.2433 198.909 74.17C199.076 74.09 199.159 73.95 199.159 73.75C199.159 73.6367 199.126 73.5467 199.059 73.48C198.999 73.4067 198.906 73.3433 198.779 73.29C198.653 73.2367 198.443 73.1633 198.149 73.07C198.149 73.07 198.039 73.0333 197.819 72.96C197.439 72.8333 197.136 72.71 196.909 72.59C196.683 72.47 196.506 72.32 196.379 72.14C196.259 71.9533 196.199 71.72 196.199 71.44C196.199 70.9867 196.389 70.6433 196.769 70.41C197.156 70.17 197.656 70.05 198.269 70.05C199.016 70.05 199.659 70.21 200.199 70.53C200.286 70.5767 200.329 70.6267 200.329 70.68C200.329 70.7133 200.313 70.7567 200.279 70.81L200.009 71.24C199.969 71.3 199.936 71.33 199.909 71.33C199.883 71.33 199.843 71.3133 199.789 71.28C199.616 71.1733 199.406 71.09 199.159 71.03C198.919 70.9633 198.676 70.93 198.429 70.93C198.096 70.93 197.849 70.9667 197.689 71.04C197.536 71.1067 197.459 71.24 197.459 71.44C197.459 71.6133 197.549 71.75 197.729 71.85C197.916 71.95 198.236 72.07 198.689 72.21L199.019 72.31C199.539 72.4767 199.903 72.6733 200.109 72.9C200.323 73.1267 200.429 73.41 200.429 73.75C200.429 74.1633 200.246 74.5 199.879 74.76C199.519 75.02 198.986 75.15 198.279 75.15ZM204.004 75.15C203.484 75.15 203.014 75.0633 202.594 74.89C202.174 74.71 201.838 74.4367 201.584 74.07C201.338 73.6967 201.214 73.2333 201.214 72.68C201.214 71.82 201.444 71.1667 201.904 70.72C202.364 70.2733 203.018 70.05 203.864 70.05C204.704 70.05 205.338 70.2667 205.764 70.7C206.198 71.1333 206.414 71.76 206.414 72.58C206.414 72.8133 206.308 72.93 206.094 72.93H202.424C202.424 73.37 202.578 73.71 202.884 73.95C203.191 74.1833 203.618 74.3 204.164 74.3C204.691 74.3 205.164 74.18 205.584 73.94C205.631 73.9133 205.668 73.9 205.694 73.9C205.741 73.9 205.778 73.93 205.804 73.99L206.044 74.42C206.064 74.46 206.074 74.4967 206.074 74.53C206.074 74.5767 206.044 74.62 205.984 74.66C205.711 74.8267 205.414 74.95 205.094 75.03C204.781 75.11 204.418 75.15 204.004 75.15ZM205.254 72.19C205.254 71.7767 205.138 71.4533 204.904 71.22C204.678 70.9867 204.334 70.87 203.874 70.87C203.408 70.87 203.048 70.99 202.794 71.23C202.548 71.47 202.424 71.79 202.424 72.19H205.254ZM209.471 75.15C209.071 75.15 208.681 75.1067 208.301 75.02C207.921 74.94 207.594 74.8167 207.321 74.65C207.234 74.6033 207.191 74.5533 207.191 74.5C207.191 74.46 207.204 74.4233 207.231 74.39L207.511 73.9C207.544 73.84 207.577 73.81 207.611 73.81C207.644 73.81 207.687 73.8267 207.741 73.86C207.941 73.98 208.187 74.08 208.481 74.16C208.774 74.24 209.044 74.28 209.291 74.28C209.671 74.28 209.941 74.2433 210.101 74.17C210.267 74.09 210.351 73.95 210.351 73.75C210.351 73.6367 210.317 73.5467 210.251 73.48C210.191 73.4067 210.097 73.3433 209.971 73.29C209.844 73.2367 209.634 73.1633 209.341 73.07C209.341 73.07 209.231 73.0333 209.011 72.96C208.631 72.8333 208.327 72.71 208.101 72.59C207.874 72.47 207.697 72.32 207.571 72.14C207.451 71.9533 207.391 71.72 207.391 71.44C207.391 70.9867 207.581 70.6433 207.961 70.41C208.347 70.17 208.847 70.05 209.461 70.05C210.207 70.05 210.851 70.21 211.391 70.53C211.477 70.5767 211.521 70.6267 211.521 70.68C211.521 70.7133 211.504 70.7567 211.471 70.81L211.201 71.24C211.161 71.3 211.127 71.33 211.101 71.33C211.074 71.33 211.034 71.3133 210.981 71.28C210.807 71.1733 210.597 71.09 210.351 71.03C210.111 70.9633 209.867 70.93 209.621 70.93C209.287 70.93 209.041 70.9667 208.881 71.04C208.727 71.1067 208.651 71.24 208.651 71.44C208.651 71.6133 208.741 71.75 208.921 71.85C209.107 71.95 209.427 72.07 209.881 72.21L210.211 72.31C210.731 72.4767 211.094 72.6733 211.301 72.9C211.514 73.1267 211.621 73.41 211.621 73.75C211.621 74.1633 211.437 74.5 211.071 74.76C210.711 75.02 210.177 75.15 209.471 75.15Z" fill="#1E1E1E"/>
<path d="M65.7294 62C65.3827 62 65.1314 61.922 64.9754 61.766C64.8367 61.61 64.7674 61.376 64.7674 61.064V45.282C64.7674 44.9527 64.8367 44.71 64.9754 44.554C65.1314 44.398 65.3827 44.32 65.7294 44.32H73.2434C75.0461 44.32 76.4067 44.7533 77.3254 45.62C78.2614 46.4867 78.7294 47.6567 78.7294 49.13C78.7294 49.962 78.5214 50.7073 78.1054 51.366C77.6894 52.0247 77.1087 52.51 76.3634 52.822C78.2874 53.4287 79.2494 54.7807 79.2494 56.878C79.2494 57.8487 79.0241 58.724 78.5734 59.504C78.1401 60.2667 77.4814 60.8733 76.5974 61.324C75.7134 61.7747 74.6214 62 73.3214 62H65.7294ZM72.7754 51.704C73.6247 51.704 74.2747 51.4873 74.7254 51.054C75.1934 50.6207 75.4274 50.014 75.4274 49.234C75.4274 48.3847 75.2107 47.778 74.7774 47.414C74.3614 47.0327 73.6854 46.842 72.7494 46.842H68.0954V51.704H72.7754ZM73.1654 59.478C74.1187 59.478 74.8207 59.2353 75.2714 58.75C75.7221 58.2473 75.9474 57.606 75.9474 56.826C75.9474 55.9247 75.6701 55.2487 75.1154 54.798C74.5781 54.33 73.8241 54.096 72.8534 54.096H68.0954V59.478H73.1654ZM82.7665 62C82.4198 62 82.1685 61.922 82.0125 61.766C81.8738 61.61 81.8045 61.376 81.8045 61.064V45.282C81.8045 44.9527 81.8738 44.71 82.0125 44.554C82.1685 44.398 82.4198 44.32 82.7665 44.32H93.5825C93.9292 44.32 94.1632 44.3893 94.2845 44.528C94.4232 44.6667 94.4925 44.9007 94.4925 45.23V45.932C94.4925 46.2613 94.4232 46.504 94.2845 46.66C94.1632 46.7987 93.9292 46.868 93.5825 46.868H85.1325V51.912H91.2685C91.6152 51.912 91.8578 51.9813 91.9965 52.12C92.1352 52.2587 92.2045 52.4927 92.2045 52.822V53.472C92.2045 53.8013 92.1352 54.044 91.9965 54.2C91.8578 54.3387 91.6152 54.408 91.2685 54.408H85.1325V59.478H93.5565C93.9032 59.478 94.1458 59.556 94.2845 59.712C94.4232 59.8507 94.4925 60.0847 94.4925 60.414V61.116C94.4925 61.428 94.4232 61.6533 94.2845 61.792C94.1458 61.9307 93.9032 62 93.5565 62H82.7665ZM104.353 62.39C101.406 62.39 99.127 61.5927 97.515 59.998C95.903 58.4033 95.097 56.124 95.097 53.16C95.097 50.196 95.8857 47.9167 97.463 46.322C99.0577 44.7273 101.328 43.93 104.275 43.93C105.454 43.93 106.546 44.0513 107.551 44.294C108.556 44.5367 109.406 44.8833 110.099 45.334C110.255 45.438 110.333 45.5507 110.333 45.672C110.333 45.776 110.29 45.8973 110.203 46.036L109.475 47.284C109.371 47.44 109.276 47.518 109.189 47.518C109.12 47.518 108.998 47.4747 108.825 47.388C107.733 46.7293 106.338 46.4 104.639 46.4C102.68 46.4 101.146 46.9633 100.037 48.09C98.9277 49.2167 98.373 50.9067 98.373 53.16C98.373 55.448 98.945 57.1553 100.089 58.282C101.233 59.3913 102.776 59.946 104.717 59.946C106.52 59.946 108.002 59.608 109.163 58.932C109.336 58.8453 109.449 58.802 109.501 58.802C109.605 58.802 109.709 58.88 109.813 59.036L110.619 60.388C110.671 60.492 110.697 60.5787 110.697 60.648C110.697 60.752 110.602 60.8647 110.411 60.986C109.076 61.922 107.057 62.39 104.353 62.39ZM112.475 62C112.18 62 112.033 61.87 112.033 61.61C112.033 61.506 112.059 61.3933 112.111 61.272L118.975 44.996C119.079 44.736 119.191 44.5627 119.313 44.476C119.434 44.372 119.607 44.32 119.833 44.32H121.263C121.505 44.32 121.679 44.372 121.783 44.476C121.904 44.5627 122.017 44.736 122.121 44.996L128.985 61.272C129.037 61.3933 129.063 61.506 129.063 61.61C129.063 61.87 128.915 62 128.621 62H126.359C126.133 62 125.969 61.974 125.865 61.922C125.778 61.8527 125.691 61.7227 125.605 61.532L124.123 57.892H116.947L115.491 61.532C115.404 61.7227 115.309 61.8527 115.205 61.922C115.118 61.974 114.962 62 114.737 62H112.475ZM123.291 55.474L120.535 48.662L117.779 55.474H123.291ZM132.583 62C132.236 62 131.985 61.922 131.829 61.766C131.69 61.61 131.621 61.376 131.621 61.064V45.282C131.621 44.9527 131.69 44.71 131.829 44.554C131.985 44.398 132.236 44.32 132.583 44.32H133.961C134.308 44.32 134.559 44.398 134.715 44.554C134.871 44.71 134.949 44.9527 134.949 45.282V59.478H142.905C143.252 59.478 143.494 59.556 143.633 59.712C143.772 59.8507 143.841 60.0847 143.841 60.414V61.116C143.841 61.428 143.772 61.6533 143.633 61.792C143.494 61.9307 143.252 62 142.905 62H132.583ZM146.827 62C146.48 62 146.229 61.922 146.073 61.766C145.934 61.61 145.865 61.376 145.865 61.064V45.282C145.865 44.9527 145.934 44.71 146.073 44.554C146.229 44.398 146.48 44.32 146.827 44.32H148.205C148.552 44.32 148.803 44.398 148.959 44.554C149.115 44.71 149.193 44.9527 149.193 45.282V61.064C149.193 61.376 149.115 61.61 148.959 61.766C148.82 61.922 148.569 62 148.205 62H146.827ZM153.225 62C152.879 62 152.627 61.922 152.471 61.766C152.333 61.61 152.263 61.376 152.263 61.064V45.282C152.263 44.9527 152.333 44.71 152.471 44.554C152.627 44.398 152.879 44.32 153.225 44.32H160.739C162.542 44.32 163.903 44.7533 164.821 45.62C165.757 46.4867 166.225 47.6567 166.225 49.13C166.225 49.962 166.017 50.7073 165.601 51.366C165.185 52.0247 164.605 52.51 163.859 52.822C165.783 53.4287 166.745 54.7807 166.745 56.878C166.745 57.8487 166.52 58.724 166.069 59.504C165.636 60.2667 164.977 60.8733 164.093 61.324C163.209 61.7747 162.117 62 160.817 62H153.225ZM160.271 51.704C161.121 51.704 161.771 51.4873 162.221 51.054C162.689 50.6207 162.923 50.014 162.923 49.234C162.923 48.3847 162.707 47.778 162.273 47.414C161.857 47.0327 161.181 46.842 160.245 46.842H155.591V51.704H160.271ZM160.661 59.478C161.615 59.478 162.317 59.2353 162.767 58.75C163.218 58.2473 163.443 57.606 163.443 56.826C163.443 55.9247 163.166 55.2487 162.611 54.798C162.074 54.33 161.32 54.096 160.349 54.096H155.591V59.478H160.661Z" fill="#1E1E1E"/>
<path d="M103.186 29.508L102.155 32.1946L100.829 34.7644L100.387 35.4652L100.282 35.5905C99.9604 35.9732 99.6009 36.3226 99.2092 36.6333V36.6333" stroke="black" stroke-linecap="round"/>
<path d="M132.347 23.3171L131.464 26.0037L130.285 29.508L129.254 32.1946L127.929 34.7644L127.487 35.4652L127.094 35.9322C126.964 36.0877 126.818 36.2297 126.658 36.3559L126.525 36.4617C126.382 36.5755 126.222 36.6676 126.052 36.7351L125.857 36.8126C125.766 36.8485 125.67 36.8669 125.572 36.8669V36.8669" stroke="black" stroke-linecap="round"/>
<path d="M118.503 22.2862L119.681 26.0037L120.859 29.508L121.89 32.1946L123.216 34.7644L123.658 35.4652L124.05 35.9322C124.181 36.0877 124.327 36.2297 124.486 36.3559L124.62 36.4617C124.763 36.5755 124.922 36.6676 125.093 36.7351L125.288 36.8126C125.379 36.8485 125.475 36.8669 125.572 36.8669V36.8669" stroke="black" stroke-linecap="round"/>
<path d="M117.03 18.0151L115.705 14.4397L114.379 11.8699L113.937 11.1691L113.545 10.7021C113.414 10.5466 113.268 10.4046 113.109 10.2784L112.975 10.1726C112.832 10.0588 112.673 9.96668 112.502 9.89918L112.307 9.82166C112.216 9.78579 112.12 9.76736 112.023 9.76736V9.76736" stroke="black" stroke-linecap="round"/>
<path d="M104.511 25.8209L105.395 23.0226L106.131 20.6305L107.31 17.1263L108.341 14.4397L108.93 13.1548L109.666 11.8699L110.108 11.1691L110.501 10.7021C110.631 10.5466 110.777 10.4046 110.936 10.2784L111.07 10.1726C111.213 10.0588 111.373 9.96668 111.543 9.89918L111.738 9.82166C111.829 9.78579 111.925 9.76736 112.023 9.76736V9.76736" stroke="black" stroke-linecap="round"/>
<path d="M114.968 23.4644L114.008 24.6617L112.727 26.2234L112.008 26.991C111.741 27.277 111.452 27.5431 111.146 27.7869L110.166 28.5659L109.685 28.8782L109.045 29.1906L108.705 29.301C108.505 29.3661 108.3 29.4157 108.093 29.4495L107.922 29.4772C107.817 29.4943 107.711 29.5029 107.604 29.5029V29.5029" stroke="black" stroke-linecap="round"/>
<path d="M100.24 23.4644L101.201 24.6617L102.481 26.2234L103.2 26.991C103.468 27.2771 103.756 27.5431 104.063 27.7869L105.043 28.5659L105.523 28.8782L106.163 29.1906L106.503 29.301C106.703 29.3661 106.908 29.4157 107.116 29.4495L107.286 29.4772C107.391 29.4943 107.498 29.5029 107.604 29.5029V29.5029" stroke="black" stroke-linecap="round"/>
<path d="M129.696 23.4644L128.736 22.2671L127.455 20.7055L126.736 19.9378C126.469 19.6518 126.18 19.3858 125.874 19.142L124.894 18.3629L124.413 18.0506L123.773 17.7383L123.433 17.6278C123.233 17.5627 123.028 17.5131 122.821 17.4793L122.65 17.4516C122.545 17.4345 122.439 17.4259 122.332 17.4259V17.4259" stroke="black" stroke-linecap="round"/>
<path d="M114.968 23.4644L115.929 22.2671L117.209 20.7055L117.928 19.9378C118.196 19.6518 118.484 19.3858 118.791 19.142L119.771 18.3629L120.251 18.0506L120.891 17.7383L121.231 17.6278C121.431 17.5627 121.636 17.5131 121.844 17.4793L122.014 17.4516C122.119 17.4345 122.226 17.4259 122.332 17.4259V17.4259" stroke="black" stroke-linecap="round"/>
<path d="M100.24 23.4644L99.2796 22.2671" stroke="black" stroke-linecap="round"/>
<path d="M97 38.9288H134.704" stroke="#1E1E1E" stroke-linecap="round"/>
<path d="M97 8H134.704" stroke="#1E1E1E" stroke-linecap="round"/>
</svg>
